%TF.GenerationSoftware,KiCad,Pcbnew,(6.0.7)*%
%TF.CreationDate,2024-04-28T10:14:19+07:00*%
%TF.ProjectId,ble_gateway,626c655f-6761-4746-9577-61792e6b6963,rev?*%
%TF.SameCoordinates,Original*%
%TF.FileFunction,Soldermask,Top*%
%TF.FilePolarity,Negative*%
%FSLAX46Y46*%
G04 Gerber Fmt 4.6, Leading zero omitted, Abs format (unit mm)*
G04 Created by KiCad (PCBNEW (6.0.7)) date 2024-04-28 10:14:19*
%MOMM*%
%LPD*%
G01*
G04 APERTURE LIST*
G04 Aperture macros list*
%AMRoundRect*
0 Rectangle with rounded corners*
0 $1 Rounding radius*
0 $2 $3 $4 $5 $6 $7 $8 $9 X,Y pos of 4 corners*
0 Add a 4 corners polygon primitive as box body*
4,1,4,$2,$3,$4,$5,$6,$7,$8,$9,$2,$3,0*
0 Add four circle primitives for the rounded corners*
1,1,$1+$1,$2,$3*
1,1,$1+$1,$4,$5*
1,1,$1+$1,$6,$7*
1,1,$1+$1,$8,$9*
0 Add four rect primitives between the rounded corners*
20,1,$1+$1,$2,$3,$4,$5,0*
20,1,$1+$1,$4,$5,$6,$7,0*
20,1,$1+$1,$6,$7,$8,$9,0*
20,1,$1+$1,$8,$9,$2,$3,0*%
G04 Aperture macros list end*
%ADD10C,0.010000*%
%ADD11C,2.000000*%
%ADD12R,5.000000X5.000000*%
%ADD13R,0.900000X2.000000*%
%ADD14R,2.000000X0.900000*%
%ADD15RoundRect,0.218750X-0.218750X-0.256250X0.218750X-0.256250X0.218750X0.256250X-0.218750X0.256250X0*%
%ADD16RoundRect,0.218750X-0.256250X0.218750X-0.256250X-0.218750X0.256250X-0.218750X0.256250X0.218750X0*%
%ADD17RoundRect,0.225000X0.250000X-0.225000X0.250000X0.225000X-0.250000X0.225000X-0.250000X-0.225000X0*%
%ADD18R,1.200000X1.700000*%
%ADD19RoundRect,0.102000X0.675000X-0.200000X0.675000X0.200000X-0.675000X0.200000X-0.675000X-0.200000X0*%
%ADD20RoundRect,0.233250X0.493750X-0.131250X0.493750X0.131250X-0.493750X0.131250X-0.493750X-0.131250X0*%
%ADD21O,1.754800X1.284000*%
%ADD22RoundRect,0.102000X0.950000X-0.900000X0.950000X0.900000X-0.950000X0.900000X-0.950000X-0.900000X0*%
%ADD23O,1.804400X1.274000*%
%ADD24RoundRect,0.225000X0.225000X0.250000X-0.225000X0.250000X-0.225000X-0.250000X0.225000X-0.250000X0*%
%ADD25RoundRect,0.225000X-0.225000X-0.250000X0.225000X-0.250000X0.225000X0.250000X-0.225000X0.250000X0*%
%ADD26RoundRect,0.200000X0.200000X0.275000X-0.200000X0.275000X-0.200000X-0.275000X0.200000X-0.275000X0*%
%ADD27RoundRect,0.200000X0.275000X-0.200000X0.275000X0.200000X-0.275000X0.200000X-0.275000X-0.200000X0*%
%ADD28R,1.500000X2.000000*%
%ADD29R,3.800000X2.000000*%
%ADD30RoundRect,0.154000X0.558000X0.273000X-0.558000X0.273000X-0.558000X-0.273000X0.558000X-0.273000X0*%
%ADD31RoundRect,0.154000X-0.558000X-0.273000X0.558000X-0.273000X0.558000X0.273000X-0.558000X0.273000X0*%
%ADD32R,0.850000X2.200000*%
%ADD33RoundRect,0.200000X-0.275000X0.200000X-0.275000X-0.200000X0.275000X-0.200000X0.275000X0.200000X0*%
%ADD34RoundRect,0.150000X-0.512500X-0.150000X0.512500X-0.150000X0.512500X0.150000X-0.512500X0.150000X0*%
%ADD35RoundRect,0.225000X-0.250000X0.225000X-0.250000X-0.225000X0.250000X-0.225000X0.250000X0.225000X0*%
%ADD36RoundRect,0.200000X-0.200000X-0.275000X0.200000X-0.275000X0.200000X0.275000X-0.200000X0.275000X0*%
%ADD37R,1.700000X1.700000*%
%ADD38O,1.700000X1.700000*%
G04 APERTURE END LIST*
%TO.C,J1*%
G36*
X146803220Y-102697840D02*
G01*
X144700000Y-102697840D01*
X144700000Y-100400000D01*
X146803220Y-100400000D01*
X146803220Y-102697840D01*
G37*
D10*
X146803220Y-102697840D02*
X144700000Y-102697840D01*
X144700000Y-100400000D01*
X146803220Y-100400000D01*
X146803220Y-102697840D01*
G36*
X146800630Y-110000810D02*
G01*
X144700000Y-110000810D01*
X144700000Y-107700000D01*
X146800630Y-107700000D01*
X146800630Y-110000810D01*
G37*
X146800630Y-110000810D02*
X144700000Y-110000810D01*
X144700000Y-107700000D01*
X146800630Y-107700000D01*
X146800630Y-110000810D01*
%TD*%
D11*
%TO.C,U6*%
X129600000Y-112245000D03*
X134300000Y-112245000D03*
X139000000Y-112245000D03*
%TD*%
D12*
%TO.C,U2*%
X95120000Y-107000000D03*
D13*
X87620000Y-97500000D03*
X88890000Y-97500000D03*
X90160000Y-97500000D03*
X91430000Y-97500000D03*
X92700000Y-97500000D03*
X93970000Y-97500000D03*
X95240000Y-97500000D03*
X96510000Y-97500000D03*
X97780000Y-97500000D03*
X99050000Y-97500000D03*
X100320000Y-97500000D03*
X101590000Y-97500000D03*
X102860000Y-97500000D03*
X104130000Y-97500000D03*
D14*
X105130000Y-100285000D03*
X105130000Y-101555000D03*
X105130000Y-102825000D03*
X105130000Y-104095000D03*
X105130000Y-105365000D03*
X105130000Y-106635000D03*
X105130000Y-107905000D03*
X105130000Y-109175000D03*
X105130000Y-110445000D03*
X105130000Y-111715000D03*
D13*
X104130000Y-114500000D03*
X102860000Y-114500000D03*
X101590000Y-114500000D03*
X100320000Y-114500000D03*
X99050000Y-114500000D03*
X97780000Y-114500000D03*
X96510000Y-114500000D03*
X95240000Y-114500000D03*
X93970000Y-114500000D03*
X92700000Y-114500000D03*
X91430000Y-114500000D03*
X90160000Y-114500000D03*
X88890000Y-114500000D03*
X87620000Y-114500000D03*
%TD*%
D15*
%TO.C,D1*%
X128231500Y-105534400D03*
X129806500Y-105534400D03*
%TD*%
D16*
%TO.C,D2*%
X124520000Y-105712500D03*
X124520000Y-107287500D03*
%TD*%
D17*
%TO.C,C13*%
X112140000Y-114420000D03*
X112140000Y-112870000D03*
%TD*%
D18*
%TO.C,SW2*%
X147450000Y-113555000D03*
X143050000Y-113505000D03*
%TD*%
D19*
%TO.C,J1*%
X143075000Y-106500000D03*
X143075000Y-105850000D03*
X143075000Y-105200000D03*
X143075000Y-104550000D03*
X143075000Y-103900000D03*
D20*
X142750000Y-107625000D03*
X142750000Y-102775000D03*
D21*
X145750000Y-108710000D03*
D22*
X145750000Y-106350000D03*
X145750000Y-104050000D03*
D23*
X145774800Y-101685000D03*
%TD*%
D24*
%TO.C,C4*%
X117105000Y-97260000D03*
X115555000Y-97260000D03*
%TD*%
D25*
%TO.C,C14*%
X122975000Y-112750000D03*
X124525000Y-112750000D03*
%TD*%
D26*
%TO.C,R8*%
X124325000Y-108800000D03*
X122675000Y-108800000D03*
%TD*%
D11*
%TO.C,J2*%
X120520000Y-118245000D03*
X116020000Y-118245000D03*
%TD*%
D17*
%TO.C,C6*%
X138630600Y-103543400D03*
X138630600Y-101993400D03*
%TD*%
D24*
%TO.C,C8*%
X117115000Y-100770000D03*
X115565000Y-100770000D03*
%TD*%
D27*
%TO.C,R6*%
X136840000Y-106795000D03*
X136840000Y-105145000D03*
%TD*%
D28*
%TO.C,U1*%
X119700000Y-101150000D03*
D29*
X122000000Y-94850000D03*
D28*
X122000000Y-101150000D03*
X124300000Y-101150000D03*
%TD*%
D30*
%TO.C,U5*%
X114632500Y-110700000D03*
X114632500Y-109760000D03*
X114632500Y-108820000D03*
D31*
X112142500Y-108820000D03*
X112142500Y-110700000D03*
%TD*%
D18*
%TO.C,SW1*%
X147450000Y-96305000D03*
X143050000Y-96255000D03*
%TD*%
D26*
%TO.C,R10*%
X124525000Y-114530000D03*
X122875000Y-114530000D03*
%TD*%
D32*
%TO.C,C3*%
X117110000Y-94850000D03*
X114910000Y-94850000D03*
%TD*%
D27*
%TO.C,R1*%
X132000000Y-102325000D03*
X132000000Y-100675000D03*
%TD*%
D33*
%TO.C,R3*%
X136840000Y-101995000D03*
X136840000Y-103645000D03*
%TD*%
D11*
%TO.C,U4*%
X139300000Y-98055000D03*
X134600000Y-98055000D03*
X129900000Y-98055000D03*
%TD*%
D34*
%TO.C,U3*%
X120637500Y-108800000D03*
X120637500Y-110700000D03*
X118362500Y-110700000D03*
X118362500Y-109750000D03*
X118362500Y-108800000D03*
%TD*%
D27*
%TO.C,R4*%
X112750000Y-96575000D03*
X112750000Y-94925000D03*
%TD*%
D24*
%TO.C,C7*%
X117105000Y-99030000D03*
X115555000Y-99030000D03*
%TD*%
D35*
%TO.C,C10*%
X138630600Y-105243400D03*
X138630600Y-106793400D03*
%TD*%
D32*
%TO.C,C1*%
X129850000Y-101250000D03*
X127650000Y-101250000D03*
%TD*%
D25*
%TO.C,C2*%
X128257000Y-103750000D03*
X129807000Y-103750000D03*
%TD*%
D36*
%TO.C,R9*%
X137355000Y-108620000D03*
X139005000Y-108620000D03*
%TD*%
D24*
%TO.C,C11*%
X124535000Y-110700000D03*
X122985000Y-110700000D03*
%TD*%
D37*
%TO.C,J3*%
X124825000Y-89750000D03*
D38*
X122285000Y-89750000D03*
X119745000Y-89750000D03*
X117205000Y-89750000D03*
X114665000Y-89750000D03*
%TD*%
D27*
%TO.C,R7*%
X122710000Y-107365000D03*
X122710000Y-105715000D03*
%TD*%
D35*
%TO.C,C12*%
X114640000Y-112830000D03*
X114640000Y-114380000D03*
%TD*%
M02*
