%TF.GenerationSoftware,KiCad,Pcbnew,(6.0.7)*%
%TF.CreationDate,2024-04-28T10:14:19+07:00*%
%TF.ProjectId,ble_gateway,626c655f-6761-4746-9577-61792e6b6963,rev?*%
%TF.SameCoordinates,Original*%
%TF.FileFunction,Copper,L2,Bot*%
%TF.FilePolarity,Positive*%
%FSLAX46Y46*%
G04 Gerber Fmt 4.6, Leading zero omitted, Abs format (unit mm)*
G04 Created by KiCad (PCBNEW (6.0.7)) date 2024-04-28 10:14:19*
%MOMM*%
%LPD*%
G01*
G04 APERTURE LIST*
G04 Aperture macros list*
%AMRoundRect*
0 Rectangle with rounded corners*
0 $1 Rounding radius*
0 $2 $3 $4 $5 $6 $7 $8 $9 X,Y pos of 4 corners*
0 Add a 4 corners polygon primitive as box body*
4,1,4,$2,$3,$4,$5,$6,$7,$8,$9,$2,$3,0*
0 Add four circle primitives for the rounded corners*
1,1,$1+$1,$2,$3*
1,1,$1+$1,$4,$5*
1,1,$1+$1,$6,$7*
1,1,$1+$1,$8,$9*
0 Add four rect primitives between the rounded corners*
20,1,$1+$1,$2,$3,$4,$5,0*
20,1,$1+$1,$4,$5,$6,$7,0*
20,1,$1+$1,$6,$7,$8,$9,0*
20,1,$1+$1,$8,$9,$2,$3,0*%
G04 Aperture macros list end*
%TA.AperFunction,EtchedComponent*%
%ADD10C,0.000100*%
%TD*%
%TA.AperFunction,ComponentPad*%
%ADD11C,2.000000*%
%TD*%
%TA.AperFunction,ComponentPad*%
%ADD12RoundRect,0.131250X0.493750X-0.131250X0.493750X0.131250X-0.493750X0.131250X-0.493750X-0.131250X0*%
%TD*%
%TA.AperFunction,ComponentPad*%
%ADD13O,1.550800X1.080000*%
%TD*%
%TA.AperFunction,ComponentPad*%
%ADD14O,1.600400X1.070000*%
%TD*%
%TA.AperFunction,ComponentPad*%
%ADD15R,1.700000X1.700000*%
%TD*%
%TA.AperFunction,ComponentPad*%
%ADD16O,1.700000X1.700000*%
%TD*%
%TA.AperFunction,ViaPad*%
%ADD17C,0.600000*%
%TD*%
%TA.AperFunction,ViaPad*%
%ADD18C,3.000000*%
%TD*%
%TA.AperFunction,ViaPad*%
%ADD19C,0.500000*%
%TD*%
%TA.AperFunction,ViaPad*%
%ADD20C,0.800000*%
%TD*%
%TA.AperFunction,Conductor*%
%ADD21C,0.400000*%
%TD*%
G04 APERTURE END LIST*
%TO.C,J1*%
G36*
X145750000Y-108300000D02*
G01*
X145284000Y-108300000D01*
X145269000Y-108302000D01*
X145253000Y-108304000D01*
X145238000Y-108307000D01*
X145222000Y-108310000D01*
X145192000Y-108320000D01*
X145178000Y-108326000D01*
X145150000Y-108340000D01*
X145137000Y-108348000D01*
X145124000Y-108357000D01*
X145111000Y-108367000D01*
X145099000Y-108377000D01*
X145077000Y-108399000D01*
X145067000Y-108411000D01*
X145057000Y-108424000D01*
X145048000Y-108437000D01*
X145040000Y-108450000D01*
X145026000Y-108478000D01*
X145020000Y-108492000D01*
X145010000Y-108522000D01*
X145007000Y-108538000D01*
X145004000Y-108553000D01*
X145002000Y-108569000D01*
X145000000Y-108584000D01*
X145000000Y-108841000D01*
X145002000Y-108856000D01*
X145004000Y-108872000D01*
X145007000Y-108887000D01*
X145010000Y-108903000D01*
X145020000Y-108933000D01*
X145026000Y-108947000D01*
X145040000Y-108975000D01*
X145048000Y-108988000D01*
X145057000Y-109001000D01*
X145067000Y-109014000D01*
X145077000Y-109026000D01*
X145099000Y-109048000D01*
X145111000Y-109058000D01*
X145124000Y-109068000D01*
X145137000Y-109077000D01*
X145150000Y-109085000D01*
X145178000Y-109099000D01*
X145192000Y-109105000D01*
X145222000Y-109115000D01*
X145238000Y-109118000D01*
X145253000Y-109121000D01*
X145269000Y-109123000D01*
X145284000Y-109125000D01*
X145750000Y-109125000D01*
X145750000Y-109900000D01*
X145300000Y-109900000D01*
X145274000Y-109899000D01*
X145248000Y-109897000D01*
X145222000Y-109894000D01*
X145196000Y-109889000D01*
X145171000Y-109883000D01*
X145145000Y-109876000D01*
X145121000Y-109867000D01*
X145097000Y-109857000D01*
X145073000Y-109846000D01*
X145050000Y-109833000D01*
X145006000Y-109805000D01*
X144985000Y-109789000D01*
X144965000Y-109772000D01*
X144946000Y-109754000D01*
X144928000Y-109735000D01*
X144911000Y-109715000D01*
X144895000Y-109694000D01*
X144867000Y-109650000D01*
X144854000Y-109627000D01*
X144843000Y-109603000D01*
X144833000Y-109579000D01*
X144824000Y-109555000D01*
X144817000Y-109529000D01*
X144811000Y-109504000D01*
X144806000Y-109478000D01*
X144803000Y-109452000D01*
X144801000Y-109426000D01*
X144800000Y-109400000D01*
X144800000Y-107800000D01*
X145750000Y-107800000D01*
X145750000Y-108300000D01*
G37*
D10*
X145750000Y-108300000D02*
X145284000Y-108300000D01*
X145269000Y-108302000D01*
X145253000Y-108304000D01*
X145238000Y-108307000D01*
X145222000Y-108310000D01*
X145192000Y-108320000D01*
X145178000Y-108326000D01*
X145150000Y-108340000D01*
X145137000Y-108348000D01*
X145124000Y-108357000D01*
X145111000Y-108367000D01*
X145099000Y-108377000D01*
X145077000Y-108399000D01*
X145067000Y-108411000D01*
X145057000Y-108424000D01*
X145048000Y-108437000D01*
X145040000Y-108450000D01*
X145026000Y-108478000D01*
X145020000Y-108492000D01*
X145010000Y-108522000D01*
X145007000Y-108538000D01*
X145004000Y-108553000D01*
X145002000Y-108569000D01*
X145000000Y-108584000D01*
X145000000Y-108841000D01*
X145002000Y-108856000D01*
X145004000Y-108872000D01*
X145007000Y-108887000D01*
X145010000Y-108903000D01*
X145020000Y-108933000D01*
X145026000Y-108947000D01*
X145040000Y-108975000D01*
X145048000Y-108988000D01*
X145057000Y-109001000D01*
X145067000Y-109014000D01*
X145077000Y-109026000D01*
X145099000Y-109048000D01*
X145111000Y-109058000D01*
X145124000Y-109068000D01*
X145137000Y-109077000D01*
X145150000Y-109085000D01*
X145178000Y-109099000D01*
X145192000Y-109105000D01*
X145222000Y-109115000D01*
X145238000Y-109118000D01*
X145253000Y-109121000D01*
X145269000Y-109123000D01*
X145284000Y-109125000D01*
X145750000Y-109125000D01*
X145750000Y-109900000D01*
X145300000Y-109900000D01*
X145274000Y-109899000D01*
X145248000Y-109897000D01*
X145222000Y-109894000D01*
X145196000Y-109889000D01*
X145171000Y-109883000D01*
X145145000Y-109876000D01*
X145121000Y-109867000D01*
X145097000Y-109857000D01*
X145073000Y-109846000D01*
X145050000Y-109833000D01*
X145006000Y-109805000D01*
X144985000Y-109789000D01*
X144965000Y-109772000D01*
X144946000Y-109754000D01*
X144928000Y-109735000D01*
X144911000Y-109715000D01*
X144895000Y-109694000D01*
X144867000Y-109650000D01*
X144854000Y-109627000D01*
X144843000Y-109603000D01*
X144833000Y-109579000D01*
X144824000Y-109555000D01*
X144817000Y-109529000D01*
X144811000Y-109504000D01*
X144806000Y-109478000D01*
X144803000Y-109452000D01*
X144801000Y-109426000D01*
X144800000Y-109400000D01*
X144800000Y-107800000D01*
X145750000Y-107800000D01*
X145750000Y-108300000D01*
G36*
X146226000Y-100501000D02*
G01*
X146252000Y-100503000D01*
X146278000Y-100506000D01*
X146304000Y-100511000D01*
X146329000Y-100517000D01*
X146355000Y-100524000D01*
X146379000Y-100533000D01*
X146403000Y-100543000D01*
X146427000Y-100554000D01*
X146450000Y-100567000D01*
X146494000Y-100595000D01*
X146515000Y-100611000D01*
X146535000Y-100628000D01*
X146554000Y-100646000D01*
X146572000Y-100665000D01*
X146589000Y-100685000D01*
X146605000Y-100706000D01*
X146633000Y-100750000D01*
X146646000Y-100773000D01*
X146657000Y-100797000D01*
X146667000Y-100821000D01*
X146676000Y-100845000D01*
X146683000Y-100871000D01*
X146689000Y-100896000D01*
X146694000Y-100922000D01*
X146697000Y-100948000D01*
X146699000Y-100974000D01*
X146700000Y-101000000D01*
X146700000Y-102600000D01*
X145750000Y-102600000D01*
X145750000Y-102100000D01*
X146216000Y-102100000D01*
X146231000Y-102098000D01*
X146247000Y-102096000D01*
X146262000Y-102093000D01*
X146278000Y-102090000D01*
X146308000Y-102080000D01*
X146322000Y-102074000D01*
X146350000Y-102060000D01*
X146363000Y-102052000D01*
X146376000Y-102043000D01*
X146389000Y-102033000D01*
X146401000Y-102023000D01*
X146423000Y-102001000D01*
X146433000Y-101989000D01*
X146443000Y-101976000D01*
X146452000Y-101963000D01*
X146460000Y-101950000D01*
X146474000Y-101922000D01*
X146480000Y-101908000D01*
X146490000Y-101878000D01*
X146493000Y-101862000D01*
X146496000Y-101847000D01*
X146498000Y-101831000D01*
X146500000Y-101816000D01*
X146500000Y-101559000D01*
X146498000Y-101544000D01*
X146496000Y-101528000D01*
X146493000Y-101513000D01*
X146490000Y-101497000D01*
X146480000Y-101467000D01*
X146474000Y-101453000D01*
X146460000Y-101425000D01*
X146452000Y-101412000D01*
X146443000Y-101399000D01*
X146433000Y-101386000D01*
X146423000Y-101374000D01*
X146401000Y-101352000D01*
X146389000Y-101342000D01*
X146376000Y-101332000D01*
X146363000Y-101323000D01*
X146350000Y-101315000D01*
X146322000Y-101301000D01*
X146308000Y-101295000D01*
X146278000Y-101285000D01*
X146262000Y-101282000D01*
X146247000Y-101279000D01*
X146231000Y-101277000D01*
X146216000Y-101275000D01*
X145750000Y-101275000D01*
X145750000Y-100500000D01*
X146200000Y-100500000D01*
X146226000Y-100501000D01*
G37*
X146226000Y-100501000D02*
X146252000Y-100503000D01*
X146278000Y-100506000D01*
X146304000Y-100511000D01*
X146329000Y-100517000D01*
X146355000Y-100524000D01*
X146379000Y-100533000D01*
X146403000Y-100543000D01*
X146427000Y-100554000D01*
X146450000Y-100567000D01*
X146494000Y-100595000D01*
X146515000Y-100611000D01*
X146535000Y-100628000D01*
X146554000Y-100646000D01*
X146572000Y-100665000D01*
X146589000Y-100685000D01*
X146605000Y-100706000D01*
X146633000Y-100750000D01*
X146646000Y-100773000D01*
X146657000Y-100797000D01*
X146667000Y-100821000D01*
X146676000Y-100845000D01*
X146683000Y-100871000D01*
X146689000Y-100896000D01*
X146694000Y-100922000D01*
X146697000Y-100948000D01*
X146699000Y-100974000D01*
X146700000Y-101000000D01*
X146700000Y-102600000D01*
X145750000Y-102600000D01*
X145750000Y-102100000D01*
X146216000Y-102100000D01*
X146231000Y-102098000D01*
X146247000Y-102096000D01*
X146262000Y-102093000D01*
X146278000Y-102090000D01*
X146308000Y-102080000D01*
X146322000Y-102074000D01*
X146350000Y-102060000D01*
X146363000Y-102052000D01*
X146376000Y-102043000D01*
X146389000Y-102033000D01*
X146401000Y-102023000D01*
X146423000Y-102001000D01*
X146433000Y-101989000D01*
X146443000Y-101976000D01*
X146452000Y-101963000D01*
X146460000Y-101950000D01*
X146474000Y-101922000D01*
X146480000Y-101908000D01*
X146490000Y-101878000D01*
X146493000Y-101862000D01*
X146496000Y-101847000D01*
X146498000Y-101831000D01*
X146500000Y-101816000D01*
X146500000Y-101559000D01*
X146498000Y-101544000D01*
X146496000Y-101528000D01*
X146493000Y-101513000D01*
X146490000Y-101497000D01*
X146480000Y-101467000D01*
X146474000Y-101453000D01*
X146460000Y-101425000D01*
X146452000Y-101412000D01*
X146443000Y-101399000D01*
X146433000Y-101386000D01*
X146423000Y-101374000D01*
X146401000Y-101352000D01*
X146389000Y-101342000D01*
X146376000Y-101332000D01*
X146363000Y-101323000D01*
X146350000Y-101315000D01*
X146322000Y-101301000D01*
X146308000Y-101295000D01*
X146278000Y-101285000D01*
X146262000Y-101282000D01*
X146247000Y-101279000D01*
X146231000Y-101277000D01*
X146216000Y-101275000D01*
X145750000Y-101275000D01*
X145750000Y-100500000D01*
X146200000Y-100500000D01*
X146226000Y-100501000D01*
G36*
X145750000Y-101275000D02*
G01*
X145261000Y-101275000D01*
X145246000Y-101277000D01*
X145232000Y-101278000D01*
X145204000Y-101284000D01*
X145190000Y-101288000D01*
X145176000Y-101293000D01*
X145150000Y-101305000D01*
X145137000Y-101312000D01*
X145125000Y-101319000D01*
X145113000Y-101328000D01*
X145102000Y-101336000D01*
X145091000Y-101346000D01*
X145071000Y-101366000D01*
X145061000Y-101377000D01*
X145053000Y-101388000D01*
X145044000Y-101400000D01*
X145037000Y-101413000D01*
X145030000Y-101425000D01*
X145018000Y-101451000D01*
X145013000Y-101465000D01*
X145009000Y-101479000D01*
X145003000Y-101507000D01*
X145002000Y-101521000D01*
X145000000Y-101536000D01*
X145000000Y-101816000D01*
X145002000Y-101831000D01*
X145004000Y-101847000D01*
X145007000Y-101862000D01*
X145010000Y-101878000D01*
X145020000Y-101908000D01*
X145026000Y-101922000D01*
X145040000Y-101950000D01*
X145048000Y-101963000D01*
X145057000Y-101976000D01*
X145067000Y-101989000D01*
X145077000Y-102001000D01*
X145099000Y-102023000D01*
X145111000Y-102033000D01*
X145124000Y-102043000D01*
X145137000Y-102052000D01*
X145150000Y-102060000D01*
X145178000Y-102074000D01*
X145192000Y-102080000D01*
X145222000Y-102090000D01*
X145238000Y-102093000D01*
X145253000Y-102096000D01*
X145269000Y-102098000D01*
X145284000Y-102100000D01*
X145750000Y-102100000D01*
X145750000Y-102600000D01*
X144800000Y-102600000D01*
X144800000Y-101000000D01*
X144801000Y-100974000D01*
X144803000Y-100948000D01*
X144806000Y-100922000D01*
X144811000Y-100896000D01*
X144817000Y-100871000D01*
X144824000Y-100845000D01*
X144833000Y-100821000D01*
X144843000Y-100797000D01*
X144854000Y-100773000D01*
X144867000Y-100750000D01*
X144895000Y-100706000D01*
X144911000Y-100685000D01*
X144928000Y-100665000D01*
X144946000Y-100646000D01*
X144965000Y-100628000D01*
X144985000Y-100611000D01*
X145006000Y-100595000D01*
X145050000Y-100567000D01*
X145073000Y-100554000D01*
X145097000Y-100543000D01*
X145121000Y-100533000D01*
X145145000Y-100524000D01*
X145171000Y-100517000D01*
X145196000Y-100511000D01*
X145222000Y-100506000D01*
X145248000Y-100503000D01*
X145274000Y-100501000D01*
X145300000Y-100500000D01*
X145750000Y-100500000D01*
X145750000Y-101275000D01*
G37*
X145750000Y-101275000D02*
X145261000Y-101275000D01*
X145246000Y-101277000D01*
X145232000Y-101278000D01*
X145204000Y-101284000D01*
X145190000Y-101288000D01*
X145176000Y-101293000D01*
X145150000Y-101305000D01*
X145137000Y-101312000D01*
X145125000Y-101319000D01*
X145113000Y-101328000D01*
X145102000Y-101336000D01*
X145091000Y-101346000D01*
X145071000Y-101366000D01*
X145061000Y-101377000D01*
X145053000Y-101388000D01*
X145044000Y-101400000D01*
X145037000Y-101413000D01*
X145030000Y-101425000D01*
X145018000Y-101451000D01*
X145013000Y-101465000D01*
X145009000Y-101479000D01*
X145003000Y-101507000D01*
X145002000Y-101521000D01*
X145000000Y-101536000D01*
X145000000Y-101816000D01*
X145002000Y-101831000D01*
X145004000Y-101847000D01*
X145007000Y-101862000D01*
X145010000Y-101878000D01*
X145020000Y-101908000D01*
X145026000Y-101922000D01*
X145040000Y-101950000D01*
X145048000Y-101963000D01*
X145057000Y-101976000D01*
X145067000Y-101989000D01*
X145077000Y-102001000D01*
X145099000Y-102023000D01*
X145111000Y-102033000D01*
X145124000Y-102043000D01*
X145137000Y-102052000D01*
X145150000Y-102060000D01*
X145178000Y-102074000D01*
X145192000Y-102080000D01*
X145222000Y-102090000D01*
X145238000Y-102093000D01*
X145253000Y-102096000D01*
X145269000Y-102098000D01*
X145284000Y-102100000D01*
X145750000Y-102100000D01*
X145750000Y-102600000D01*
X144800000Y-102600000D01*
X144800000Y-101000000D01*
X144801000Y-100974000D01*
X144803000Y-100948000D01*
X144806000Y-100922000D01*
X144811000Y-100896000D01*
X144817000Y-100871000D01*
X144824000Y-100845000D01*
X144833000Y-100821000D01*
X144843000Y-100797000D01*
X144854000Y-100773000D01*
X144867000Y-100750000D01*
X144895000Y-100706000D01*
X144911000Y-100685000D01*
X144928000Y-100665000D01*
X144946000Y-100646000D01*
X144965000Y-100628000D01*
X144985000Y-100611000D01*
X145006000Y-100595000D01*
X145050000Y-100567000D01*
X145073000Y-100554000D01*
X145097000Y-100543000D01*
X145121000Y-100533000D01*
X145145000Y-100524000D01*
X145171000Y-100517000D01*
X145196000Y-100511000D01*
X145222000Y-100506000D01*
X145248000Y-100503000D01*
X145274000Y-100501000D01*
X145300000Y-100500000D01*
X145750000Y-100500000D01*
X145750000Y-101275000D01*
G36*
X146700000Y-109400000D02*
G01*
X146699000Y-109426000D01*
X146697000Y-109452000D01*
X146694000Y-109478000D01*
X146689000Y-109504000D01*
X146683000Y-109529000D01*
X146676000Y-109555000D01*
X146667000Y-109579000D01*
X146657000Y-109603000D01*
X146646000Y-109627000D01*
X146633000Y-109650000D01*
X146605000Y-109694000D01*
X146589000Y-109715000D01*
X146572000Y-109735000D01*
X146554000Y-109754000D01*
X146535000Y-109772000D01*
X146515000Y-109789000D01*
X146494000Y-109805000D01*
X146450000Y-109833000D01*
X146427000Y-109846000D01*
X146403000Y-109857000D01*
X146379000Y-109867000D01*
X146355000Y-109876000D01*
X146329000Y-109883000D01*
X146304000Y-109889000D01*
X146278000Y-109894000D01*
X146252000Y-109897000D01*
X146226000Y-109899000D01*
X146200000Y-109900000D01*
X145750000Y-109900000D01*
X145750000Y-109125000D01*
X146239000Y-109125000D01*
X146254000Y-109123000D01*
X146268000Y-109122000D01*
X146296000Y-109116000D01*
X146310000Y-109112000D01*
X146324000Y-109107000D01*
X146350000Y-109095000D01*
X146363000Y-109088000D01*
X146375000Y-109081000D01*
X146387000Y-109072000D01*
X146398000Y-109064000D01*
X146409000Y-109054000D01*
X146429000Y-109034000D01*
X146439000Y-109023000D01*
X146447000Y-109012000D01*
X146456000Y-109000000D01*
X146463000Y-108987000D01*
X146470000Y-108975000D01*
X146482000Y-108949000D01*
X146487000Y-108935000D01*
X146491000Y-108921000D01*
X146497000Y-108893000D01*
X146498000Y-108879000D01*
X146500000Y-108864000D01*
X146500000Y-108584000D01*
X146498000Y-108569000D01*
X146496000Y-108553000D01*
X146493000Y-108538000D01*
X146490000Y-108522000D01*
X146480000Y-108492000D01*
X146474000Y-108478000D01*
X146460000Y-108450000D01*
X146452000Y-108437000D01*
X146443000Y-108424000D01*
X146433000Y-108411000D01*
X146423000Y-108399000D01*
X146401000Y-108377000D01*
X146389000Y-108367000D01*
X146376000Y-108357000D01*
X146363000Y-108348000D01*
X146350000Y-108340000D01*
X146322000Y-108326000D01*
X146308000Y-108320000D01*
X146278000Y-108310000D01*
X146262000Y-108307000D01*
X146247000Y-108304000D01*
X146231000Y-108302000D01*
X146216000Y-108300000D01*
X145750000Y-108300000D01*
X145750000Y-107800000D01*
X146700000Y-107800000D01*
X146700000Y-109400000D01*
G37*
X146700000Y-109400000D02*
X146699000Y-109426000D01*
X146697000Y-109452000D01*
X146694000Y-109478000D01*
X146689000Y-109504000D01*
X146683000Y-109529000D01*
X146676000Y-109555000D01*
X146667000Y-109579000D01*
X146657000Y-109603000D01*
X146646000Y-109627000D01*
X146633000Y-109650000D01*
X146605000Y-109694000D01*
X146589000Y-109715000D01*
X146572000Y-109735000D01*
X146554000Y-109754000D01*
X146535000Y-109772000D01*
X146515000Y-109789000D01*
X146494000Y-109805000D01*
X146450000Y-109833000D01*
X146427000Y-109846000D01*
X146403000Y-109857000D01*
X146379000Y-109867000D01*
X146355000Y-109876000D01*
X146329000Y-109883000D01*
X146304000Y-109889000D01*
X146278000Y-109894000D01*
X146252000Y-109897000D01*
X146226000Y-109899000D01*
X146200000Y-109900000D01*
X145750000Y-109900000D01*
X145750000Y-109125000D01*
X146239000Y-109125000D01*
X146254000Y-109123000D01*
X146268000Y-109122000D01*
X146296000Y-109116000D01*
X146310000Y-109112000D01*
X146324000Y-109107000D01*
X146350000Y-109095000D01*
X146363000Y-109088000D01*
X146375000Y-109081000D01*
X146387000Y-109072000D01*
X146398000Y-109064000D01*
X146409000Y-109054000D01*
X146429000Y-109034000D01*
X146439000Y-109023000D01*
X146447000Y-109012000D01*
X146456000Y-109000000D01*
X146463000Y-108987000D01*
X146470000Y-108975000D01*
X146482000Y-108949000D01*
X146487000Y-108935000D01*
X146491000Y-108921000D01*
X146497000Y-108893000D01*
X146498000Y-108879000D01*
X146500000Y-108864000D01*
X146500000Y-108584000D01*
X146498000Y-108569000D01*
X146496000Y-108553000D01*
X146493000Y-108538000D01*
X146490000Y-108522000D01*
X146480000Y-108492000D01*
X146474000Y-108478000D01*
X146460000Y-108450000D01*
X146452000Y-108437000D01*
X146443000Y-108424000D01*
X146433000Y-108411000D01*
X146423000Y-108399000D01*
X146401000Y-108377000D01*
X146389000Y-108367000D01*
X146376000Y-108357000D01*
X146363000Y-108348000D01*
X146350000Y-108340000D01*
X146322000Y-108326000D01*
X146308000Y-108320000D01*
X146278000Y-108310000D01*
X146262000Y-108307000D01*
X146247000Y-108304000D01*
X146231000Y-108302000D01*
X146216000Y-108300000D01*
X145750000Y-108300000D01*
X145750000Y-107800000D01*
X146700000Y-107800000D01*
X146700000Y-109400000D01*
%TD*%
D11*
%TO.P,U6,1,1*%
%TO.N,sleep_from_button*%
X129600000Y-112245000D03*
%TO.P,U6,2,2*%
%TO.N,sleep*%
X134300000Y-112245000D03*
%TO.P,U6,3,3*%
%TO.N,sleep_from_timer*%
X139000000Y-112245000D03*
%TD*%
D12*
%TO.P,J1,S1,SHIELD*%
%TO.N,Net-(J1-PadS1)*%
X142750000Y-107625000D03*
%TO.P,J1,S2,SHIELD*%
X142750000Y-102775000D03*
D13*
%TO.P,J1,S3,SHIELD*%
X145750000Y-108710000D03*
D14*
%TO.P,J1,S6,SHIELD*%
X145774800Y-101685000D03*
%TD*%
D11*
%TO.P,J2,1,Pin_1*%
%TO.N,Vbat*%
X120520000Y-118245000D03*
%TO.P,J2,2,Pin_2*%
%TO.N,GND*%
X116020000Y-118245000D03*
%TD*%
%TO.P,U4,1,1*%
%TO.N,charger*%
X139300000Y-98055000D03*
%TO.P,U4,2,2*%
%TO.N,input_5V*%
X134600000Y-98055000D03*
%TO.P,U4,3,3*%
%TO.N,no_charge*%
X129900000Y-98055000D03*
%TD*%
D15*
%TO.P,J3,1,Pin_1*%
%TO.N,input_5V*%
X124825000Y-89750000D03*
D16*
%TO.P,J3,2,Pin_2*%
%TO.N,VDD33*%
X122285000Y-89750000D03*
%TO.P,J3,3,Pin_3*%
%TO.N,GND*%
X119745000Y-89750000D03*
%TO.P,J3,4,Pin_4*%
%TO.N,Rx*%
X117205000Y-89750000D03*
%TO.P,J3,5,Pin_5*%
%TO.N,Tx*%
X114665000Y-89750000D03*
%TD*%
D17*
%TO.N,GND*%
X133725000Y-119750000D03*
X133600000Y-117300000D03*
X127125000Y-117025000D03*
X126225000Y-105550000D03*
X120250000Y-103975000D03*
D18*
%TO.N,*%
X86750000Y-120750000D03*
X147475000Y-120750000D03*
X147450000Y-89550000D03*
X86750000Y-89500000D03*
D17*
%TO.N,GND*%
X112925000Y-122025000D03*
X87475000Y-103750000D03*
X146775000Y-99475000D03*
X120800000Y-116325000D03*
X92125000Y-99800000D03*
X113050000Y-117375000D03*
X133725000Y-122000000D03*
X88875000Y-111025000D03*
X127800000Y-92375000D03*
X136550000Y-111800000D03*
X117700000Y-122025000D03*
X87550000Y-111025000D03*
X112925000Y-99600000D03*
X137700000Y-93700000D03*
X90175000Y-92450000D03*
X133050000Y-103425000D03*
X88825000Y-105575000D03*
X116750000Y-107950000D03*
X90325000Y-107500000D03*
X130150000Y-117175000D03*
X112450000Y-103350000D03*
X121850000Y-122025000D03*
X135325000Y-87825000D03*
X135175000Y-103875000D03*
X127025000Y-122025000D03*
X131625000Y-87825000D03*
X133600000Y-114300000D03*
X92450000Y-89750000D03*
X129025000Y-87825000D03*
X110175000Y-118550000D03*
X141150000Y-98825000D03*
X90325000Y-101550000D03*
X96250000Y-88025000D03*
X143700000Y-93550000D03*
X97725000Y-112325000D03*
X113350000Y-111950000D03*
X146625000Y-118125000D03*
X144200000Y-111275000D03*
X90100000Y-94050000D03*
X146600000Y-116300000D03*
X130750000Y-93275000D03*
X101225000Y-101375000D03*
X138400000Y-89800000D03*
X129925000Y-119500000D03*
X119750000Y-113550000D03*
X86650000Y-92650000D03*
X140850000Y-93575000D03*
X117125000Y-112025000D03*
X93000000Y-119375000D03*
X143975000Y-89850000D03*
X90100000Y-90925000D03*
X88875000Y-107475000D03*
X110025000Y-111025000D03*
X146000000Y-91400000D03*
X88800000Y-103750000D03*
X99275000Y-104475000D03*
X122625000Y-103975000D03*
X114100000Y-101800000D03*
D19*
X109425000Y-116275000D03*
D17*
X117125000Y-113450000D03*
X125950000Y-98500000D03*
X101350000Y-108375000D03*
X110625000Y-92625000D03*
X144175000Y-109650000D03*
X101050000Y-92725000D03*
X99400000Y-108375000D03*
X140800000Y-95225000D03*
X101225000Y-104475000D03*
X98150000Y-122075000D03*
X87575000Y-109075000D03*
X119275000Y-106275000D03*
X114800000Y-106850000D03*
X115475000Y-92575000D03*
X88900000Y-109075000D03*
X119750000Y-111900000D03*
X137250000Y-95400000D03*
X94575000Y-95450000D03*
X139300000Y-121975000D03*
X116850000Y-116350000D03*
X129675000Y-114300000D03*
X119425000Y-92550000D03*
X88325000Y-92500000D03*
X133725000Y-109050000D03*
X123275000Y-119925000D03*
X141050000Y-87825000D03*
X99200000Y-119575000D03*
X142925000Y-116300000D03*
X105750000Y-92625000D03*
X86650000Y-94225000D03*
X139225000Y-114425000D03*
X107475000Y-122075000D03*
X122400000Y-92550000D03*
X132675000Y-96400000D03*
X93375000Y-122075000D03*
X87450000Y-116675000D03*
X135150000Y-102175000D03*
X96800000Y-93250000D03*
X109975000Y-108700000D03*
X99275000Y-101375000D03*
X102300000Y-122075000D03*
X109275000Y-88025000D03*
X136600000Y-100400000D03*
X110000000Y-98575000D03*
X108450000Y-105425000D03*
X88875000Y-101525000D03*
X99375000Y-88025000D03*
X112625000Y-97875000D03*
X125200000Y-92775000D03*
X89025000Y-120650000D03*
X87425000Y-118650000D03*
X88350000Y-94225000D03*
X101975000Y-88025000D03*
X112250000Y-116650000D03*
X127125000Y-119750000D03*
X90275000Y-105600000D03*
X146900000Y-94375000D03*
X110100000Y-104050000D03*
X140950000Y-109800000D03*
X90325000Y-111050000D03*
X90350000Y-109100000D03*
X105600000Y-119575000D03*
X138450000Y-87825000D03*
X134525000Y-90850000D03*
X90250000Y-103775000D03*
X90100000Y-88325000D03*
X106150000Y-88025000D03*
X132225000Y-105650000D03*
X134150000Y-107975000D03*
X111250000Y-119875000D03*
X125825000Y-94775000D03*
X87550000Y-107475000D03*
X113400000Y-113500000D03*
X125875000Y-96625000D03*
X117250000Y-104375000D03*
X116075000Y-119975000D03*
X112000000Y-106925000D03*
X142950000Y-118125000D03*
X87500000Y-105575000D03*
X87550000Y-101525000D03*
X129050000Y-109025000D03*
D20*
%TO.N,EN*%
X92950000Y-117020000D03*
X138630000Y-100620000D03*
%TO.N,BOOT*%
X108480000Y-94130000D03*
X135382000Y-108204000D03*
%TO.N,input_5V*%
X140716000Y-105664000D03*
%TO.N,sleep*%
X99822000Y-118364000D03*
X136144000Y-114808000D03*
%TD*%
D21*
%TO.N,EN*%
X107550000Y-116960000D02*
X107550000Y-117000000D01*
X107550000Y-117000000D02*
X92950000Y-117000000D01*
X125140000Y-113450000D02*
X124110000Y-114480000D01*
X141516000Y-102146000D02*
X141516000Y-107658000D01*
X126630000Y-110110000D02*
X125140000Y-111600000D01*
X125140000Y-111600000D02*
X125140000Y-113450000D01*
X139990000Y-100620000D02*
X141516000Y-102146000D01*
X138630000Y-100620000D02*
X139990000Y-100620000D01*
X139064000Y-110110000D02*
X126630000Y-110110000D01*
X141516000Y-107658000D02*
X139064000Y-110110000D01*
X110030000Y-114480000D02*
X107550000Y-116960000D01*
X124110000Y-114480000D02*
X110030000Y-114480000D01*
%TO.N,BOOT*%
X135382000Y-107072000D02*
X131170000Y-102860000D01*
X131170000Y-102860000D02*
X116780000Y-102860000D01*
X116780000Y-102860000D02*
X114460000Y-100540000D01*
X112240000Y-94090000D02*
X108490000Y-94090000D01*
X114460000Y-96310000D02*
X112240000Y-94090000D01*
X114460000Y-100540000D02*
X114460000Y-96310000D01*
X135382000Y-108204000D02*
X135382000Y-107072000D01*
%TO.N,sleep*%
X111252000Y-115570000D02*
X108458000Y-118364000D01*
X108458000Y-118364000D02*
X99822000Y-118364000D01*
X136144000Y-114808000D02*
X135382000Y-115570000D01*
X135382000Y-115570000D02*
X111252000Y-115570000D01*
%TD*%
%TA.AperFunction,Conductor*%
%TO.N,GND*%
G36*
X117084867Y-87075492D02*
G01*
X149235480Y-87080466D01*
X149283044Y-87097786D01*
X149308347Y-87141627D01*
X149309469Y-87154472D01*
X149304837Y-120385230D01*
X149304825Y-120468864D01*
X149287506Y-120516428D01*
X149243665Y-120541732D01*
X149193816Y-120532935D01*
X149161284Y-120494154D01*
X149158650Y-120485186D01*
X149150335Y-120448440D01*
X149105756Y-120251428D01*
X149090259Y-120211576D01*
X149015143Y-120018417D01*
X149014150Y-120015863D01*
X148888731Y-119796426D01*
X148732255Y-119597938D01*
X148548160Y-119424758D01*
X148340489Y-119280691D01*
X148234632Y-119228488D01*
X148116269Y-119170118D01*
X148116268Y-119170118D01*
X148113805Y-119168903D01*
X147873087Y-119091849D01*
X147623624Y-119051221D01*
X147620891Y-119051185D01*
X147620888Y-119051185D01*
X147440874Y-119048829D01*
X147370896Y-119047913D01*
X147120455Y-119081996D01*
X147117827Y-119082762D01*
X146880433Y-119151956D01*
X146880428Y-119151958D01*
X146877803Y-119152723D01*
X146875318Y-119153869D01*
X146875317Y-119153869D01*
X146814381Y-119181961D01*
X146648270Y-119258539D01*
X146645976Y-119260043D01*
X146439197Y-119395613D01*
X146439194Y-119395616D01*
X146436899Y-119397120D01*
X146434851Y-119398948D01*
X146434847Y-119398951D01*
X146388487Y-119440329D01*
X146248333Y-119565421D01*
X146086715Y-119759746D01*
X145955595Y-119975825D01*
X145857854Y-120208911D01*
X145857178Y-120211573D01*
X145857177Y-120211576D01*
X145807795Y-120406020D01*
X145795639Y-120453883D01*
X145770316Y-120705361D01*
X145772460Y-120750000D01*
X145782141Y-120951528D01*
X145782443Y-120957820D01*
X145782977Y-120960506D01*
X145782978Y-120960512D01*
X145792910Y-121010442D01*
X145831752Y-121205713D01*
X145917160Y-121443595D01*
X146036792Y-121666240D01*
X146188018Y-121868756D01*
X146367517Y-122046696D01*
X146571346Y-122196149D01*
X146795026Y-122313833D01*
X146797615Y-122314737D01*
X146797617Y-122314738D01*
X147031051Y-122396257D01*
X147031057Y-122396259D01*
X147033644Y-122397162D01*
X147036346Y-122397675D01*
X147279259Y-122443794D01*
X147279265Y-122443795D01*
X147281958Y-122444306D01*
X147284698Y-122444414D01*
X147284701Y-122444414D01*
X147434190Y-122450287D01*
X147534513Y-122454229D01*
X147537242Y-122453930D01*
X147537246Y-122453930D01*
X147629794Y-122443794D01*
X147785760Y-122426713D01*
X147921143Y-122391070D01*
X148027523Y-122363063D01*
X148027526Y-122363062D01*
X148030181Y-122362363D01*
X148262405Y-122262591D01*
X148367716Y-122197423D01*
X148474995Y-122131037D01*
X148474999Y-122131034D01*
X148477331Y-122129591D01*
X148670238Y-121966283D01*
X148836888Y-121776256D01*
X148838367Y-121773957D01*
X148838372Y-121773950D01*
X148972133Y-121565995D01*
X148972136Y-121565990D01*
X148973619Y-121563684D01*
X149077428Y-121333236D01*
X149078171Y-121330600D01*
X149078174Y-121330593D01*
X149145289Y-121092617D01*
X149146034Y-121089976D01*
X149157341Y-121001093D01*
X149180518Y-120956092D01*
X149227198Y-120936517D01*
X149275541Y-120951528D01*
X149302924Y-120994100D01*
X149304749Y-121010442D01*
X149304531Y-122575510D01*
X149287212Y-122623074D01*
X149243371Y-122648378D01*
X149230531Y-122649500D01*
X85024562Y-122649500D01*
X84976996Y-122632187D01*
X84951686Y-122588350D01*
X84950562Y-122575479D01*
X84950953Y-121173770D01*
X84968279Y-121126209D01*
X85012123Y-121100912D01*
X85061971Y-121109715D01*
X85094497Y-121148501D01*
X85097530Y-121159353D01*
X85106752Y-121205713D01*
X85192160Y-121443595D01*
X85311792Y-121666240D01*
X85463018Y-121868756D01*
X85642517Y-122046696D01*
X85846346Y-122196149D01*
X86070026Y-122313833D01*
X86072615Y-122314737D01*
X86072617Y-122314738D01*
X86306051Y-122396257D01*
X86306057Y-122396259D01*
X86308644Y-122397162D01*
X86311346Y-122397675D01*
X86554259Y-122443794D01*
X86554265Y-122443795D01*
X86556958Y-122444306D01*
X86559698Y-122444414D01*
X86559701Y-122444414D01*
X86709190Y-122450287D01*
X86809513Y-122454229D01*
X86812242Y-122453930D01*
X86812246Y-122453930D01*
X86904794Y-122443794D01*
X87060760Y-122426713D01*
X87196143Y-122391070D01*
X87302523Y-122363063D01*
X87302526Y-122363062D01*
X87305181Y-122362363D01*
X87537405Y-122262591D01*
X87642716Y-122197423D01*
X87749995Y-122131037D01*
X87749999Y-122131034D01*
X87752331Y-122129591D01*
X87945238Y-121966283D01*
X88111888Y-121776256D01*
X88113367Y-121773957D01*
X88113372Y-121773950D01*
X88247133Y-121565995D01*
X88247136Y-121565990D01*
X88248619Y-121563684D01*
X88352428Y-121333236D01*
X88353171Y-121330600D01*
X88353174Y-121330593D01*
X88420289Y-121092617D01*
X88421034Y-121089976D01*
X88432342Y-121001094D01*
X88452696Y-120841096D01*
X88452696Y-120841092D01*
X88452931Y-120839247D01*
X88455268Y-120750000D01*
X88436537Y-120497945D01*
X88380756Y-120251428D01*
X88365259Y-120211576D01*
X88290143Y-120018417D01*
X88289150Y-120015863D01*
X88163731Y-119796426D01*
X88007255Y-119597938D01*
X87823160Y-119424758D01*
X87615489Y-119280691D01*
X87509632Y-119228488D01*
X87391269Y-119170118D01*
X87391268Y-119170118D01*
X87388805Y-119168903D01*
X87148087Y-119091849D01*
X86898624Y-119051221D01*
X86895891Y-119051185D01*
X86895888Y-119051185D01*
X86715874Y-119048829D01*
X86645896Y-119047913D01*
X86395455Y-119081996D01*
X86392827Y-119082762D01*
X86155433Y-119151956D01*
X86155428Y-119151958D01*
X86152803Y-119152723D01*
X86150318Y-119153869D01*
X86150317Y-119153869D01*
X86089381Y-119181961D01*
X85923270Y-119258539D01*
X85920976Y-119260043D01*
X85714197Y-119395613D01*
X85714194Y-119395616D01*
X85711899Y-119397120D01*
X85709851Y-119398948D01*
X85709847Y-119398951D01*
X85663487Y-119440329D01*
X85523333Y-119565421D01*
X85361715Y-119759746D01*
X85230595Y-119975825D01*
X85132854Y-120208911D01*
X85132178Y-120211573D01*
X85096910Y-120350440D01*
X85068421Y-120392281D01*
X85019703Y-120406020D01*
X84973550Y-120385230D01*
X84951559Y-120339638D01*
X84951187Y-120332203D01*
X84951210Y-120251428D01*
X84951553Y-119019978D01*
X84968879Y-118972418D01*
X85012723Y-118947121D01*
X85025553Y-118946000D01*
X86022200Y-118946000D01*
X86022200Y-118364000D01*
X99216318Y-118364000D01*
X99216951Y-118368808D01*
X99225036Y-118430217D01*
X99236956Y-118520762D01*
X99297464Y-118666841D01*
X99300414Y-118670685D01*
X99300416Y-118670689D01*
X99358972Y-118747000D01*
X99393718Y-118792282D01*
X99397568Y-118795236D01*
X99397569Y-118795237D01*
X99515311Y-118885584D01*
X99515315Y-118885586D01*
X99519159Y-118888536D01*
X99665238Y-118949044D01*
X99670040Y-118949676D01*
X99670043Y-118949677D01*
X99817192Y-118969049D01*
X99822000Y-118969682D01*
X99826808Y-118969049D01*
X99973957Y-118949677D01*
X99973960Y-118949676D01*
X99978762Y-118949044D01*
X100124841Y-118888536D01*
X100128685Y-118885586D01*
X100128689Y-118885584D01*
X100246432Y-118795236D01*
X100250282Y-118792282D01*
X100253234Y-118788434D01*
X100255497Y-118786172D01*
X100301374Y-118764781D01*
X100307821Y-118764500D01*
X108521433Y-118764500D01*
X108526971Y-118762700D01*
X108526974Y-118762700D01*
X108546246Y-118756438D01*
X108557537Y-118753727D01*
X108567544Y-118752142D01*
X108583304Y-118749646D01*
X108588701Y-118746896D01*
X108606550Y-118737802D01*
X108617278Y-118733358D01*
X108636551Y-118727096D01*
X108636552Y-118727095D01*
X108642090Y-118725296D01*
X108646799Y-118721874D01*
X108646804Y-118721872D01*
X108663198Y-118709961D01*
X108673098Y-118703894D01*
X108691153Y-118694694D01*
X108691154Y-118694694D01*
X108696342Y-118692050D01*
X108718905Y-118669487D01*
X108718909Y-118669484D01*
X109174953Y-118213440D01*
X119314770Y-118213440D01*
X119329200Y-118433604D01*
X119383511Y-118647452D01*
X119384927Y-118650524D01*
X119384929Y-118650529D01*
X119436641Y-118762700D01*
X119475883Y-118847821D01*
X119477835Y-118850583D01*
X119562006Y-118969682D01*
X119603222Y-119028002D01*
X119605649Y-119030366D01*
X119605653Y-119030371D01*
X119749107Y-119170118D01*
X119761264Y-119181961D01*
X119944717Y-119304540D01*
X119947831Y-119305878D01*
X119947833Y-119305879D01*
X120038315Y-119344753D01*
X120147436Y-119391635D01*
X120362632Y-119440329D01*
X120467165Y-119444436D01*
X120579703Y-119448858D01*
X120579707Y-119448858D01*
X120583098Y-119448991D01*
X120801452Y-119417331D01*
X121010379Y-119346410D01*
X121202884Y-119238602D01*
X121205489Y-119236435D01*
X121205494Y-119236432D01*
X121369910Y-119099687D01*
X121372518Y-119097518D01*
X121413466Y-119048284D01*
X121511432Y-118930494D01*
X121511435Y-118930489D01*
X121513602Y-118927884D01*
X121621410Y-118735379D01*
X121692331Y-118526452D01*
X121723991Y-118308098D01*
X121725643Y-118245000D01*
X121709162Y-118065638D01*
X121705765Y-118028668D01*
X121705764Y-118028663D01*
X121705454Y-118025289D01*
X121687949Y-117963218D01*
X121653879Y-117842416D01*
X121645565Y-117812936D01*
X121547980Y-117615053D01*
X121528048Y-117588360D01*
X121417999Y-117440988D01*
X121417998Y-117440987D01*
X121415967Y-117438267D01*
X121325626Y-117354756D01*
X121256445Y-117290806D01*
X121256443Y-117290805D01*
X121253949Y-117288499D01*
X121166226Y-117233150D01*
X121070219Y-117172574D01*
X121070217Y-117172573D01*
X121067350Y-117170764D01*
X121064203Y-117169508D01*
X121064200Y-117169507D01*
X120865575Y-117090264D01*
X120865572Y-117090263D01*
X120862421Y-117089006D01*
X120859094Y-117088344D01*
X120859090Y-117088343D01*
X120649348Y-117046623D01*
X120649346Y-117046623D01*
X120646024Y-117045962D01*
X120548949Y-117044691D01*
X120428799Y-117043118D01*
X120428794Y-117043118D01*
X120425406Y-117043074D01*
X120422060Y-117043649D01*
X120422059Y-117043649D01*
X120362662Y-117053855D01*
X120207957Y-117080438D01*
X120000957Y-117156804D01*
X119811341Y-117269614D01*
X119808797Y-117271845D01*
X119808793Y-117271848D01*
X119787176Y-117290806D01*
X119645457Y-117415090D01*
X119643360Y-117417749D01*
X119643359Y-117417751D01*
X119543411Y-117544536D01*
X119508863Y-117588360D01*
X119406131Y-117783620D01*
X119340703Y-117994333D01*
X119314770Y-118213440D01*
X109174953Y-118213440D01*
X111396219Y-115992174D01*
X111442095Y-115970782D01*
X111448545Y-115970500D01*
X135445433Y-115970500D01*
X135450971Y-115968700D01*
X135450974Y-115968700D01*
X135470246Y-115962438D01*
X135481537Y-115959727D01*
X135491544Y-115958142D01*
X135507304Y-115955646D01*
X135512701Y-115952896D01*
X135530550Y-115943802D01*
X135541278Y-115939358D01*
X135560551Y-115933096D01*
X135560552Y-115933095D01*
X135566090Y-115931296D01*
X135570799Y-115927874D01*
X135570804Y-115927872D01*
X135587198Y-115915961D01*
X135597098Y-115909894D01*
X135615153Y-115900694D01*
X135615154Y-115900694D01*
X135620342Y-115898050D01*
X135642905Y-115875487D01*
X135642909Y-115875484D01*
X136083670Y-115434723D01*
X136129546Y-115413331D01*
X136135996Y-115413049D01*
X136139192Y-115413049D01*
X136144000Y-115413682D01*
X136148808Y-115413049D01*
X136295957Y-115393677D01*
X136295960Y-115393676D01*
X136300762Y-115393044D01*
X136446841Y-115332536D01*
X136450685Y-115329586D01*
X136450689Y-115329584D01*
X136568431Y-115239237D01*
X136572282Y-115236282D01*
X136603039Y-115196199D01*
X136665584Y-115114689D01*
X136665586Y-115114685D01*
X136668536Y-115110841D01*
X136729044Y-114964762D01*
X136741740Y-114868330D01*
X136749049Y-114812808D01*
X136749682Y-114808000D01*
X136729044Y-114651238D01*
X136668536Y-114505159D01*
X136665586Y-114501315D01*
X136665584Y-114501311D01*
X136575237Y-114383569D01*
X136572282Y-114379718D01*
X136568431Y-114376763D01*
X136450689Y-114286416D01*
X136450685Y-114286414D01*
X136446841Y-114283464D01*
X136300762Y-114222956D01*
X136295960Y-114222324D01*
X136295957Y-114222323D01*
X136148808Y-114202951D01*
X136144000Y-114202318D01*
X136139192Y-114202951D01*
X135992043Y-114222323D01*
X135992040Y-114222324D01*
X135987238Y-114222956D01*
X135841159Y-114283464D01*
X135837315Y-114286414D01*
X135837311Y-114286416D01*
X135719569Y-114376763D01*
X135715718Y-114379718D01*
X135712763Y-114383569D01*
X135622416Y-114501311D01*
X135622414Y-114501315D01*
X135619464Y-114505159D01*
X135558956Y-114651238D01*
X135538318Y-114808000D01*
X135538951Y-114812808D01*
X135538951Y-114816004D01*
X135521638Y-114863570D01*
X135517277Y-114868330D01*
X135237781Y-115147826D01*
X135191905Y-115169218D01*
X135185455Y-115169500D01*
X111188567Y-115169500D01*
X111183029Y-115171300D01*
X111183026Y-115171300D01*
X111163754Y-115177562D01*
X111152463Y-115180273D01*
X111142456Y-115181858D01*
X111126696Y-115184354D01*
X111121503Y-115187000D01*
X111103448Y-115196199D01*
X111092719Y-115200643D01*
X111067911Y-115208704D01*
X111046802Y-115224041D01*
X111036907Y-115230103D01*
X111018849Y-115239304D01*
X111018844Y-115239308D01*
X111013658Y-115241950D01*
X110991095Y-115264513D01*
X110991091Y-115264516D01*
X108313781Y-117941826D01*
X108267905Y-117963218D01*
X108261455Y-117963500D01*
X100307821Y-117963500D01*
X100260255Y-117946187D01*
X100255497Y-117941828D01*
X100253234Y-117939566D01*
X100250282Y-117935718D01*
X100219162Y-117911839D01*
X100128689Y-117842416D01*
X100128685Y-117842414D01*
X100124841Y-117839464D01*
X99978762Y-117778956D01*
X99973960Y-117778324D01*
X99973957Y-117778323D01*
X99826808Y-117758951D01*
X99822000Y-117758318D01*
X99817192Y-117758951D01*
X99670043Y-117778323D01*
X99670040Y-117778324D01*
X99665238Y-117778956D01*
X99519159Y-117839464D01*
X99515315Y-117842414D01*
X99515311Y-117842416D01*
X99397569Y-117932763D01*
X99393718Y-117935718D01*
X99390763Y-117939569D01*
X99300416Y-118057311D01*
X99300414Y-118057315D01*
X99297464Y-118061159D01*
X99236956Y-118207238D01*
X99236324Y-118212040D01*
X99236323Y-118212043D01*
X99223393Y-118310257D01*
X99216318Y-118364000D01*
X86022200Y-118364000D01*
X86022200Y-117020000D01*
X92344318Y-117020000D01*
X92344951Y-117024808D01*
X92364001Y-117169507D01*
X92364956Y-117176762D01*
X92425464Y-117322841D01*
X92428414Y-117326685D01*
X92428416Y-117326689D01*
X92512264Y-117435961D01*
X92521718Y-117448282D01*
X92525569Y-117451237D01*
X92643311Y-117541584D01*
X92643315Y-117541586D01*
X92647159Y-117544536D01*
X92793238Y-117605044D01*
X92798040Y-117605676D01*
X92798043Y-117605677D01*
X92945192Y-117625049D01*
X92950000Y-117625682D01*
X92954808Y-117625049D01*
X93101957Y-117605677D01*
X93101960Y-117605676D01*
X93106762Y-117605044D01*
X93252841Y-117544536D01*
X93256685Y-117541586D01*
X93256689Y-117541584D01*
X93374431Y-117451237D01*
X93378282Y-117448282D01*
X93392732Y-117429451D01*
X93435423Y-117402254D01*
X93451439Y-117400500D01*
X107512657Y-117400500D01*
X107524233Y-117401411D01*
X107550000Y-117405492D01*
X107555752Y-117404581D01*
X107669549Y-117386558D01*
X107669552Y-117386557D01*
X107675304Y-117385646D01*
X107680495Y-117383001D01*
X107680498Y-117383000D01*
X107783150Y-117330696D01*
X107783152Y-117330694D01*
X107788342Y-117328050D01*
X107878050Y-117238342D01*
X107880694Y-117233152D01*
X107880696Y-117233150D01*
X107914281Y-117167235D01*
X107927889Y-117148504D01*
X110174219Y-114902174D01*
X110220095Y-114880782D01*
X110226545Y-114880500D01*
X124173433Y-114880500D01*
X124178971Y-114878700D01*
X124178974Y-114878700D01*
X124198246Y-114872438D01*
X124209537Y-114869727D01*
X124219544Y-114868142D01*
X124235304Y-114865646D01*
X124240701Y-114862896D01*
X124258550Y-114853802D01*
X124269278Y-114849358D01*
X124288551Y-114843096D01*
X124288552Y-114843095D01*
X124294090Y-114841296D01*
X124298799Y-114837874D01*
X124298804Y-114837872D01*
X124315198Y-114825961D01*
X124325098Y-114819894D01*
X124343153Y-114810694D01*
X124343154Y-114810694D01*
X124348342Y-114808050D01*
X124370905Y-114785487D01*
X124370909Y-114785484D01*
X125445484Y-113710909D01*
X125445487Y-113710905D01*
X125468050Y-113688342D01*
X125470694Y-113683153D01*
X125479894Y-113665098D01*
X125485961Y-113655198D01*
X125497872Y-113638804D01*
X125497874Y-113638799D01*
X125501296Y-113634090D01*
X125509358Y-113609278D01*
X125513802Y-113598550D01*
X125523000Y-113580497D01*
X125525646Y-113575304D01*
X125529727Y-113549537D01*
X125532438Y-113538246D01*
X125538700Y-113518974D01*
X125538700Y-113518971D01*
X125540500Y-113513433D01*
X125540500Y-112213440D01*
X128394770Y-112213440D01*
X128409200Y-112433604D01*
X128463511Y-112647452D01*
X128464927Y-112650524D01*
X128464929Y-112650529D01*
X128502565Y-112732167D01*
X128555883Y-112847821D01*
X128683222Y-113028002D01*
X128685649Y-113030366D01*
X128685653Y-113030371D01*
X128756808Y-113099687D01*
X128841264Y-113181961D01*
X129024717Y-113304540D01*
X129027831Y-113305878D01*
X129027833Y-113305879D01*
X129118315Y-113344753D01*
X129227436Y-113391635D01*
X129442632Y-113440329D01*
X129547165Y-113444436D01*
X129659703Y-113448858D01*
X129659707Y-113448858D01*
X129663098Y-113448991D01*
X129881452Y-113417331D01*
X130090379Y-113346410D01*
X130282884Y-113238602D01*
X130285489Y-113236435D01*
X130285494Y-113236432D01*
X130449910Y-113099687D01*
X130452518Y-113097518D01*
X130512638Y-113025232D01*
X130591432Y-112930494D01*
X130591435Y-112930489D01*
X130593602Y-112927884D01*
X130701410Y-112735379D01*
X130772331Y-112526452D01*
X130803991Y-112308098D01*
X130805643Y-112245000D01*
X130802743Y-112213440D01*
X133094770Y-112213440D01*
X133109200Y-112433604D01*
X133163511Y-112647452D01*
X133164927Y-112650524D01*
X133164929Y-112650529D01*
X133202565Y-112732167D01*
X133255883Y-112847821D01*
X133383222Y-113028002D01*
X133385649Y-113030366D01*
X133385653Y-113030371D01*
X133456808Y-113099687D01*
X133541264Y-113181961D01*
X133724717Y-113304540D01*
X133727831Y-113305878D01*
X133727833Y-113305879D01*
X133818315Y-113344753D01*
X133927436Y-113391635D01*
X134142632Y-113440329D01*
X134247165Y-113444436D01*
X134359703Y-113448858D01*
X134359707Y-113448858D01*
X134363098Y-113448991D01*
X134581452Y-113417331D01*
X134790379Y-113346410D01*
X134982884Y-113238602D01*
X134985489Y-113236435D01*
X134985494Y-113236432D01*
X135149910Y-113099687D01*
X135152518Y-113097518D01*
X135212638Y-113025232D01*
X135291432Y-112930494D01*
X135291435Y-112930489D01*
X135293602Y-112927884D01*
X135401410Y-112735379D01*
X135472331Y-112526452D01*
X135503991Y-112308098D01*
X135505643Y-112245000D01*
X135502743Y-112213440D01*
X137794770Y-112213440D01*
X137809200Y-112433604D01*
X137863511Y-112647452D01*
X137864927Y-112650524D01*
X137864929Y-112650529D01*
X137902565Y-112732167D01*
X137955883Y-112847821D01*
X138083222Y-113028002D01*
X138085649Y-113030366D01*
X138085653Y-113030371D01*
X138156808Y-113099687D01*
X138241264Y-113181961D01*
X138424717Y-113304540D01*
X138427831Y-113305878D01*
X138427833Y-113305879D01*
X138518315Y-113344753D01*
X138627436Y-113391635D01*
X138842632Y-113440329D01*
X138947165Y-113444436D01*
X139059703Y-113448858D01*
X139059707Y-113448858D01*
X139063098Y-113448991D01*
X139281452Y-113417331D01*
X139490379Y-113346410D01*
X139682884Y-113238602D01*
X139685489Y-113236435D01*
X139685494Y-113236432D01*
X139849910Y-113099687D01*
X139852518Y-113097518D01*
X139912638Y-113025232D01*
X139991432Y-112930494D01*
X139991435Y-112930489D01*
X139993602Y-112927884D01*
X140101410Y-112735379D01*
X140172331Y-112526452D01*
X140203991Y-112308098D01*
X140205643Y-112245000D01*
X140202433Y-112210067D01*
X140185765Y-112028668D01*
X140185764Y-112028663D01*
X140185454Y-112025289D01*
X140125565Y-111812936D01*
X140027980Y-111615053D01*
X140008048Y-111588360D01*
X139897999Y-111440988D01*
X139897998Y-111440987D01*
X139895967Y-111438267D01*
X139733949Y-111288499D01*
X139547350Y-111170764D01*
X139544203Y-111169508D01*
X139544200Y-111169507D01*
X139345575Y-111090264D01*
X139345572Y-111090263D01*
X139342421Y-111089006D01*
X139339094Y-111088344D01*
X139339090Y-111088343D01*
X139129348Y-111046623D01*
X139129346Y-111046623D01*
X139126024Y-111045962D01*
X139028949Y-111044691D01*
X138908799Y-111043118D01*
X138908794Y-111043118D01*
X138905406Y-111043074D01*
X138902060Y-111043649D01*
X138902059Y-111043649D01*
X138842662Y-111053855D01*
X138687957Y-111080438D01*
X138480957Y-111156804D01*
X138291341Y-111269614D01*
X138288797Y-111271845D01*
X138288793Y-111271848D01*
X138267176Y-111290806D01*
X138125457Y-111415090D01*
X138123360Y-111417749D01*
X138123359Y-111417751D01*
X138025102Y-111542391D01*
X137988863Y-111588360D01*
X137886131Y-111783620D01*
X137885125Y-111786859D01*
X137885124Y-111786862D01*
X137877971Y-111809899D01*
X137820703Y-111994333D01*
X137794770Y-112213440D01*
X135502743Y-112213440D01*
X135502433Y-112210067D01*
X135485765Y-112028668D01*
X135485764Y-112028663D01*
X135485454Y-112025289D01*
X135425565Y-111812936D01*
X135327980Y-111615053D01*
X135308048Y-111588360D01*
X135197999Y-111440988D01*
X135197998Y-111440987D01*
X135195967Y-111438267D01*
X135033949Y-111288499D01*
X134847350Y-111170764D01*
X134844203Y-111169508D01*
X134844200Y-111169507D01*
X134645575Y-111090264D01*
X134645572Y-111090263D01*
X134642421Y-111089006D01*
X134639094Y-111088344D01*
X134639090Y-111088343D01*
X134429348Y-111046623D01*
X134429346Y-111046623D01*
X134426024Y-111045962D01*
X134328949Y-111044691D01*
X134208799Y-111043118D01*
X134208794Y-111043118D01*
X134205406Y-111043074D01*
X134202060Y-111043649D01*
X134202059Y-111043649D01*
X134142662Y-111053855D01*
X133987957Y-111080438D01*
X133780957Y-111156804D01*
X133591341Y-111269614D01*
X133588797Y-111271845D01*
X133588793Y-111271848D01*
X133567176Y-111290806D01*
X133425457Y-111415090D01*
X133423360Y-111417749D01*
X133423359Y-111417751D01*
X133325102Y-111542391D01*
X133288863Y-111588360D01*
X133186131Y-111783620D01*
X133185125Y-111786859D01*
X133185124Y-111786862D01*
X133177971Y-111809899D01*
X133120703Y-111994333D01*
X133094770Y-112213440D01*
X130802743Y-112213440D01*
X130802433Y-112210067D01*
X130785765Y-112028668D01*
X130785764Y-112028663D01*
X130785454Y-112025289D01*
X130725565Y-111812936D01*
X130627980Y-111615053D01*
X130608048Y-111588360D01*
X130497999Y-111440988D01*
X130497998Y-111440987D01*
X130495967Y-111438267D01*
X130333949Y-111288499D01*
X130147350Y-111170764D01*
X130144203Y-111169508D01*
X130144200Y-111169507D01*
X129945575Y-111090264D01*
X129945572Y-111090263D01*
X129942421Y-111089006D01*
X129939094Y-111088344D01*
X129939090Y-111088343D01*
X129729348Y-111046623D01*
X129729346Y-111046623D01*
X129726024Y-111045962D01*
X129628949Y-111044691D01*
X129508799Y-111043118D01*
X129508794Y-111043118D01*
X129505406Y-111043074D01*
X129502060Y-111043649D01*
X129502059Y-111043649D01*
X129442662Y-111053855D01*
X129287957Y-111080438D01*
X129080957Y-111156804D01*
X128891341Y-111269614D01*
X128888797Y-111271845D01*
X128888793Y-111271848D01*
X128867176Y-111290806D01*
X128725457Y-111415090D01*
X128723360Y-111417749D01*
X128723359Y-111417751D01*
X128625102Y-111542391D01*
X128588863Y-111588360D01*
X128486131Y-111783620D01*
X128485125Y-111786859D01*
X128485124Y-111786862D01*
X128477971Y-111809899D01*
X128420703Y-111994333D01*
X128394770Y-112213440D01*
X125540500Y-112213440D01*
X125540500Y-111796545D01*
X125557813Y-111748979D01*
X125562174Y-111744219D01*
X126774218Y-110532174D01*
X126820094Y-110510782D01*
X126826544Y-110510500D01*
X139127433Y-110510500D01*
X139132971Y-110508700D01*
X139132974Y-110508700D01*
X139152246Y-110502438D01*
X139163537Y-110499727D01*
X139173544Y-110498142D01*
X139189304Y-110495646D01*
X139194701Y-110492896D01*
X139212550Y-110483802D01*
X139223278Y-110479358D01*
X139242551Y-110473096D01*
X139242552Y-110473095D01*
X139248090Y-110471296D01*
X139252799Y-110467874D01*
X139252804Y-110467872D01*
X139269198Y-110455961D01*
X139279098Y-110449894D01*
X139297153Y-110440694D01*
X139297154Y-110440694D01*
X139302342Y-110438050D01*
X139324905Y-110415487D01*
X139324909Y-110415484D01*
X140355458Y-109384935D01*
X144598722Y-109384935D01*
X144598883Y-109389123D01*
X144598883Y-109389124D01*
X144599395Y-109402432D01*
X144599450Y-109405272D01*
X144599450Y-109417615D01*
X144599293Y-109418659D01*
X144599450Y-109420700D01*
X144599450Y-109422612D01*
X144599598Y-109423263D01*
X144599594Y-109423385D01*
X144599509Y-109423595D01*
X144599671Y-109423582D01*
X144599672Y-109423585D01*
X144600638Y-109436145D01*
X144600799Y-109438941D01*
X144601275Y-109451316D01*
X144601160Y-109452348D01*
X144601392Y-109454362D01*
X144601467Y-109456303D01*
X144601639Y-109456941D01*
X144601639Y-109457091D01*
X144601566Y-109457293D01*
X144601728Y-109457274D01*
X144603172Y-109469791D01*
X144603441Y-109472588D01*
X144604775Y-109489927D01*
X144604872Y-109490240D01*
X144604755Y-109493493D01*
X144605572Y-109497739D01*
X144607111Y-109505743D01*
X144607954Y-109511232D01*
X144609364Y-109523451D01*
X144610580Y-109526898D01*
X144610656Y-109527331D01*
X144610669Y-109528642D01*
X144611495Y-109532086D01*
X144611498Y-109532100D01*
X144614533Y-109544744D01*
X144615236Y-109547995D01*
X144618329Y-109564078D01*
X144618667Y-109564847D01*
X144618576Y-109566792D01*
X144619422Y-109566564D01*
X144622369Y-109577508D01*
X144622863Y-109579446D01*
X144626631Y-109595149D01*
X144627112Y-109597731D01*
X144627663Y-109599927D01*
X144628217Y-109604079D01*
X144629687Y-109607998D01*
X144629688Y-109608003D01*
X144631597Y-109613092D01*
X144633766Y-109619842D01*
X144636224Y-109628972D01*
X144638167Y-109632640D01*
X144639094Y-109634994D01*
X144639112Y-109635098D01*
X144639533Y-109636109D01*
X144639536Y-109636116D01*
X144645977Y-109651575D01*
X144646947Y-109654026D01*
X144650961Y-109664728D01*
X144651191Y-109665843D01*
X144652224Y-109668097D01*
X144653159Y-109670590D01*
X144653329Y-109670847D01*
X144653379Y-109671001D01*
X144653355Y-109671728D01*
X144653395Y-109671826D01*
X144653839Y-109671622D01*
X144653840Y-109671623D01*
X144658703Y-109682233D01*
X144659729Y-109684579D01*
X144666157Y-109700008D01*
X144666162Y-109700019D01*
X144666574Y-109701007D01*
X144666772Y-109701285D01*
X144667006Y-109701837D01*
X144668195Y-109705842D01*
X144670251Y-109709479D01*
X144670252Y-109709482D01*
X144673685Y-109715556D01*
X144676532Y-109721131D01*
X144679222Y-109727000D01*
X144681109Y-109731116D01*
X144683637Y-109734413D01*
X144684541Y-109735915D01*
X144684918Y-109736608D01*
X144685568Y-109738443D01*
X144687817Y-109741977D01*
X144693939Y-109751597D01*
X144695931Y-109754916D01*
X144701488Y-109764749D01*
X144701495Y-109764759D01*
X144703535Y-109768368D01*
X144706334Y-109771441D01*
X144706953Y-109772296D01*
X144709447Y-109775967D01*
X144715319Y-109785195D01*
X144719181Y-109792332D01*
X144719936Y-109793597D01*
X144721664Y-109797414D01*
X144727076Y-109804517D01*
X144728460Y-109806333D01*
X144732030Y-109811454D01*
X144735713Y-109817242D01*
X144735716Y-109817246D01*
X144737944Y-109820747D01*
X144740896Y-109823665D01*
X144741942Y-109824962D01*
X144742495Y-109825713D01*
X144743433Y-109827521D01*
X144746148Y-109830715D01*
X144753447Y-109839302D01*
X144755916Y-109842369D01*
X144765180Y-109854528D01*
X144766091Y-109855288D01*
X144766736Y-109856383D01*
X144769717Y-109859529D01*
X144777333Y-109867568D01*
X144779978Y-109870515D01*
X144789838Y-109882115D01*
X144790819Y-109882848D01*
X144791528Y-109883916D01*
X144794569Y-109886797D01*
X144794570Y-109886798D01*
X144802676Y-109894477D01*
X144805505Y-109897305D01*
X144815962Y-109908343D01*
X144816992Y-109909030D01*
X144817750Y-109910047D01*
X144829491Y-109920028D01*
X144832421Y-109922657D01*
X144843488Y-109933141D01*
X144844542Y-109933764D01*
X144845330Y-109934712D01*
X144848669Y-109937256D01*
X144857629Y-109944083D01*
X144860708Y-109946562D01*
X144869179Y-109953763D01*
X144869182Y-109953765D01*
X144872343Y-109956452D01*
X144874114Y-109957375D01*
X144874859Y-109957925D01*
X144876168Y-109958982D01*
X144879103Y-109961961D01*
X144888561Y-109967980D01*
X144893667Y-109971540D01*
X144902445Y-109978228D01*
X144906230Y-109979949D01*
X144907357Y-109980623D01*
X144914601Y-109984550D01*
X144923920Y-109990480D01*
X144927629Y-109993002D01*
X144928389Y-109993553D01*
X144931478Y-109996377D01*
X144945086Y-110004069D01*
X144948362Y-110006035D01*
X144961407Y-110014336D01*
X144963199Y-110014975D01*
X144963903Y-110015358D01*
X144965401Y-110016262D01*
X144968722Y-110018817D01*
X144978866Y-110023466D01*
X144984433Y-110026309D01*
X144984444Y-110026315D01*
X144994003Y-110031718D01*
X144997986Y-110032907D01*
X144998509Y-110033130D01*
X144998828Y-110033358D01*
X144999937Y-110033820D01*
X145015440Y-110040280D01*
X145017805Y-110041314D01*
X145028144Y-110046052D01*
X145028140Y-110046061D01*
X145028183Y-110046077D01*
X145029243Y-110046779D01*
X145031924Y-110047784D01*
X145033996Y-110048734D01*
X145034196Y-110048776D01*
X145034732Y-110049049D01*
X145034812Y-110049135D01*
X145034943Y-110049199D01*
X145035036Y-110048951D01*
X145035697Y-110049199D01*
X145045953Y-110053045D01*
X145048432Y-110054026D01*
X145064063Y-110060539D01*
X145064075Y-110060544D01*
X145064738Y-110060820D01*
X145064803Y-110060831D01*
X145067156Y-110061760D01*
X145070856Y-110063729D01*
X145080137Y-110066228D01*
X145080155Y-110066233D01*
X145086895Y-110068398D01*
X145095754Y-110071720D01*
X145099871Y-110072277D01*
X145102063Y-110072829D01*
X145104489Y-110073283D01*
X145104849Y-110073369D01*
X145120540Y-110077135D01*
X145122498Y-110077633D01*
X145133208Y-110080516D01*
X145133166Y-110080671D01*
X145133876Y-110080811D01*
X145135747Y-110081638D01*
X145152010Y-110084765D01*
X145155261Y-110085467D01*
X145171185Y-110089289D01*
X145172452Y-110089303D01*
X145172892Y-110089381D01*
X145176372Y-110090616D01*
X145180533Y-110091096D01*
X145180537Y-110091097D01*
X145186594Y-110091795D01*
X145188753Y-110092045D01*
X145194244Y-110092888D01*
X145202250Y-110094428D01*
X145202257Y-110094429D01*
X145206331Y-110095212D01*
X145209546Y-110095102D01*
X145209896Y-110095211D01*
X145211603Y-110095342D01*
X145211608Y-110095343D01*
X145227412Y-110096559D01*
X145230195Y-110096826D01*
X145242473Y-110098243D01*
X145243519Y-110098526D01*
X145245632Y-110098607D01*
X145247476Y-110098820D01*
X145248116Y-110098750D01*
X145248309Y-110098779D01*
X145248425Y-110098842D01*
X145248430Y-110098715D01*
X145248431Y-110098715D01*
X145251162Y-110098820D01*
X145261029Y-110099199D01*
X145263840Y-110099361D01*
X145268862Y-110099747D01*
X145275196Y-110100235D01*
X145275201Y-110100235D01*
X145276163Y-110100309D01*
X145277210Y-110100550D01*
X145279292Y-110100550D01*
X145281164Y-110100694D01*
X145281816Y-110100597D01*
X145281974Y-110100615D01*
X145282133Y-110100694D01*
X145282133Y-110100550D01*
X145294728Y-110100550D01*
X145297572Y-110100605D01*
X145314887Y-110101271D01*
X145318149Y-110100658D01*
X145321067Y-110100550D01*
X145742963Y-110100550D01*
X145795303Y-110100596D01*
X145795574Y-110100596D01*
X145795657Y-110100556D01*
X145795712Y-110100550D01*
X146178767Y-110100550D01*
X146181669Y-110100658D01*
X146184935Y-110101278D01*
X146189123Y-110101117D01*
X146189124Y-110101117D01*
X146202432Y-110100605D01*
X146205276Y-110100550D01*
X146217615Y-110100550D01*
X146218659Y-110100707D01*
X146220700Y-110100550D01*
X146222612Y-110100550D01*
X146223263Y-110100402D01*
X146223385Y-110100406D01*
X146223595Y-110100491D01*
X146223582Y-110100329D01*
X146223585Y-110100328D01*
X146236163Y-110099361D01*
X146238941Y-110099201D01*
X146251316Y-110098725D01*
X146252348Y-110098840D01*
X146254362Y-110098608D01*
X146256303Y-110098533D01*
X146256941Y-110098361D01*
X146257091Y-110098361D01*
X146257293Y-110098434D01*
X146257274Y-110098272D01*
X146269791Y-110096828D01*
X146272589Y-110096559D01*
X146289927Y-110095225D01*
X146290240Y-110095128D01*
X146293493Y-110095245D01*
X146305748Y-110092888D01*
X146311232Y-110092046D01*
X146315814Y-110091517D01*
X146323451Y-110090636D01*
X146326898Y-110089420D01*
X146327331Y-110089344D01*
X146328642Y-110089331D01*
X146332086Y-110088505D01*
X146332100Y-110088502D01*
X146344744Y-110085467D01*
X146347996Y-110084764D01*
X146364078Y-110081671D01*
X146364847Y-110081333D01*
X146366792Y-110081424D01*
X146366564Y-110080578D01*
X146377508Y-110077631D01*
X146379456Y-110077135D01*
X146395149Y-110073369D01*
X146397731Y-110072888D01*
X146399927Y-110072337D01*
X146404079Y-110071783D01*
X146407998Y-110070313D01*
X146408003Y-110070312D01*
X146413092Y-110068403D01*
X146419842Y-110066234D01*
X146424964Y-110064855D01*
X146428972Y-110063776D01*
X146432640Y-110061833D01*
X146434994Y-110060906D01*
X146435098Y-110060888D01*
X146436116Y-110060464D01*
X146451575Y-110054023D01*
X146454026Y-110053053D01*
X146464728Y-110049039D01*
X146465843Y-110048809D01*
X146468097Y-110047776D01*
X146470590Y-110046841D01*
X146470847Y-110046671D01*
X146471001Y-110046621D01*
X146471728Y-110046645D01*
X146471826Y-110046605D01*
X146471622Y-110046161D01*
X146471623Y-110046160D01*
X146482233Y-110041297D01*
X146484579Y-110040271D01*
X146500008Y-110033843D01*
X146500019Y-110033838D01*
X146501007Y-110033426D01*
X146501285Y-110033228D01*
X146501837Y-110032994D01*
X146505842Y-110031805D01*
X146509479Y-110029749D01*
X146509482Y-110029748D01*
X146515556Y-110026315D01*
X146521131Y-110023468D01*
X146527338Y-110020623D01*
X146527341Y-110020621D01*
X146531116Y-110018891D01*
X146534413Y-110016363D01*
X146535915Y-110015459D01*
X146536608Y-110015082D01*
X146538443Y-110014432D01*
X146551597Y-110006061D01*
X146554916Y-110004069D01*
X146564749Y-109998512D01*
X146564759Y-109998505D01*
X146568368Y-109996465D01*
X146571441Y-109993666D01*
X146572296Y-109993047D01*
X146575970Y-109990551D01*
X146585202Y-109984677D01*
X146592322Y-109980825D01*
X146593597Y-109980064D01*
X146597414Y-109978336D01*
X146606333Y-109971540D01*
X146611454Y-109967970D01*
X146617242Y-109964287D01*
X146617246Y-109964284D01*
X146620747Y-109962056D01*
X146623665Y-109959104D01*
X146624962Y-109958058D01*
X146625713Y-109957505D01*
X146627521Y-109956567D01*
X146639302Y-109946553D01*
X146642370Y-109944083D01*
X146654528Y-109934820D01*
X146655288Y-109933909D01*
X146656383Y-109933264D01*
X146667571Y-109922665D01*
X146670525Y-109920013D01*
X146682115Y-109910162D01*
X146682848Y-109909181D01*
X146683916Y-109908472D01*
X146694477Y-109897324D01*
X146697305Y-109894495D01*
X146705329Y-109886893D01*
X146708343Y-109884038D01*
X146709030Y-109883008D01*
X146710047Y-109882250D01*
X146720028Y-109870509D01*
X146722667Y-109867568D01*
X146733141Y-109856512D01*
X146733764Y-109855458D01*
X146734712Y-109854670D01*
X146744076Y-109842380D01*
X146744083Y-109842371D01*
X146746562Y-109839292D01*
X146753763Y-109830821D01*
X146753765Y-109830818D01*
X146756452Y-109827657D01*
X146757375Y-109825886D01*
X146757925Y-109825141D01*
X146758982Y-109823832D01*
X146761961Y-109820897D01*
X146767980Y-109811439D01*
X146771543Y-109806329D01*
X146778228Y-109797555D01*
X146779949Y-109793770D01*
X146780623Y-109792643D01*
X146784550Y-109785399D01*
X146788426Y-109779308D01*
X146790480Y-109776080D01*
X146793002Y-109772371D01*
X146793553Y-109771611D01*
X146796377Y-109768522D01*
X146804071Y-109754910D01*
X146806035Y-109751638D01*
X146814336Y-109738593D01*
X146814975Y-109736801D01*
X146815358Y-109736097D01*
X146816262Y-109734599D01*
X146818817Y-109731278D01*
X146823466Y-109721134D01*
X146826309Y-109715567D01*
X146829674Y-109709613D01*
X146831718Y-109705997D01*
X146832907Y-109702014D01*
X146833130Y-109701491D01*
X146833358Y-109701172D01*
X146840281Y-109684557D01*
X146841314Y-109682195D01*
X146846052Y-109671856D01*
X146846061Y-109671860D01*
X146846077Y-109671817D01*
X146846779Y-109670757D01*
X146847784Y-109668076D01*
X146848734Y-109666004D01*
X146848776Y-109665804D01*
X146849049Y-109665268D01*
X146849135Y-109665188D01*
X146849199Y-109665057D01*
X146848951Y-109664964D01*
X146853045Y-109654047D01*
X146854026Y-109651568D01*
X146860539Y-109635937D01*
X146860544Y-109635925D01*
X146860820Y-109635262D01*
X146860831Y-109635197D01*
X146861760Y-109632844D01*
X146863729Y-109629144D01*
X146866234Y-109619842D01*
X146868398Y-109613106D01*
X146870262Y-109608135D01*
X146870262Y-109608134D01*
X146871720Y-109604246D01*
X146872277Y-109600129D01*
X146872829Y-109597937D01*
X146873283Y-109595509D01*
X146873370Y-109595149D01*
X146877129Y-109579483D01*
X146877135Y-109579460D01*
X146877635Y-109577493D01*
X146880516Y-109566792D01*
X146880671Y-109566834D01*
X146880811Y-109566124D01*
X146881638Y-109564253D01*
X146884765Y-109547990D01*
X146885468Y-109544734D01*
X146889289Y-109528815D01*
X146889303Y-109527548D01*
X146889381Y-109527108D01*
X146890616Y-109523628D01*
X146892048Y-109511214D01*
X146892885Y-109505768D01*
X146895212Y-109493669D01*
X146895102Y-109490454D01*
X146895211Y-109490104D01*
X146896559Y-109472588D01*
X146896828Y-109469787D01*
X146898243Y-109457527D01*
X146898526Y-109456481D01*
X146898607Y-109454368D01*
X146898820Y-109452524D01*
X146898750Y-109451884D01*
X146898779Y-109451691D01*
X146898842Y-109451575D01*
X146898715Y-109451570D01*
X146899199Y-109438979D01*
X146899362Y-109436145D01*
X146899364Y-109436126D01*
X146900309Y-109423837D01*
X146900550Y-109422790D01*
X146900550Y-109420708D01*
X146900694Y-109418836D01*
X146900597Y-109418184D01*
X146900615Y-109418026D01*
X146900694Y-109417867D01*
X146900550Y-109417867D01*
X146900550Y-109405272D01*
X146900605Y-109402428D01*
X146901111Y-109389263D01*
X146901271Y-109385113D01*
X146900658Y-109381851D01*
X146900550Y-109378933D01*
X146900550Y-107807037D01*
X146900589Y-107762758D01*
X146900589Y-107762757D01*
X146900596Y-107754426D01*
X146894124Y-107740947D01*
X146888685Y-107725373D01*
X146887213Y-107718918D01*
X146887212Y-107718916D01*
X146885359Y-107710793D01*
X146880167Y-107704278D01*
X146880165Y-107704273D01*
X146876192Y-107699288D01*
X146867358Y-107685205D01*
X146864599Y-107679460D01*
X146864597Y-107679457D01*
X146860989Y-107671944D01*
X146854481Y-107666739D01*
X146854479Y-107666737D01*
X146849312Y-107662605D01*
X146837656Y-107650929D01*
X146833533Y-107645754D01*
X146833530Y-107645751D01*
X146828337Y-107639235D01*
X146815086Y-107632844D01*
X146801018Y-107623984D01*
X146796040Y-107620003D01*
X146789531Y-107614797D01*
X146781410Y-107612930D01*
X146781409Y-107612929D01*
X146774954Y-107611445D01*
X146759390Y-107605979D01*
X146745924Y-107599484D01*
X146722850Y-107599464D01*
X146722790Y-107599450D01*
X146707037Y-107599450D01*
X146654697Y-107599404D01*
X146654426Y-107599404D01*
X146654343Y-107599444D01*
X146654288Y-107599450D01*
X145757037Y-107599450D01*
X145704697Y-107599404D01*
X145704426Y-107599404D01*
X145704343Y-107599444D01*
X145704288Y-107599450D01*
X144807037Y-107599450D01*
X144762758Y-107599411D01*
X144762757Y-107599411D01*
X144754426Y-107599404D01*
X144746723Y-107603103D01*
X144740948Y-107605876D01*
X144725373Y-107611315D01*
X144718918Y-107612787D01*
X144718916Y-107612788D01*
X144710793Y-107614641D01*
X144704278Y-107619833D01*
X144704273Y-107619835D01*
X144699288Y-107623808D01*
X144685205Y-107632642D01*
X144679460Y-107635401D01*
X144679457Y-107635403D01*
X144671944Y-107639011D01*
X144666739Y-107645519D01*
X144666737Y-107645521D01*
X144662605Y-107650688D01*
X144650929Y-107662344D01*
X144645754Y-107666467D01*
X144645751Y-107666470D01*
X144639235Y-107671663D01*
X144632844Y-107684914D01*
X144623985Y-107698981D01*
X144614797Y-107710469D01*
X144611542Y-107724626D01*
X144611445Y-107725046D01*
X144605979Y-107740610D01*
X144599484Y-107754076D01*
X144599464Y-107777150D01*
X144599450Y-107777210D01*
X144599450Y-107792963D01*
X144599434Y-107811740D01*
X144599404Y-107845574D01*
X144599444Y-107845657D01*
X144599450Y-107845712D01*
X144599450Y-109378767D01*
X144599342Y-109381669D01*
X144598722Y-109384935D01*
X140355458Y-109384935D01*
X141821484Y-107918909D01*
X141821487Y-107918905D01*
X141844050Y-107896342D01*
X141845802Y-107898094D01*
X141879616Y-107875274D01*
X141929959Y-107880554D01*
X141964601Y-107915797D01*
X141977567Y-107943601D01*
X141980304Y-107949470D01*
X142063030Y-108032196D01*
X142169062Y-108081640D01*
X142217373Y-108088000D01*
X142250058Y-108088000D01*
X142295106Y-108103292D01*
X142349681Y-108145169D01*
X142494543Y-108205173D01*
X142499345Y-108205805D01*
X142499348Y-108205806D01*
X142584674Y-108217039D01*
X142610965Y-108220500D01*
X142889035Y-108220500D01*
X142915326Y-108217039D01*
X143000652Y-108205806D01*
X143000655Y-108205805D01*
X143005457Y-108205173D01*
X143150319Y-108145169D01*
X143204896Y-108103290D01*
X143249943Y-108087999D01*
X143282626Y-108087999D01*
X143285033Y-108087682D01*
X143285036Y-108087682D01*
X143325326Y-108082379D01*
X143325328Y-108082378D01*
X143330938Y-108081640D01*
X143336065Y-108079249D01*
X143336066Y-108079249D01*
X143394408Y-108052043D01*
X143436970Y-108032196D01*
X143519696Y-107949470D01*
X143569140Y-107843438D01*
X143575500Y-107795127D01*
X143575499Y-107454874D01*
X143569140Y-107406562D01*
X143519696Y-107300530D01*
X143436970Y-107217804D01*
X143330938Y-107168360D01*
X143282627Y-107162000D01*
X143249942Y-107162000D01*
X143204894Y-107146708D01*
X143154166Y-107107783D01*
X143150319Y-107104831D01*
X143005457Y-107044827D01*
X143000655Y-107044195D01*
X143000652Y-107044194D01*
X142915326Y-107032961D01*
X142889035Y-107029500D01*
X142610965Y-107029500D01*
X142584674Y-107032961D01*
X142499348Y-107044194D01*
X142499345Y-107044195D01*
X142494543Y-107044827D01*
X142349681Y-107104831D01*
X142295104Y-107146710D01*
X142250057Y-107162001D01*
X142217374Y-107162001D01*
X142214967Y-107162318D01*
X142214964Y-107162318D01*
X142174674Y-107167621D01*
X142174672Y-107167622D01*
X142169062Y-107168360D01*
X142163935Y-107170751D01*
X142163934Y-107170751D01*
X142163930Y-107170753D01*
X142063030Y-107217804D01*
X142042826Y-107238008D01*
X141996950Y-107259400D01*
X141948055Y-107246299D01*
X141919021Y-107204835D01*
X141916500Y-107185682D01*
X141916500Y-103214318D01*
X141933813Y-103166752D01*
X141977650Y-103141442D01*
X142027500Y-103150232D01*
X142042826Y-103161992D01*
X142063030Y-103182196D01*
X142169062Y-103231640D01*
X142217373Y-103238000D01*
X142250058Y-103238000D01*
X142295106Y-103253292D01*
X142349681Y-103295169D01*
X142494543Y-103355173D01*
X142499345Y-103355805D01*
X142499348Y-103355806D01*
X142584674Y-103367039D01*
X142610965Y-103370500D01*
X142889035Y-103370500D01*
X142915326Y-103367039D01*
X143000652Y-103355806D01*
X143000655Y-103355805D01*
X143005457Y-103355173D01*
X143150319Y-103295169D01*
X143204896Y-103253290D01*
X143249943Y-103237999D01*
X143282626Y-103237999D01*
X143285033Y-103237682D01*
X143285036Y-103237682D01*
X143325326Y-103232379D01*
X143325328Y-103232378D01*
X143330938Y-103231640D01*
X143336065Y-103229249D01*
X143336066Y-103229249D01*
X143393347Y-103202538D01*
X143436970Y-103182196D01*
X143519696Y-103099470D01*
X143569140Y-102993438D01*
X143575500Y-102945127D01*
X143575499Y-102604874D01*
X143569140Y-102556562D01*
X143559583Y-102536066D01*
X143530805Y-102474354D01*
X143519696Y-102450530D01*
X143436970Y-102367804D01*
X143330938Y-102318360D01*
X143282627Y-102312000D01*
X143249942Y-102312000D01*
X143204894Y-102296708D01*
X143154166Y-102257783D01*
X143150319Y-102254831D01*
X143005457Y-102194827D01*
X143000655Y-102194195D01*
X143000652Y-102194194D01*
X142915326Y-102182961D01*
X142889035Y-102179500D01*
X142610965Y-102179500D01*
X142584674Y-102182961D01*
X142499348Y-102194194D01*
X142499345Y-102194195D01*
X142494543Y-102194827D01*
X142349681Y-102254831D01*
X142295104Y-102296710D01*
X142250057Y-102312001D01*
X142217374Y-102312001D01*
X142214967Y-102312318D01*
X142214964Y-102312318D01*
X142174674Y-102317621D01*
X142174672Y-102317622D01*
X142169062Y-102318360D01*
X142163935Y-102320751D01*
X142163934Y-102320751D01*
X142126768Y-102338082D01*
X142063030Y-102367804D01*
X142042826Y-102388008D01*
X141996950Y-102409400D01*
X141948055Y-102396299D01*
X141919021Y-102354835D01*
X141916500Y-102335682D01*
X141916500Y-102082567D01*
X141914700Y-102077026D01*
X141908438Y-102057754D01*
X141905727Y-102046463D01*
X141902557Y-102026449D01*
X141901646Y-102020696D01*
X141898896Y-102015299D01*
X141889802Y-101997450D01*
X141885358Y-101986722D01*
X141879096Y-101967449D01*
X141879095Y-101967448D01*
X141877296Y-101961910D01*
X141873874Y-101957201D01*
X141873872Y-101957196D01*
X141861961Y-101940802D01*
X141855894Y-101930902D01*
X141846694Y-101912847D01*
X141846694Y-101912846D01*
X141844050Y-101907658D01*
X141821487Y-101885095D01*
X141821484Y-101885091D01*
X140951281Y-101014888D01*
X144598729Y-101014888D01*
X144599342Y-101018150D01*
X144599450Y-101021068D01*
X144599450Y-102592963D01*
X144599404Y-102645574D01*
X144603011Y-102653085D01*
X144605876Y-102659052D01*
X144611315Y-102674627D01*
X144612787Y-102681082D01*
X144612788Y-102681084D01*
X144614641Y-102689207D01*
X144619833Y-102695722D01*
X144619835Y-102695727D01*
X144623808Y-102700712D01*
X144632642Y-102714795D01*
X144635401Y-102720540D01*
X144635403Y-102720543D01*
X144639011Y-102728056D01*
X144645519Y-102733261D01*
X144645521Y-102733263D01*
X144650688Y-102737395D01*
X144662344Y-102749071D01*
X144666467Y-102754246D01*
X144666470Y-102754249D01*
X144671663Y-102760765D01*
X144684914Y-102767156D01*
X144698981Y-102776015D01*
X144710469Y-102785203D01*
X144718590Y-102787070D01*
X144718591Y-102787071D01*
X144725046Y-102788555D01*
X144740610Y-102794021D01*
X144754076Y-102800516D01*
X144777150Y-102800536D01*
X144777210Y-102800550D01*
X144792963Y-102800550D01*
X144845303Y-102800596D01*
X144845574Y-102800596D01*
X144845657Y-102800556D01*
X144845712Y-102800550D01*
X145742963Y-102800550D01*
X145795303Y-102800596D01*
X145795574Y-102800596D01*
X145795657Y-102800556D01*
X145795712Y-102800550D01*
X146692963Y-102800550D01*
X146737242Y-102800589D01*
X146737243Y-102800589D01*
X146745574Y-102800596D01*
X146759053Y-102794124D01*
X146774627Y-102788685D01*
X146781082Y-102787213D01*
X146781084Y-102787212D01*
X146789207Y-102785359D01*
X146795722Y-102780167D01*
X146795727Y-102780165D01*
X146800712Y-102776192D01*
X146814795Y-102767358D01*
X146820540Y-102764599D01*
X146820543Y-102764597D01*
X146828056Y-102760989D01*
X146833261Y-102754481D01*
X146833263Y-102754479D01*
X146837395Y-102749312D01*
X146849071Y-102737656D01*
X146854246Y-102733533D01*
X146854249Y-102733530D01*
X146860765Y-102728337D01*
X146867156Y-102715086D01*
X146876016Y-102701018D01*
X146879997Y-102696040D01*
X146885203Y-102689531D01*
X146888555Y-102674953D01*
X146894022Y-102659387D01*
X146896897Y-102653427D01*
X146900516Y-102645924D01*
X146900536Y-102622850D01*
X146900550Y-102622790D01*
X146900550Y-102607037D01*
X146900596Y-102554426D01*
X146900556Y-102554343D01*
X146900550Y-102554288D01*
X146900550Y-101021233D01*
X146900658Y-101018331D01*
X146901278Y-101015065D01*
X146900605Y-100997568D01*
X146900550Y-100994724D01*
X146900550Y-100982386D01*
X146900707Y-100981342D01*
X146900550Y-100979301D01*
X146900550Y-100977388D01*
X146900402Y-100976737D01*
X146900406Y-100976616D01*
X146900492Y-100976404D01*
X146900328Y-100976417D01*
X146900327Y-100976404D01*
X146899361Y-100963844D01*
X146899200Y-100961041D01*
X146899200Y-100961020D01*
X146898725Y-100948691D01*
X146898841Y-100947652D01*
X146898607Y-100945626D01*
X146898533Y-100943697D01*
X146898359Y-100943051D01*
X146898359Y-100942941D01*
X146898442Y-100942713D01*
X146898274Y-100942732D01*
X146898273Y-100942730D01*
X146896823Y-100930168D01*
X146896556Y-100927384D01*
X146895348Y-100911678D01*
X146895225Y-100910073D01*
X146895128Y-100909760D01*
X146895245Y-100906506D01*
X146894455Y-100902396D01*
X146894454Y-100902389D01*
X146892889Y-100894253D01*
X146892045Y-100888761D01*
X146891112Y-100880679D01*
X146890636Y-100876549D01*
X146889419Y-100873097D01*
X146889344Y-100872673D01*
X146889331Y-100871358D01*
X146885472Y-100855280D01*
X146884761Y-100851991D01*
X146882455Y-100839998D01*
X146882455Y-100839996D01*
X146881671Y-100835922D01*
X146881335Y-100835157D01*
X146881426Y-100833208D01*
X146880578Y-100833436D01*
X146877631Y-100822492D01*
X146877134Y-100820540D01*
X146873369Y-100804851D01*
X146872888Y-100802269D01*
X146872337Y-100800073D01*
X146871783Y-100795921D01*
X146870313Y-100792002D01*
X146870312Y-100791997D01*
X146868403Y-100786908D01*
X146866234Y-100780158D01*
X146864855Y-100775036D01*
X146863776Y-100771028D01*
X146861833Y-100767361D01*
X146860906Y-100765006D01*
X146860888Y-100764902D01*
X146854013Y-100748401D01*
X146853053Y-100745976D01*
X146849039Y-100735271D01*
X146848809Y-100734158D01*
X146847778Y-100731908D01*
X146846841Y-100729410D01*
X146846673Y-100729155D01*
X146846628Y-100729018D01*
X146846656Y-100728146D01*
X146846159Y-100728374D01*
X146841305Y-100717784D01*
X146840268Y-100715412D01*
X146833842Y-100699991D01*
X146833841Y-100699989D01*
X146833426Y-100698993D01*
X146833227Y-100698714D01*
X146832996Y-100698170D01*
X146831806Y-100694158D01*
X146829749Y-100690519D01*
X146829747Y-100690514D01*
X146826316Y-100684444D01*
X146823469Y-100678869D01*
X146820624Y-100672662D01*
X146820622Y-100672659D01*
X146818892Y-100668884D01*
X146816364Y-100665586D01*
X146815457Y-100664080D01*
X146815081Y-100663388D01*
X146814432Y-100661557D01*
X146812187Y-100658030D01*
X146812185Y-100658025D01*
X146806048Y-100648381D01*
X146804058Y-100645067D01*
X146800933Y-100639537D01*
X146796465Y-100631633D01*
X146793667Y-100628561D01*
X146793041Y-100627696D01*
X146790551Y-100624030D01*
X146784678Y-100614800D01*
X146780825Y-100607678D01*
X146780064Y-100606403D01*
X146778336Y-100602586D01*
X146771540Y-100593667D01*
X146767970Y-100588546D01*
X146764287Y-100582758D01*
X146764284Y-100582754D01*
X146762056Y-100579253D01*
X146759104Y-100576335D01*
X146758058Y-100575038D01*
X146757505Y-100574287D01*
X146756567Y-100572479D01*
X146746553Y-100560698D01*
X146744075Y-100557620D01*
X146734820Y-100545472D01*
X146733908Y-100544711D01*
X146733264Y-100543618D01*
X146730284Y-100540472D01*
X146722670Y-100532435D01*
X146720010Y-100529470D01*
X146712857Y-100521055D01*
X146712854Y-100521052D01*
X146710162Y-100517885D01*
X146709181Y-100517152D01*
X146708472Y-100516084D01*
X146705329Y-100513106D01*
X146697312Y-100505510D01*
X146694487Y-100502685D01*
X146686894Y-100494671D01*
X146686892Y-100494669D01*
X146684039Y-100491658D01*
X146683010Y-100490972D01*
X146682251Y-100489953D01*
X146679062Y-100487242D01*
X146679059Y-100487239D01*
X146670512Y-100479974D01*
X146667565Y-100477330D01*
X146656512Y-100466859D01*
X146655458Y-100466236D01*
X146654670Y-100465288D01*
X146642351Y-100455902D01*
X146639326Y-100453466D01*
X146627657Y-100443548D01*
X146625887Y-100442626D01*
X146625141Y-100442075D01*
X146623837Y-100441021D01*
X146620898Y-100438039D01*
X146611445Y-100432023D01*
X146606333Y-100428458D01*
X146600864Y-100424292D01*
X146600862Y-100424291D01*
X146597556Y-100421772D01*
X146593774Y-100420052D01*
X146592633Y-100419370D01*
X146585403Y-100415451D01*
X146576075Y-100409515D01*
X146572360Y-100406989D01*
X146571610Y-100406445D01*
X146568522Y-100403623D01*
X146554920Y-100395934D01*
X146551625Y-100393956D01*
X146542095Y-100387892D01*
X146538594Y-100385664D01*
X146536804Y-100385026D01*
X146536090Y-100384637D01*
X146534596Y-100383736D01*
X146531278Y-100381183D01*
X146521128Y-100376531D01*
X146515567Y-100373691D01*
X146509613Y-100370326D01*
X146509614Y-100370326D01*
X146505997Y-100368282D01*
X146502014Y-100367093D01*
X146501491Y-100366870D01*
X146501172Y-100366642D01*
X146484557Y-100359719D01*
X146482195Y-100358686D01*
X146471856Y-100353948D01*
X146471860Y-100353939D01*
X146471817Y-100353923D01*
X146470757Y-100353221D01*
X146468076Y-100352216D01*
X146466004Y-100351266D01*
X146465804Y-100351224D01*
X146465268Y-100350951D01*
X146465188Y-100350865D01*
X146465057Y-100350801D01*
X146464964Y-100351049D01*
X146464730Y-100350961D01*
X146461913Y-100349905D01*
X146454047Y-100346955D01*
X146451568Y-100345974D01*
X146435937Y-100339461D01*
X146435925Y-100339456D01*
X146435262Y-100339180D01*
X146435197Y-100339169D01*
X146432844Y-100338240D01*
X146429144Y-100336271D01*
X146419845Y-100333767D01*
X146413106Y-100331602D01*
X146408135Y-100329738D01*
X146408134Y-100329738D01*
X146404246Y-100328280D01*
X146400129Y-100327723D01*
X146397937Y-100327171D01*
X146395511Y-100326717D01*
X146392789Y-100326064D01*
X146379460Y-100322865D01*
X146377502Y-100322367D01*
X146366792Y-100319484D01*
X146366834Y-100319329D01*
X146366123Y-100319188D01*
X146364253Y-100318362D01*
X146360146Y-100317572D01*
X146360142Y-100317571D01*
X146348007Y-100315238D01*
X146344708Y-100314525D01*
X146332181Y-100311518D01*
X146332167Y-100311516D01*
X146328815Y-100310711D01*
X146327555Y-100310697D01*
X146327101Y-100310616D01*
X146323628Y-100309384D01*
X146311212Y-100307952D01*
X146305756Y-100307113D01*
X146293668Y-100304788D01*
X146290455Y-100304898D01*
X146290105Y-100304789D01*
X146288395Y-100304657D01*
X146288392Y-100304657D01*
X146272587Y-100303441D01*
X146269783Y-100303171D01*
X146258402Y-100301858D01*
X146258401Y-100301858D01*
X146257526Y-100301757D01*
X146256481Y-100301474D01*
X146254369Y-100301393D01*
X146252525Y-100301180D01*
X146251884Y-100301250D01*
X146251659Y-100301216D01*
X146251574Y-100301170D01*
X146251570Y-100301285D01*
X146251569Y-100301285D01*
X146247443Y-100301126D01*
X146238971Y-100300801D01*
X146236160Y-100300639D01*
X146231138Y-100300253D01*
X146224804Y-100299765D01*
X146224799Y-100299765D01*
X146223837Y-100299691D01*
X146222790Y-100299450D01*
X146220708Y-100299450D01*
X146218836Y-100299306D01*
X146218184Y-100299403D01*
X146218026Y-100299385D01*
X146217867Y-100299306D01*
X146217867Y-100299450D01*
X146205272Y-100299450D01*
X146202428Y-100299395D01*
X146185112Y-100298729D01*
X146181850Y-100299342D01*
X146178932Y-100299450D01*
X145757037Y-100299450D01*
X145704697Y-100299404D01*
X145704426Y-100299404D01*
X145704343Y-100299444D01*
X145704288Y-100299450D01*
X145321233Y-100299450D01*
X145318331Y-100299342D01*
X145315065Y-100298722D01*
X145310877Y-100298883D01*
X145310876Y-100298883D01*
X145297568Y-100299395D01*
X145294724Y-100299450D01*
X145282386Y-100299450D01*
X145281342Y-100299293D01*
X145279301Y-100299450D01*
X145277388Y-100299450D01*
X145276737Y-100299598D01*
X145276616Y-100299594D01*
X145276404Y-100299508D01*
X145276417Y-100299672D01*
X145276415Y-100299672D01*
X145263844Y-100300639D01*
X145261057Y-100300799D01*
X145253014Y-100301109D01*
X145249675Y-100301237D01*
X145249673Y-100301237D01*
X145248691Y-100301275D01*
X145247652Y-100301159D01*
X145245626Y-100301393D01*
X145243697Y-100301467D01*
X145243051Y-100301641D01*
X145242941Y-100301641D01*
X145242713Y-100301558D01*
X145242732Y-100301726D01*
X145242730Y-100301727D01*
X145230168Y-100303177D01*
X145227398Y-100303443D01*
X145210073Y-100304775D01*
X145209760Y-100304872D01*
X145206506Y-100304755D01*
X145202396Y-100305545D01*
X145202389Y-100305546D01*
X145194253Y-100307111D01*
X145188761Y-100307955D01*
X145187227Y-100308132D01*
X145176549Y-100309364D01*
X145173097Y-100310581D01*
X145172673Y-100310656D01*
X145171358Y-100310669D01*
X145155280Y-100314528D01*
X145151991Y-100315239D01*
X145139998Y-100317545D01*
X145139996Y-100317545D01*
X145135922Y-100318329D01*
X145135157Y-100318665D01*
X145133208Y-100318574D01*
X145133436Y-100319422D01*
X145122492Y-100322369D01*
X145120554Y-100322863D01*
X145104851Y-100326631D01*
X145102269Y-100327112D01*
X145100073Y-100327663D01*
X145095921Y-100328217D01*
X145092002Y-100329687D01*
X145091997Y-100329688D01*
X145086908Y-100331597D01*
X145080158Y-100333766D01*
X145076050Y-100334872D01*
X145071028Y-100336224D01*
X145067361Y-100338167D01*
X145065006Y-100339094D01*
X145064902Y-100339112D01*
X145048401Y-100345987D01*
X145045976Y-100346947D01*
X145035271Y-100350961D01*
X145034158Y-100351191D01*
X145031908Y-100352222D01*
X145029410Y-100353159D01*
X145029155Y-100353327D01*
X145029018Y-100353372D01*
X145028146Y-100353344D01*
X145028374Y-100353841D01*
X145017784Y-100358695D01*
X145015412Y-100359732D01*
X144999991Y-100366158D01*
X144998993Y-100366574D01*
X144998714Y-100366773D01*
X144998170Y-100367004D01*
X144994158Y-100368194D01*
X144990519Y-100370251D01*
X144990514Y-100370253D01*
X144984444Y-100373684D01*
X144978869Y-100376531D01*
X144972662Y-100379376D01*
X144972659Y-100379378D01*
X144968884Y-100381108D01*
X144965586Y-100383636D01*
X144964080Y-100384543D01*
X144963388Y-100384919D01*
X144961557Y-100385568D01*
X144958030Y-100387813D01*
X144958025Y-100387815D01*
X144948381Y-100393952D01*
X144945076Y-100395936D01*
X144931633Y-100403535D01*
X144928561Y-100406333D01*
X144927696Y-100406959D01*
X144924030Y-100409449D01*
X144914800Y-100415322D01*
X144907678Y-100419175D01*
X144906403Y-100419936D01*
X144902586Y-100421664D01*
X144893993Y-100428212D01*
X144893667Y-100428460D01*
X144888546Y-100432030D01*
X144882758Y-100435713D01*
X144882754Y-100435716D01*
X144879253Y-100437944D01*
X144876335Y-100440896D01*
X144875038Y-100441942D01*
X144874287Y-100442495D01*
X144872479Y-100443433D01*
X144869285Y-100446148D01*
X144860698Y-100453447D01*
X144857631Y-100455916D01*
X144845472Y-100465180D01*
X144844711Y-100466092D01*
X144843618Y-100466736D01*
X144840583Y-100469611D01*
X144840582Y-100469612D01*
X144832435Y-100477330D01*
X144829470Y-100479990D01*
X144821055Y-100487143D01*
X144821052Y-100487146D01*
X144817885Y-100489838D01*
X144817152Y-100490819D01*
X144816084Y-100491528D01*
X144813198Y-100494574D01*
X144813197Y-100494575D01*
X144805510Y-100502688D01*
X144802685Y-100505513D01*
X144794671Y-100513106D01*
X144791658Y-100515961D01*
X144790972Y-100516990D01*
X144789953Y-100517749D01*
X144787242Y-100520938D01*
X144787239Y-100520941D01*
X144779974Y-100529488D01*
X144777336Y-100532428D01*
X144766859Y-100543488D01*
X144766236Y-100544542D01*
X144765288Y-100545330D01*
X144755902Y-100557649D01*
X144753466Y-100560674D01*
X144743548Y-100572343D01*
X144742626Y-100574113D01*
X144742075Y-100574859D01*
X144741021Y-100576163D01*
X144738039Y-100579102D01*
X144735792Y-100582633D01*
X144732023Y-100588555D01*
X144728458Y-100593667D01*
X144724292Y-100599136D01*
X144721772Y-100602444D01*
X144720052Y-100606226D01*
X144719370Y-100607367D01*
X144715451Y-100614597D01*
X144709515Y-100623925D01*
X144706989Y-100627640D01*
X144706445Y-100628390D01*
X144703623Y-100631478D01*
X144695942Y-100645067D01*
X144693959Y-100648370D01*
X144685664Y-100661406D01*
X144685026Y-100663196D01*
X144684637Y-100663910D01*
X144683736Y-100665404D01*
X144681183Y-100668722D01*
X144676534Y-100678866D01*
X144673691Y-100684433D01*
X144668282Y-100694003D01*
X144667093Y-100697986D01*
X144666870Y-100698509D01*
X144666642Y-100698828D01*
X144666180Y-100699937D01*
X144659720Y-100715440D01*
X144658686Y-100717805D01*
X144653948Y-100728144D01*
X144653939Y-100728140D01*
X144653923Y-100728183D01*
X144653221Y-100729243D01*
X144652216Y-100731924D01*
X144651266Y-100733996D01*
X144651224Y-100734196D01*
X144650951Y-100734732D01*
X144650865Y-100734812D01*
X144650801Y-100734943D01*
X144651049Y-100735036D01*
X144646955Y-100745953D01*
X144645974Y-100748432D01*
X144639518Y-100763927D01*
X144639180Y-100764738D01*
X144639169Y-100764803D01*
X144638240Y-100767156D01*
X144636271Y-100770856D01*
X144634681Y-100776762D01*
X144633767Y-100780155D01*
X144631602Y-100786894D01*
X144628280Y-100795754D01*
X144627723Y-100799871D01*
X144627171Y-100802063D01*
X144626717Y-100804489D01*
X144626064Y-100807211D01*
X144622865Y-100820540D01*
X144622369Y-100822492D01*
X144619484Y-100833208D01*
X144619329Y-100833166D01*
X144619188Y-100833877D01*
X144618362Y-100835747D01*
X144617572Y-100839854D01*
X144617571Y-100839858D01*
X144615238Y-100851993D01*
X144614525Y-100855292D01*
X144611516Y-100867828D01*
X144611514Y-100867839D01*
X144610711Y-100871185D01*
X144610697Y-100872443D01*
X144610616Y-100872900D01*
X144609384Y-100876372D01*
X144608905Y-100880524D01*
X144608904Y-100880528D01*
X144607956Y-100888749D01*
X144607112Y-100894245D01*
X144605572Y-100902252D01*
X144605572Y-100902257D01*
X144604788Y-100906332D01*
X144604898Y-100909545D01*
X144604789Y-100909895D01*
X144604657Y-100911607D01*
X144604657Y-100911609D01*
X144603441Y-100927413D01*
X144603173Y-100930198D01*
X144601757Y-100942474D01*
X144601474Y-100943519D01*
X144601393Y-100945631D01*
X144601180Y-100947475D01*
X144601250Y-100948116D01*
X144601216Y-100948341D01*
X144601169Y-100948427D01*
X144601285Y-100948431D01*
X144600801Y-100961020D01*
X144600638Y-100963845D01*
X144599691Y-100976162D01*
X144599450Y-100977210D01*
X144599450Y-100979292D01*
X144599306Y-100981164D01*
X144599403Y-100981814D01*
X144599385Y-100981970D01*
X144599304Y-100982133D01*
X144599450Y-100982133D01*
X144599450Y-100994728D01*
X144599395Y-100997568D01*
X144598729Y-101014888D01*
X140951281Y-101014888D01*
X140250909Y-100314516D01*
X140250905Y-100314513D01*
X140228342Y-100291950D01*
X140223153Y-100289306D01*
X140205098Y-100280106D01*
X140195198Y-100274039D01*
X140178804Y-100262128D01*
X140178799Y-100262126D01*
X140174090Y-100258704D01*
X140168552Y-100256905D01*
X140168551Y-100256904D01*
X140149278Y-100250642D01*
X140138550Y-100246198D01*
X140120497Y-100237000D01*
X140115304Y-100234354D01*
X140099544Y-100231858D01*
X140089537Y-100230273D01*
X140078246Y-100227562D01*
X140058974Y-100221300D01*
X140058971Y-100221300D01*
X140053433Y-100219500D01*
X139115821Y-100219500D01*
X139068255Y-100202187D01*
X139063497Y-100197828D01*
X139061234Y-100195566D01*
X139058282Y-100191718D01*
X139027162Y-100167839D01*
X138936689Y-100098416D01*
X138936685Y-100098414D01*
X138932841Y-100095464D01*
X138786762Y-100034956D01*
X138781960Y-100034324D01*
X138781957Y-100034323D01*
X138634808Y-100014951D01*
X138630000Y-100014318D01*
X138625192Y-100014951D01*
X138478043Y-100034323D01*
X138478040Y-100034324D01*
X138473238Y-100034956D01*
X138327159Y-100095464D01*
X138323315Y-100098414D01*
X138323311Y-100098416D01*
X138205569Y-100188763D01*
X138201718Y-100191718D01*
X138198763Y-100195569D01*
X138108416Y-100313311D01*
X138108414Y-100313315D01*
X138105464Y-100317159D01*
X138044956Y-100463238D01*
X138044324Y-100468040D01*
X138044323Y-100468043D01*
X138030923Y-100569827D01*
X138024318Y-100620000D01*
X138024951Y-100624808D01*
X138043526Y-100765898D01*
X138044956Y-100776762D01*
X138105464Y-100922841D01*
X138108414Y-100926685D01*
X138108416Y-100926689D01*
X138193685Y-101037813D01*
X138201718Y-101048282D01*
X138205568Y-101051236D01*
X138205569Y-101051237D01*
X138323311Y-101141584D01*
X138323315Y-101141586D01*
X138327159Y-101144536D01*
X138473238Y-101205044D01*
X138478040Y-101205676D01*
X138478043Y-101205677D01*
X138625192Y-101225049D01*
X138630000Y-101225682D01*
X138634808Y-101225049D01*
X138781957Y-101205677D01*
X138781960Y-101205676D01*
X138786762Y-101205044D01*
X138932841Y-101144536D01*
X138936685Y-101141586D01*
X138936689Y-101141584D01*
X139054432Y-101051236D01*
X139058282Y-101048282D01*
X139061234Y-101044434D01*
X139063497Y-101042172D01*
X139109374Y-101020781D01*
X139115821Y-101020500D01*
X139793455Y-101020500D01*
X139841021Y-101037813D01*
X139845781Y-101042174D01*
X141093826Y-102290219D01*
X141115218Y-102336095D01*
X141115500Y-102342545D01*
X141115500Y-105068753D01*
X141098187Y-105116319D01*
X141054350Y-105141629D01*
X141013182Y-105137120D01*
X140872762Y-105078956D01*
X140867960Y-105078324D01*
X140867957Y-105078323D01*
X140720808Y-105058951D01*
X140716000Y-105058318D01*
X140711192Y-105058951D01*
X140564043Y-105078323D01*
X140564040Y-105078324D01*
X140559238Y-105078956D01*
X140413159Y-105139464D01*
X140409315Y-105142414D01*
X140409311Y-105142416D01*
X140316500Y-105213633D01*
X140287718Y-105235718D01*
X140284763Y-105239569D01*
X140194416Y-105357311D01*
X140194414Y-105357315D01*
X140191464Y-105361159D01*
X140130956Y-105507238D01*
X140110318Y-105664000D01*
X140130956Y-105820762D01*
X140191464Y-105966841D01*
X140194414Y-105970685D01*
X140194416Y-105970689D01*
X140284763Y-106088431D01*
X140287718Y-106092282D01*
X140291569Y-106095237D01*
X140409311Y-106185584D01*
X140409315Y-106185586D01*
X140413159Y-106188536D01*
X140559238Y-106249044D01*
X140564040Y-106249676D01*
X140564043Y-106249677D01*
X140711192Y-106269049D01*
X140716000Y-106269682D01*
X140720808Y-106269049D01*
X140867957Y-106249677D01*
X140867960Y-106249676D01*
X140872762Y-106249044D01*
X141013182Y-106190880D01*
X141063752Y-106188672D01*
X141103911Y-106219487D01*
X141115500Y-106259247D01*
X141115500Y-107461455D01*
X141098187Y-107509021D01*
X141093826Y-107513781D01*
X138919781Y-109687826D01*
X138873905Y-109709218D01*
X138867455Y-109709500D01*
X126598481Y-109709500D01*
X126598477Y-109709501D01*
X126566567Y-109709501D01*
X126561028Y-109711301D01*
X126561026Y-109711301D01*
X126551394Y-109714431D01*
X126541757Y-109717562D01*
X126530473Y-109720271D01*
X126504696Y-109724354D01*
X126499503Y-109727000D01*
X126481448Y-109736199D01*
X126470720Y-109740643D01*
X126445910Y-109748704D01*
X126428981Y-109761004D01*
X126424803Y-109764039D01*
X126414906Y-109770105D01*
X126391658Y-109781950D01*
X126369091Y-109804517D01*
X124834516Y-111339091D01*
X124834513Y-111339095D01*
X124811950Y-111361658D01*
X124809306Y-111366846D01*
X124809306Y-111366847D01*
X124800106Y-111384902D01*
X124794039Y-111394802D01*
X124782128Y-111411196D01*
X124782126Y-111411201D01*
X124778704Y-111415910D01*
X124776905Y-111421448D01*
X124776904Y-111421449D01*
X124770642Y-111440722D01*
X124766198Y-111451450D01*
X124757104Y-111469299D01*
X124754354Y-111474696D01*
X124753443Y-111480449D01*
X124750273Y-111500463D01*
X124747562Y-111511754D01*
X124741300Y-111531026D01*
X124739500Y-111536567D01*
X124739500Y-113253455D01*
X124722187Y-113301021D01*
X124717826Y-113305781D01*
X123965781Y-114057826D01*
X123919905Y-114079218D01*
X123913455Y-114079500D01*
X109966567Y-114079500D01*
X109961029Y-114081300D01*
X109961026Y-114081300D01*
X109941754Y-114087562D01*
X109930463Y-114090273D01*
X109920456Y-114091858D01*
X109904696Y-114094354D01*
X109899503Y-114097000D01*
X109881448Y-114106199D01*
X109870719Y-114110643D01*
X109845911Y-114118704D01*
X109824802Y-114134041D01*
X109814907Y-114140103D01*
X109796849Y-114149304D01*
X109796844Y-114149308D01*
X109791658Y-114151950D01*
X109769095Y-114174513D01*
X109769091Y-114174516D01*
X107365781Y-116577826D01*
X107319905Y-116599218D01*
X107313455Y-116599500D01*
X93413543Y-116599500D01*
X93368495Y-116584208D01*
X93256689Y-116498416D01*
X93256685Y-116498414D01*
X93252841Y-116495464D01*
X93106762Y-116434956D01*
X93101960Y-116434324D01*
X93101957Y-116434323D01*
X92954808Y-116414951D01*
X92950000Y-116414318D01*
X92945192Y-116414951D01*
X92798043Y-116434323D01*
X92798040Y-116434324D01*
X92793238Y-116434956D01*
X92647159Y-116495464D01*
X92643315Y-116498414D01*
X92643311Y-116498416D01*
X92539822Y-116577826D01*
X92521718Y-116591718D01*
X92518763Y-116595569D01*
X92428416Y-116713311D01*
X92428414Y-116713315D01*
X92425464Y-116717159D01*
X92364956Y-116863238D01*
X92344318Y-117020000D01*
X86022200Y-117020000D01*
X86022200Y-94130000D01*
X107874318Y-94130000D01*
X107894956Y-94286762D01*
X107955464Y-94432841D01*
X107958414Y-94436685D01*
X107958416Y-94436689D01*
X107999707Y-94490500D01*
X108051718Y-94558282D01*
X108055569Y-94561237D01*
X108173311Y-94651584D01*
X108173315Y-94651586D01*
X108177159Y-94654536D01*
X108323238Y-94715044D01*
X108328040Y-94715676D01*
X108328043Y-94715677D01*
X108475192Y-94735049D01*
X108480000Y-94735682D01*
X108484808Y-94735049D01*
X108631957Y-94715677D01*
X108631960Y-94715676D01*
X108636762Y-94715044D01*
X108782841Y-94654536D01*
X108786685Y-94651586D01*
X108786689Y-94651584D01*
X108904431Y-94561237D01*
X108908282Y-94558282D01*
X108938078Y-94519452D01*
X108980768Y-94492254D01*
X108996785Y-94490500D01*
X112043455Y-94490500D01*
X112091021Y-94507813D01*
X112095781Y-94512174D01*
X114037826Y-96454218D01*
X114059218Y-96500094D01*
X114059500Y-96506544D01*
X114059500Y-100603433D01*
X114061300Y-100608971D01*
X114061300Y-100608974D01*
X114067562Y-100628246D01*
X114070273Y-100639537D01*
X114074354Y-100665304D01*
X114077000Y-100670497D01*
X114086198Y-100688550D01*
X114090642Y-100699278D01*
X114096286Y-100716647D01*
X114098704Y-100724090D01*
X114102126Y-100728799D01*
X114102128Y-100728804D01*
X114114039Y-100745198D01*
X114120106Y-100755098D01*
X114128136Y-100770856D01*
X114131950Y-100778342D01*
X114154513Y-100800905D01*
X114154516Y-100800909D01*
X116451950Y-103098342D01*
X116541658Y-103188050D01*
X116564905Y-103199895D01*
X116574803Y-103205961D01*
X116595910Y-103221296D01*
X116601447Y-103223095D01*
X116620720Y-103229357D01*
X116631448Y-103233801D01*
X116649191Y-103242841D01*
X116654696Y-103245646D01*
X116680473Y-103249729D01*
X116691757Y-103252438D01*
X116701393Y-103255569D01*
X116711026Y-103258699D01*
X116711028Y-103258699D01*
X116716567Y-103260499D01*
X116748477Y-103260499D01*
X116748481Y-103260500D01*
X130973455Y-103260500D01*
X131021021Y-103277813D01*
X131025781Y-103282174D01*
X134959826Y-107216219D01*
X134981218Y-107262095D01*
X134981500Y-107268545D01*
X134981500Y-107718179D01*
X134964187Y-107765745D01*
X134959828Y-107770503D01*
X134957566Y-107772766D01*
X134953718Y-107775718D01*
X134938826Y-107795126D01*
X134860416Y-107897311D01*
X134860414Y-107897315D01*
X134857464Y-107901159D01*
X134796956Y-108047238D01*
X134796324Y-108052040D01*
X134796323Y-108052043D01*
X134784063Y-108145169D01*
X134776318Y-108204000D01*
X134796956Y-108360762D01*
X134857464Y-108506841D01*
X134860414Y-108510685D01*
X134860416Y-108510689D01*
X134950763Y-108628431D01*
X134953718Y-108632282D01*
X134957569Y-108635237D01*
X135075311Y-108725584D01*
X135075315Y-108725586D01*
X135079159Y-108728536D01*
X135225238Y-108789044D01*
X135230040Y-108789676D01*
X135230043Y-108789677D01*
X135377192Y-108809049D01*
X135382000Y-108809682D01*
X135386808Y-108809049D01*
X135533957Y-108789677D01*
X135533960Y-108789676D01*
X135538762Y-108789044D01*
X135684841Y-108728536D01*
X135688685Y-108725586D01*
X135688689Y-108725584D01*
X135806431Y-108635237D01*
X135810282Y-108632282D01*
X135813237Y-108628431D01*
X135903584Y-108510689D01*
X135903586Y-108510685D01*
X135906536Y-108506841D01*
X135967044Y-108360762D01*
X135987682Y-108204000D01*
X135979937Y-108145169D01*
X135967677Y-108052043D01*
X135967676Y-108052040D01*
X135967044Y-108047238D01*
X135906536Y-107901159D01*
X135903586Y-107897315D01*
X135903584Y-107897311D01*
X135825174Y-107795126D01*
X135810282Y-107775718D01*
X135806434Y-107772766D01*
X135804172Y-107770503D01*
X135782781Y-107724626D01*
X135782500Y-107718179D01*
X135782500Y-107008567D01*
X135774436Y-106983749D01*
X135771727Y-106972464D01*
X135768557Y-106952449D01*
X135767646Y-106946696D01*
X135755803Y-106923453D01*
X135751359Y-106912724D01*
X135745096Y-106893448D01*
X135743297Y-106887911D01*
X135727960Y-106866801D01*
X135721894Y-106856903D01*
X135712692Y-106838844D01*
X135710050Y-106833658D01*
X135687487Y-106811095D01*
X135687484Y-106811091D01*
X131430909Y-102554516D01*
X131430905Y-102554513D01*
X131408342Y-102531950D01*
X131403153Y-102529306D01*
X131385098Y-102520106D01*
X131375198Y-102514039D01*
X131358804Y-102502128D01*
X131358799Y-102502126D01*
X131354090Y-102498704D01*
X131348552Y-102496905D01*
X131348551Y-102496904D01*
X131329278Y-102490642D01*
X131318550Y-102486198D01*
X131300497Y-102477000D01*
X131295304Y-102474354D01*
X131279544Y-102471858D01*
X131269537Y-102470273D01*
X131258246Y-102467562D01*
X131238974Y-102461300D01*
X131238971Y-102461300D01*
X131233433Y-102459500D01*
X116976544Y-102459500D01*
X116928978Y-102442187D01*
X116924218Y-102437826D01*
X114882174Y-100395781D01*
X114860782Y-100349905D01*
X114860500Y-100343455D01*
X114860500Y-98023440D01*
X128694770Y-98023440D01*
X128709200Y-98243604D01*
X128763511Y-98457452D01*
X128764927Y-98460524D01*
X128764929Y-98460529D01*
X128802565Y-98542167D01*
X128855883Y-98657821D01*
X128983222Y-98838002D01*
X128985649Y-98840366D01*
X128985653Y-98840371D01*
X129056808Y-98909687D01*
X129141264Y-98991961D01*
X129324717Y-99114540D01*
X129327831Y-99115878D01*
X129327833Y-99115879D01*
X129418315Y-99154753D01*
X129527436Y-99201635D01*
X129742632Y-99250329D01*
X129847165Y-99254436D01*
X129959703Y-99258858D01*
X129959707Y-99258858D01*
X129963098Y-99258991D01*
X130181452Y-99227331D01*
X130390379Y-99156410D01*
X130582884Y-99048602D01*
X130585489Y-99046435D01*
X130585494Y-99046432D01*
X130749910Y-98909687D01*
X130752518Y-98907518D01*
X130812638Y-98835232D01*
X130891432Y-98740494D01*
X130891435Y-98740489D01*
X130893602Y-98737884D01*
X131001410Y-98545379D01*
X131072331Y-98336452D01*
X131103991Y-98118098D01*
X131105643Y-98055000D01*
X131102743Y-98023440D01*
X133394770Y-98023440D01*
X133409200Y-98243604D01*
X133463511Y-98457452D01*
X133464927Y-98460524D01*
X133464929Y-98460529D01*
X133502565Y-98542167D01*
X133555883Y-98657821D01*
X133683222Y-98838002D01*
X133685649Y-98840366D01*
X133685653Y-98840371D01*
X133756808Y-98909687D01*
X133841264Y-98991961D01*
X134024717Y-99114540D01*
X134027831Y-99115878D01*
X134027833Y-99115879D01*
X134118315Y-99154753D01*
X134227436Y-99201635D01*
X134442632Y-99250329D01*
X134547165Y-99254436D01*
X134659703Y-99258858D01*
X134659707Y-99258858D01*
X134663098Y-99258991D01*
X134881452Y-99227331D01*
X135090379Y-99156410D01*
X135282884Y-99048602D01*
X135285489Y-99046435D01*
X135285494Y-99046432D01*
X135449910Y-98909687D01*
X135452518Y-98907518D01*
X135512638Y-98835232D01*
X135591432Y-98740494D01*
X135591435Y-98740489D01*
X135593602Y-98737884D01*
X135701410Y-98545379D01*
X135772331Y-98336452D01*
X135803991Y-98118098D01*
X135805643Y-98055000D01*
X135802743Y-98023440D01*
X138094770Y-98023440D01*
X138109200Y-98243604D01*
X138163511Y-98457452D01*
X138164927Y-98460524D01*
X138164929Y-98460529D01*
X138202565Y-98542167D01*
X138255883Y-98657821D01*
X138383222Y-98838002D01*
X138385649Y-98840366D01*
X138385653Y-98840371D01*
X138456808Y-98909687D01*
X138541264Y-98991961D01*
X138724717Y-99114540D01*
X138727831Y-99115878D01*
X138727833Y-99115879D01*
X138818315Y-99154753D01*
X138927436Y-99201635D01*
X139142632Y-99250329D01*
X139247165Y-99254436D01*
X139359703Y-99258858D01*
X139359707Y-99258858D01*
X139363098Y-99258991D01*
X139581452Y-99227331D01*
X139790379Y-99156410D01*
X139982884Y-99048602D01*
X139985489Y-99046435D01*
X139985494Y-99046432D01*
X140149910Y-98909687D01*
X140152518Y-98907518D01*
X140212638Y-98835232D01*
X140291432Y-98740494D01*
X140291435Y-98740489D01*
X140293602Y-98737884D01*
X140401410Y-98545379D01*
X140472331Y-98336452D01*
X140503991Y-98118098D01*
X140505643Y-98055000D01*
X140502433Y-98020067D01*
X140485765Y-97838668D01*
X140485764Y-97838663D01*
X140485454Y-97835289D01*
X140425565Y-97622936D01*
X140327980Y-97425053D01*
X140308048Y-97398360D01*
X140197999Y-97250988D01*
X140197998Y-97250987D01*
X140195967Y-97248267D01*
X140033949Y-97098499D01*
X139847350Y-96980764D01*
X139844203Y-96979508D01*
X139844200Y-96979507D01*
X139645575Y-96900264D01*
X139645572Y-96900263D01*
X139642421Y-96899006D01*
X139639094Y-96898344D01*
X139639090Y-96898343D01*
X139429348Y-96856623D01*
X139429346Y-96856623D01*
X139426024Y-96855962D01*
X139328949Y-96854691D01*
X139208799Y-96853118D01*
X139208794Y-96853118D01*
X139205406Y-96853074D01*
X139202060Y-96853649D01*
X139202059Y-96853649D01*
X139142662Y-96863855D01*
X138987957Y-96890438D01*
X138780957Y-96966804D01*
X138591341Y-97079614D01*
X138588797Y-97081845D01*
X138588793Y-97081848D01*
X138567176Y-97100806D01*
X138425457Y-97225090D01*
X138423360Y-97227749D01*
X138423359Y-97227751D01*
X138409004Y-97245961D01*
X138288863Y-97398360D01*
X138186131Y-97593620D01*
X138120703Y-97804333D01*
X138094770Y-98023440D01*
X135802743Y-98023440D01*
X135802433Y-98020067D01*
X135785765Y-97838668D01*
X135785764Y-97838663D01*
X135785454Y-97835289D01*
X135725565Y-97622936D01*
X135627980Y-97425053D01*
X135608048Y-97398360D01*
X135497999Y-97250988D01*
X135497998Y-97250987D01*
X135495967Y-97248267D01*
X135333949Y-97098499D01*
X135147350Y-96980764D01*
X135144203Y-96979508D01*
X135144200Y-96979507D01*
X134945575Y-96900264D01*
X134945572Y-96900263D01*
X134942421Y-96899006D01*
X134939094Y-96898344D01*
X134939090Y-96898343D01*
X134729348Y-96856623D01*
X134729346Y-96856623D01*
X134726024Y-96855962D01*
X134628949Y-96854691D01*
X134508799Y-96853118D01*
X134508794Y-96853118D01*
X134505406Y-96853074D01*
X134502060Y-96853649D01*
X134502059Y-96853649D01*
X134442662Y-96863855D01*
X134287957Y-96890438D01*
X134080957Y-96966804D01*
X133891341Y-97079614D01*
X133888797Y-97081845D01*
X133888793Y-97081848D01*
X133867176Y-97100806D01*
X133725457Y-97225090D01*
X133723360Y-97227749D01*
X133723359Y-97227751D01*
X133709004Y-97245961D01*
X133588863Y-97398360D01*
X133486131Y-97593620D01*
X133420703Y-97804333D01*
X133394770Y-98023440D01*
X131102743Y-98023440D01*
X131102433Y-98020067D01*
X131085765Y-97838668D01*
X131085764Y-97838663D01*
X131085454Y-97835289D01*
X131025565Y-97622936D01*
X130927980Y-97425053D01*
X130908048Y-97398360D01*
X130797999Y-97250988D01*
X130797998Y-97250987D01*
X130795967Y-97248267D01*
X130633949Y-97098499D01*
X130447350Y-96980764D01*
X130444203Y-96979508D01*
X130444200Y-96979507D01*
X130245575Y-96900264D01*
X130245572Y-96900263D01*
X130242421Y-96899006D01*
X130239094Y-96898344D01*
X130239090Y-96898343D01*
X130029348Y-96856623D01*
X130029346Y-96856623D01*
X130026024Y-96855962D01*
X129928949Y-96854691D01*
X129808799Y-96853118D01*
X129808794Y-96853118D01*
X129805406Y-96853074D01*
X129802060Y-96853649D01*
X129802059Y-96853649D01*
X129742662Y-96863855D01*
X129587957Y-96890438D01*
X129380957Y-96966804D01*
X129191341Y-97079614D01*
X129188797Y-97081845D01*
X129188793Y-97081848D01*
X129167176Y-97100806D01*
X129025457Y-97225090D01*
X129023360Y-97227749D01*
X129023359Y-97227751D01*
X129009004Y-97245961D01*
X128888863Y-97398360D01*
X128786131Y-97593620D01*
X128720703Y-97804333D01*
X128694770Y-98023440D01*
X114860500Y-98023440D01*
X114860500Y-96246567D01*
X114858700Y-96241026D01*
X114852438Y-96221754D01*
X114849727Y-96210463D01*
X114846557Y-96190449D01*
X114845646Y-96184696D01*
X114842896Y-96179299D01*
X114833802Y-96161450D01*
X114829358Y-96150722D01*
X114823095Y-96131447D01*
X114821296Y-96125910D01*
X114805961Y-96104803D01*
X114799895Y-96094905D01*
X114790692Y-96076844D01*
X114788050Y-96071658D01*
X114698342Y-95981950D01*
X112500909Y-93784516D01*
X112500905Y-93784513D01*
X112478342Y-93761950D01*
X112473153Y-93759306D01*
X112455098Y-93750106D01*
X112445198Y-93744039D01*
X112428804Y-93732128D01*
X112428799Y-93732126D01*
X112424090Y-93728704D01*
X112418552Y-93726905D01*
X112418551Y-93726904D01*
X112399278Y-93720642D01*
X112388550Y-93716198D01*
X112370497Y-93707000D01*
X112365304Y-93704354D01*
X112348660Y-93701718D01*
X112339537Y-93700273D01*
X112328246Y-93697562D01*
X112308974Y-93691300D01*
X112308971Y-93691300D01*
X112303433Y-93689500D01*
X108917478Y-93689500D01*
X108872430Y-93674208D01*
X108786689Y-93608416D01*
X108786685Y-93608414D01*
X108782841Y-93605464D01*
X108636762Y-93544956D01*
X108631960Y-93544324D01*
X108631957Y-93544323D01*
X108484808Y-93524951D01*
X108480000Y-93524318D01*
X108475192Y-93524951D01*
X108328043Y-93544323D01*
X108328040Y-93544324D01*
X108323238Y-93544956D01*
X108177159Y-93605464D01*
X108173315Y-93608414D01*
X108173311Y-93608416D01*
X108087570Y-93674208D01*
X108051718Y-93701718D01*
X108048763Y-93705569D01*
X107958416Y-93823311D01*
X107958414Y-93823315D01*
X107955464Y-93827159D01*
X107894956Y-93973238D01*
X107874318Y-94130000D01*
X86022200Y-94130000D01*
X86022200Y-91400000D01*
X85033273Y-91400000D01*
X84985707Y-91382687D01*
X84960397Y-91338850D01*
X84959273Y-91325979D01*
X84959507Y-90485616D01*
X84959651Y-89967501D01*
X84976977Y-89919941D01*
X85020821Y-89894644D01*
X85070669Y-89903447D01*
X85103195Y-89942233D01*
X85105473Y-89950378D01*
X85105483Y-89950375D01*
X85106215Y-89953015D01*
X85106752Y-89955713D01*
X85192160Y-90193595D01*
X85311792Y-90416240D01*
X85463018Y-90618756D01*
X85511238Y-90666557D01*
X85611838Y-90766283D01*
X85642517Y-90796696D01*
X85846346Y-90946149D01*
X86070026Y-91063833D01*
X86072615Y-91064737D01*
X86072617Y-91064738D01*
X86306051Y-91146257D01*
X86306057Y-91146259D01*
X86308644Y-91147162D01*
X86311346Y-91147675D01*
X86554259Y-91193794D01*
X86554265Y-91193795D01*
X86556958Y-91194306D01*
X86559698Y-91194414D01*
X86559701Y-91194414D01*
X86709190Y-91200287D01*
X86809513Y-91204229D01*
X86812242Y-91203930D01*
X86812246Y-91203930D01*
X86904794Y-91193794D01*
X87060760Y-91176713D01*
X87196143Y-91141070D01*
X87302523Y-91113063D01*
X87302526Y-91113062D01*
X87305181Y-91112363D01*
X87537405Y-91012591D01*
X87642716Y-90947423D01*
X87749995Y-90881037D01*
X87749999Y-90881034D01*
X87752331Y-90879591D01*
X87945238Y-90716283D01*
X88111888Y-90526256D01*
X88113367Y-90523957D01*
X88113372Y-90523950D01*
X88247133Y-90315995D01*
X88247136Y-90315990D01*
X88248619Y-90313684D01*
X88352428Y-90083236D01*
X88353171Y-90080600D01*
X88353174Y-90080593D01*
X88420289Y-89842617D01*
X88421034Y-89839976D01*
X88428994Y-89777410D01*
X88434356Y-89735262D01*
X113609520Y-89735262D01*
X113609823Y-89738871D01*
X113609823Y-89738873D01*
X113613404Y-89781519D01*
X113626759Y-89940553D01*
X113683544Y-90138586D01*
X113685196Y-90141800D01*
X113685197Y-90141803D01*
X113772243Y-90311176D01*
X113777712Y-90321818D01*
X113905677Y-90483270D01*
X113908430Y-90485613D01*
X113908433Y-90485616D01*
X113939062Y-90511683D01*
X114062564Y-90616791D01*
X114109266Y-90642892D01*
X114239239Y-90715532D01*
X114239243Y-90715534D01*
X114242398Y-90717297D01*
X114245834Y-90718414D01*
X114245840Y-90718416D01*
X114370256Y-90758841D01*
X114438329Y-90780959D01*
X114502176Y-90788572D01*
X114639294Y-90804922D01*
X114639297Y-90804922D01*
X114642894Y-90805351D01*
X114755377Y-90796696D01*
X114844689Y-90789824D01*
X114844691Y-90789824D01*
X114848300Y-90789546D01*
X115009451Y-90744552D01*
X115043244Y-90735117D01*
X115043245Y-90735117D01*
X115046725Y-90734145D01*
X115078568Y-90718060D01*
X115227376Y-90642892D01*
X115227379Y-90642890D01*
X115230610Y-90641258D01*
X115392951Y-90514424D01*
X115422292Y-90480432D01*
X115525201Y-90361210D01*
X115525203Y-90361208D01*
X115527564Y-90358472D01*
X115529347Y-90355333D01*
X115529350Y-90355329D01*
X115592823Y-90243595D01*
X115629323Y-90179344D01*
X115641812Y-90141803D01*
X115693208Y-89987299D01*
X115694351Y-89983863D01*
X115697581Y-89958299D01*
X115719913Y-89781519D01*
X115719913Y-89781513D01*
X115720171Y-89779474D01*
X115720583Y-89750000D01*
X115719138Y-89735262D01*
X116149520Y-89735262D01*
X116149823Y-89738871D01*
X116149823Y-89738873D01*
X116153404Y-89781519D01*
X116166759Y-89940553D01*
X116223544Y-90138586D01*
X116225196Y-90141800D01*
X116225197Y-90141803D01*
X116312243Y-90311176D01*
X116317712Y-90321818D01*
X116445677Y-90483270D01*
X116448430Y-90485613D01*
X116448433Y-90485616D01*
X116479062Y-90511683D01*
X116602564Y-90616791D01*
X116649266Y-90642892D01*
X116779239Y-90715532D01*
X116779243Y-90715534D01*
X116782398Y-90717297D01*
X116785834Y-90718414D01*
X116785840Y-90718416D01*
X116910256Y-90758841D01*
X116978329Y-90780959D01*
X117042176Y-90788572D01*
X117179294Y-90804922D01*
X117179297Y-90804922D01*
X117182894Y-90805351D01*
X117295377Y-90796696D01*
X117384689Y-90789824D01*
X117384691Y-90789824D01*
X117388300Y-90789546D01*
X117549451Y-90744552D01*
X117583244Y-90735117D01*
X117583245Y-90735117D01*
X117586725Y-90734145D01*
X117618568Y-90718060D01*
X117767376Y-90642892D01*
X117767379Y-90642890D01*
X117770610Y-90641258D01*
X117932951Y-90514424D01*
X117962292Y-90480432D01*
X118065201Y-90361210D01*
X118065203Y-90361208D01*
X118067564Y-90358472D01*
X118069347Y-90355333D01*
X118069350Y-90355329D01*
X118132823Y-90243595D01*
X118169323Y-90179344D01*
X118181812Y-90141803D01*
X118233208Y-89987299D01*
X118234351Y-89983863D01*
X118237581Y-89958299D01*
X118259913Y-89781519D01*
X118259913Y-89781513D01*
X118260171Y-89779474D01*
X118260583Y-89750000D01*
X118259138Y-89735262D01*
X121229520Y-89735262D01*
X121229823Y-89738871D01*
X121229823Y-89738873D01*
X121233404Y-89781519D01*
X121246759Y-89940553D01*
X121303544Y-90138586D01*
X121305196Y-90141800D01*
X121305197Y-90141803D01*
X121392243Y-90311176D01*
X121397712Y-90321818D01*
X121525677Y-90483270D01*
X121528430Y-90485613D01*
X121528433Y-90485616D01*
X121559062Y-90511683D01*
X121682564Y-90616791D01*
X121729266Y-90642892D01*
X121859239Y-90715532D01*
X121859243Y-90715534D01*
X121862398Y-90717297D01*
X121865834Y-90718414D01*
X121865840Y-90718416D01*
X121990256Y-90758841D01*
X122058329Y-90780959D01*
X122122176Y-90788572D01*
X122259294Y-90804922D01*
X122259297Y-90804922D01*
X122262894Y-90805351D01*
X122375377Y-90796696D01*
X122464689Y-90789824D01*
X122464691Y-90789824D01*
X122468300Y-90789546D01*
X122629451Y-90744552D01*
X122663244Y-90735117D01*
X122663245Y-90735117D01*
X122666725Y-90734145D01*
X122698568Y-90718060D01*
X122847376Y-90642892D01*
X122847379Y-90642890D01*
X122850610Y-90641258D01*
X122878142Y-90619748D01*
X123774500Y-90619748D01*
X123786133Y-90678231D01*
X123830448Y-90744552D01*
X123836509Y-90748602D01*
X123865630Y-90768060D01*
X123896769Y-90788867D01*
X123936128Y-90796696D01*
X123951682Y-90799790D01*
X123951683Y-90799790D01*
X123955252Y-90800500D01*
X125694748Y-90800500D01*
X125698317Y-90799790D01*
X125698318Y-90799790D01*
X125713872Y-90796696D01*
X125753231Y-90788867D01*
X125784371Y-90768060D01*
X125813491Y-90748602D01*
X125819552Y-90744552D01*
X125863867Y-90678231D01*
X125875500Y-90619748D01*
X125875500Y-89505361D01*
X145745316Y-89505361D01*
X145747392Y-89548570D01*
X145756969Y-89747947D01*
X145757443Y-89757820D01*
X145757977Y-89760506D01*
X145757978Y-89760512D01*
X145761750Y-89779474D01*
X145806752Y-90005713D01*
X145892160Y-90243595D01*
X146011792Y-90466240D01*
X146163018Y-90668756D01*
X146342517Y-90846696D01*
X146546346Y-90996149D01*
X146770026Y-91113833D01*
X146772615Y-91114737D01*
X146772617Y-91114738D01*
X147006051Y-91196257D01*
X147006057Y-91196259D01*
X147008644Y-91197162D01*
X147011346Y-91197675D01*
X147254259Y-91243794D01*
X147254265Y-91243795D01*
X147256958Y-91244306D01*
X147259698Y-91244414D01*
X147259701Y-91244414D01*
X147409190Y-91250287D01*
X147509513Y-91254229D01*
X147512242Y-91253930D01*
X147512246Y-91253930D01*
X147604794Y-91243794D01*
X147760760Y-91226713D01*
X147896143Y-91191070D01*
X148002523Y-91163063D01*
X148002526Y-91163062D01*
X148005181Y-91162363D01*
X148237405Y-91062591D01*
X148318204Y-91012591D01*
X148449995Y-90931037D01*
X148449999Y-90931034D01*
X148452331Y-90929591D01*
X148645238Y-90766283D01*
X148811888Y-90576256D01*
X148813367Y-90573957D01*
X148813372Y-90573950D01*
X148947133Y-90365995D01*
X148947136Y-90365990D01*
X148948619Y-90363684D01*
X149052428Y-90133236D01*
X149053171Y-90130600D01*
X149053174Y-90130593D01*
X149120289Y-89892617D01*
X149121034Y-89889976D01*
X149135355Y-89777410D01*
X149152696Y-89641096D01*
X149152696Y-89641092D01*
X149152931Y-89639247D01*
X149155268Y-89550000D01*
X149154895Y-89544970D01*
X149136740Y-89300674D01*
X149136740Y-89300671D01*
X149136537Y-89297945D01*
X149080756Y-89051428D01*
X149079372Y-89047867D01*
X149008277Y-88865049D01*
X148989150Y-88815863D01*
X148863731Y-88596426D01*
X148707255Y-88397938D01*
X148523160Y-88224758D01*
X148315489Y-88080691D01*
X148088805Y-87968903D01*
X147848087Y-87891849D01*
X147598624Y-87851221D01*
X147595891Y-87851185D01*
X147595888Y-87851185D01*
X147415874Y-87848829D01*
X147345896Y-87847913D01*
X147095455Y-87881996D01*
X147092827Y-87882762D01*
X146855433Y-87951956D01*
X146855428Y-87951958D01*
X146852803Y-87952723D01*
X146850318Y-87953869D01*
X146850317Y-87953869D01*
X146728466Y-88010043D01*
X146623270Y-88058539D01*
X146620976Y-88060043D01*
X146414197Y-88195613D01*
X146414194Y-88195616D01*
X146411899Y-88197120D01*
X146409851Y-88198948D01*
X146409847Y-88198951D01*
X146380933Y-88224758D01*
X146223333Y-88365421D01*
X146221574Y-88367536D01*
X146221572Y-88367538D01*
X146103299Y-88509746D01*
X146061715Y-88559746D01*
X146060285Y-88562103D01*
X146060284Y-88562104D01*
X145945418Y-88751398D01*
X145930595Y-88775825D01*
X145929534Y-88778354D01*
X145929534Y-88778355D01*
X145838346Y-88995815D01*
X145832854Y-89008911D01*
X145821072Y-89055302D01*
X145796805Y-89150856D01*
X145770639Y-89253883D01*
X145745316Y-89505361D01*
X125875500Y-89505361D01*
X125875500Y-88880252D01*
X125863867Y-88821769D01*
X125831598Y-88773475D01*
X125823602Y-88761509D01*
X125819552Y-88755448D01*
X125771702Y-88723475D01*
X125759294Y-88715184D01*
X125759293Y-88715184D01*
X125753231Y-88711133D01*
X125708705Y-88702276D01*
X125698318Y-88700210D01*
X125698317Y-88700210D01*
X125694748Y-88699500D01*
X123955252Y-88699500D01*
X123951683Y-88700210D01*
X123951682Y-88700210D01*
X123941295Y-88702276D01*
X123896769Y-88711133D01*
X123890707Y-88715184D01*
X123890706Y-88715184D01*
X123878298Y-88723475D01*
X123830448Y-88755448D01*
X123826398Y-88761509D01*
X123818403Y-88773475D01*
X123786133Y-88821769D01*
X123774500Y-88880252D01*
X123774500Y-90619748D01*
X122878142Y-90619748D01*
X123012951Y-90514424D01*
X123042292Y-90480432D01*
X123145201Y-90361210D01*
X123145203Y-90361208D01*
X123147564Y-90358472D01*
X123149347Y-90355333D01*
X123149350Y-90355329D01*
X123212823Y-90243595D01*
X123249323Y-90179344D01*
X123261812Y-90141803D01*
X123313208Y-89987299D01*
X123314351Y-89983863D01*
X123317581Y-89958299D01*
X123339913Y-89781519D01*
X123339913Y-89781513D01*
X123340171Y-89779474D01*
X123340583Y-89750000D01*
X123336448Y-89707820D01*
X123320833Y-89548570D01*
X123320480Y-89544970D01*
X123260935Y-89347749D01*
X123164218Y-89165849D01*
X123034011Y-89006200D01*
X122875275Y-88874882D01*
X122864384Y-88868993D01*
X122697238Y-88778618D01*
X122694055Y-88776897D01*
X122690605Y-88775829D01*
X122690600Y-88775827D01*
X122537241Y-88728355D01*
X122497254Y-88715977D01*
X122292369Y-88694443D01*
X122288765Y-88694771D01*
X122288764Y-88694771D01*
X122288215Y-88694821D01*
X122087203Y-88713114D01*
X122044015Y-88725825D01*
X121893043Y-88770258D01*
X121893039Y-88770260D01*
X121889572Y-88771280D01*
X121808844Y-88813484D01*
X121710209Y-88865049D01*
X121710206Y-88865051D01*
X121707002Y-88866726D01*
X121704184Y-88868992D01*
X121704182Y-88868993D01*
X121549266Y-88993548D01*
X121549263Y-88993551D01*
X121546447Y-88995815D01*
X121544121Y-88998587D01*
X121544119Y-88998589D01*
X121416351Y-89150856D01*
X121416348Y-89150860D01*
X121414024Y-89153630D01*
X121314776Y-89334162D01*
X121313682Y-89337611D01*
X121260469Y-89505361D01*
X121252484Y-89530532D01*
X121252081Y-89534123D01*
X121252081Y-89534124D01*
X121250508Y-89548152D01*
X121229520Y-89735262D01*
X118259138Y-89735262D01*
X118256448Y-89707820D01*
X118240833Y-89548570D01*
X118240480Y-89544970D01*
X118180935Y-89347749D01*
X118084218Y-89165849D01*
X117954011Y-89006200D01*
X117795275Y-88874882D01*
X117784384Y-88868993D01*
X117617238Y-88778618D01*
X117614055Y-88776897D01*
X117610605Y-88775829D01*
X117610600Y-88775827D01*
X117457241Y-88728355D01*
X117417254Y-88715977D01*
X117212369Y-88694443D01*
X117208765Y-88694771D01*
X117208764Y-88694771D01*
X117208215Y-88694821D01*
X117007203Y-88713114D01*
X116964015Y-88725825D01*
X116813043Y-88770258D01*
X116813039Y-88770260D01*
X116809572Y-88771280D01*
X116728844Y-88813484D01*
X116630209Y-88865049D01*
X116630206Y-88865051D01*
X116627002Y-88866726D01*
X116624184Y-88868992D01*
X116624182Y-88868993D01*
X116469266Y-88993548D01*
X116469263Y-88993551D01*
X116466447Y-88995815D01*
X116464121Y-88998587D01*
X116464119Y-88998589D01*
X116336351Y-89150856D01*
X116336348Y-89150860D01*
X116334024Y-89153630D01*
X116234776Y-89334162D01*
X116233682Y-89337611D01*
X116180469Y-89505361D01*
X116172484Y-89530532D01*
X116172081Y-89534123D01*
X116172081Y-89534124D01*
X116170508Y-89548152D01*
X116149520Y-89735262D01*
X115719138Y-89735262D01*
X115716448Y-89707820D01*
X115700833Y-89548570D01*
X115700480Y-89544970D01*
X115640935Y-89347749D01*
X115544218Y-89165849D01*
X115414011Y-89006200D01*
X115255275Y-88874882D01*
X115244384Y-88868993D01*
X115077238Y-88778618D01*
X115074055Y-88776897D01*
X115070605Y-88775829D01*
X115070600Y-88775827D01*
X114917241Y-88728355D01*
X114877254Y-88715977D01*
X114672369Y-88694443D01*
X114668765Y-88694771D01*
X114668764Y-88694771D01*
X114668215Y-88694821D01*
X114467203Y-88713114D01*
X114424015Y-88725825D01*
X114273043Y-88770258D01*
X114273039Y-88770260D01*
X114269572Y-88771280D01*
X114188844Y-88813484D01*
X114090209Y-88865049D01*
X114090206Y-88865051D01*
X114087002Y-88866726D01*
X114084184Y-88868992D01*
X114084182Y-88868993D01*
X113929266Y-88993548D01*
X113929263Y-88993551D01*
X113926447Y-88995815D01*
X113924121Y-88998587D01*
X113924119Y-88998589D01*
X113796351Y-89150856D01*
X113796348Y-89150860D01*
X113794024Y-89153630D01*
X113694776Y-89334162D01*
X113693682Y-89337611D01*
X113640469Y-89505361D01*
X113632484Y-89530532D01*
X113632081Y-89534123D01*
X113632081Y-89534124D01*
X113630508Y-89548152D01*
X113609520Y-89735262D01*
X88434356Y-89735262D01*
X88452696Y-89591096D01*
X88452696Y-89591092D01*
X88452931Y-89589247D01*
X88455268Y-89500000D01*
X88443717Y-89344556D01*
X88436740Y-89250674D01*
X88436740Y-89250671D01*
X88436537Y-89247945D01*
X88380756Y-89001428D01*
X88378574Y-88995815D01*
X88291908Y-88772956D01*
X88289150Y-88765863D01*
X88163731Y-88546426D01*
X88007255Y-88347938D01*
X87823160Y-88174758D01*
X87615489Y-88030691D01*
X87388805Y-87918903D01*
X87148087Y-87841849D01*
X86898624Y-87801221D01*
X86895891Y-87801185D01*
X86895888Y-87801185D01*
X86715874Y-87798829D01*
X86645896Y-87797913D01*
X86395455Y-87831996D01*
X86392827Y-87832762D01*
X86155433Y-87901956D01*
X86155428Y-87901958D01*
X86152803Y-87902723D01*
X86150318Y-87903869D01*
X86150317Y-87903869D01*
X86011065Y-87968065D01*
X85923270Y-88008539D01*
X85920976Y-88010043D01*
X85714197Y-88145613D01*
X85714194Y-88145616D01*
X85711899Y-88147120D01*
X85709851Y-88148948D01*
X85709847Y-88148951D01*
X85653827Y-88198951D01*
X85523333Y-88315421D01*
X85521574Y-88317536D01*
X85521572Y-88317538D01*
X85363478Y-88507626D01*
X85361715Y-88509746D01*
X85230595Y-88725825D01*
X85229534Y-88728354D01*
X85229534Y-88728355D01*
X85168814Y-88873157D01*
X85132854Y-88958911D01*
X85110009Y-89048866D01*
X85105631Y-89066103D01*
X85077143Y-89107944D01*
X85028424Y-89121685D01*
X84982272Y-89100894D01*
X84960280Y-89055302D01*
X84959908Y-89047867D01*
X84960183Y-88060043D01*
X84960438Y-87144512D01*
X84977764Y-87096952D01*
X85021608Y-87071655D01*
X85034444Y-87070534D01*
X117084867Y-87075492D01*
G37*
%TD.AperFunction*%
%TD*%
M02*
