M48
; DRILL file {KiCad (6.0.7)} date Sun Apr 28 10:18:32 2024
; FORMAT={-:-/ absolute / inch / decimal}
; #@! TF.CreationDate,2024-04-28T10:18:32+07:00
; #@! TF.GenerationSoftware,Kicad,Pcbnew,(6.0.7)
; #@! TF.FileFunction,MixedPlating,1,2
FMAT,2
INCH
; #@! TA.AperFunction,Plated,PTH,ViaDrill
T1C0.0118
; #@! TA.AperFunction,Plated,PTH,ViaDrill
T2C0.0157
; #@! TA.AperFunction,Plated,PTH,ComponentDrill
T3C0.0256
; #@! TA.AperFunction,Plated,PTH,ComponentDrill
T4C0.0315
; #@! TA.AperFunction,Plated,PTH,ComponentDrill
T5C0.0325
; #@! TA.AperFunction,Plated,PTH,ComponentDrill
T6C0.0394
; #@! TA.AperFunction,Plated,PTH,ComponentDrill
T7C0.0512
; #@! TA.AperFunction,Plated,PTH,ViaDrill
T8C0.1102
%
G90
G05
T1
X3.4114Y-3.6476
X3.4114Y-3.7096
X3.4419Y-4.6713
X3.4429Y-4.5935
X3.4439Y-4.0846
X3.4449Y-4.1565
X3.4469Y-3.997
X3.4469Y-4.2313
X3.4469Y-4.3711
X3.4478Y-4.2943
X3.4774Y-3.6417
X3.4783Y-3.7096
X3.4961Y-4.0846
X3.497Y-4.1565
X3.499Y-3.997
X3.499Y-4.2313
X3.499Y-4.3711
X3.5Y-4.2943
X3.5049Y-4.75
X3.5472Y-3.4774
X3.5472Y-3.5797
X3.5472Y-3.7028
X3.5502Y-3.6398
X3.5531Y-4.0856
X3.5541Y-4.1575
X3.5561Y-3.998
X3.5561Y-4.2323
X3.5561Y-4.372
X3.5571Y-4.2953
X3.627Y-3.9291
X3.6398Y-3.5335
X3.6614Y-4.6998
X3.6762Y-4.8061
X3.7234Y-3.7579
X3.7894Y-3.4656
X3.811Y-3.6713
X3.8474Y-4.4222
X3.8642Y-4.8061
X3.9055Y-4.7077
X3.9085Y-3.9911
X3.9085Y-4.1132
X3.9124Y-3.4656
X3.9134Y-4.2667
X3.9783Y-3.6506
X3.9852Y-3.9911
X3.9852Y-4.1132
X3.9902Y-4.2667
X4.0148Y-3.4656
X4.0276Y-4.8061
X4.1575Y-4.7077
X4.1634Y-3.6467
X4.1791Y-3.4656
X4.2313Y-4.8061
X4.2697Y-4.1506
X4.3022Y-3.4656
X4.3081Y-4.5778
X4.3297Y-4.2795
X4.3307Y-3.8809
X4.3317Y-4.3711
X4.3346Y-4.0965
X4.3376Y-4.6673
X4.3553Y-3.6467
X4.3799Y-4.7195
X4.4094Y-4.2096
X4.4193Y-4.5925
X4.4272Y-4.0689
X4.4341Y-3.8533
X4.4459Y-3.9213
X4.4459Y-4.8041
X4.4508Y-4.6211
X4.4626Y-4.4075
X4.4646Y-4.4685
X4.4921Y-4.0079
X4.5197Y-4.2067
X4.5463Y-3.6447
X4.5699Y-4.7234
X4.5965Y-4.25
X4.6004Y-4.5807
X4.6112Y-4.4104
X4.6112Y-4.4665
X4.6161Y-4.1093
X4.6339Y-4.8041
X4.6959Y-4.1841
X4.7018Y-3.6437
X4.7146Y-4.4055
X4.7146Y-4.4705
X4.7343Y-4.0935
X4.7559Y-4.5797
X4.7972Y-4.8041
X4.8189Y-3.6437
X4.8278Y-4.0935
X4.8533Y-4.7215
X4.9291Y-3.6526
X4.9537Y-3.7313
X4.9557Y-3.8041
X4.9587Y-3.878
X4.9695Y-4.1555
X5.001Y-4.8041
X5.0049Y-4.6073
X5.0049Y-4.7146
X5.0315Y-3.6368
X5.0797Y-3.4577
X5.0807Y-4.2923
X5.1053Y-4.5
X5.1152Y-4.7047
X5.124Y-4.6132
X5.1476Y-3.6722
X5.1821Y-3.4577
X5.2057Y-4.1594
X5.2234Y-3.7953
X5.2382Y-4.0719
X5.2598Y-4.5
X5.2598Y-4.6181
X5.2648Y-4.2933
X5.2648Y-4.7146
X5.2648Y-4.8031
X5.2815Y-4.251
X5.2963Y-3.5768
X5.3209Y-4.0226
X5.3219Y-4.0896
X5.3278Y-3.4577
X5.376Y-4.4016
X5.378Y-3.9528
X5.4035Y-3.7559
X5.4213Y-3.689
X5.4488Y-3.5354
X5.4508Y-3.4577
X5.4813Y-4.5049
X5.4843Y-4.8022
X5.5433Y-3.749
X5.5453Y-3.6841
X5.5492Y-4.3228
X5.5531Y-3.4577
X5.5571Y-3.8907
X5.627Y-4.5787
X5.628Y-4.6506
X5.6575Y-3.6831
X5.6683Y-3.5374
X5.6762Y-4.3169
X5.6772Y-4.3809
X5.748Y-3.5984
X5.7717Y-4.5787
X5.7726Y-4.6506
X5.7785Y-3.9163
X5.7835Y-3.7156
T2
X3.6594Y-4.6071
X3.93Y-4.66
X4.2709Y-3.7059
X5.33Y-4.26
X5.36Y-4.52
X5.4579Y-3.9614
X5.54Y-4.16
T6
X4.5144Y-3.5335
X4.5677Y-4.6553
X4.6144Y-3.5335
X4.7144Y-3.5335
X4.7449Y-4.6553
X4.8144Y-3.5335
X4.9144Y-3.5335
T7
X5.1024Y-4.4191
X5.1142Y-3.8604
X5.2874Y-4.4191
X5.2992Y-3.8604
X5.4724Y-4.4191
X5.4843Y-3.8604
T8
X3.4154Y-3.5236
X3.4154Y-4.7539
X5.8051Y-3.5256
X5.8061Y-4.7539
T3
G00X5.6161Y-4.0463
M15
G01X5.624Y-4.0463
M16
G05
G00X5.6161Y-4.2372
M15
G01X5.624Y-4.2372
M16
G05
T4
G00X5.7244Y-4.28
M15
G01X5.752Y-4.28
M16
G05
T5
G00X5.7249Y-4.0034
M15
G01X5.7515Y-4.0034
M16
G05
T0
M30
