%TF.GenerationSoftware,KiCad,Pcbnew,(6.0.7)*%
%TF.CreationDate,2024-04-28T10:14:19+07:00*%
%TF.ProjectId,ble_gateway,626c655f-6761-4746-9577-61792e6b6963,rev?*%
%TF.SameCoordinates,Original*%
%TF.FileFunction,Legend,Top*%
%TF.FilePolarity,Positive*%
%FSLAX46Y46*%
G04 Gerber Fmt 4.6, Leading zero omitted, Abs format (unit mm)*
G04 Created by KiCad (PCBNEW (6.0.7)) date 2024-04-28 10:14:19*
%MOMM*%
%LPD*%
G01*
G04 APERTURE LIST*
%ADD10C,0.100000*%
%ADD11C,0.070000*%
%ADD12C,0.050000*%
%ADD13C,0.120000*%
%ADD14C,0.127000*%
%ADD15C,0.200000*%
G04 APERTURE END LIST*
D10*
X141689285Y-96608645D02*
X141689285Y-96441979D01*
X141951190Y-96403288D02*
X141951190Y-96641383D01*
X141451190Y-96578883D01*
X141451190Y-96340788D01*
X141951190Y-96189002D02*
X141451190Y-96126502D01*
X141951190Y-95903288D01*
X141451190Y-95840788D01*
X120043764Y-92125000D02*
X120088407Y-92148809D01*
X120159836Y-92148809D01*
X120234241Y-92125000D01*
X120287812Y-92077380D01*
X120317574Y-92029761D01*
X120353288Y-91934523D01*
X120362217Y-91863095D01*
X120350312Y-91767857D01*
X120332455Y-91720238D01*
X120290788Y-91672619D01*
X120222336Y-91648809D01*
X120174717Y-91648809D01*
X120100312Y-91672619D01*
X120073526Y-91696428D01*
X120052693Y-91863095D01*
X120147931Y-91863095D01*
X119865193Y-91648809D02*
X119802693Y-92148809D01*
X119579479Y-91648809D01*
X119516979Y-92148809D01*
X119341383Y-91648809D02*
X119278883Y-92148809D01*
X119159836Y-92148809D01*
X119091383Y-92125000D01*
X119049717Y-92077380D01*
X119031860Y-92029761D01*
X119019955Y-91934523D01*
X119028883Y-91863095D01*
X119064598Y-91767857D01*
X119094360Y-91720238D01*
X119147931Y-91672619D01*
X119222336Y-91648809D01*
X119341383Y-91648809D01*
X141111622Y-97621428D02*
X141138407Y-97597619D01*
X141212812Y-97573809D01*
X141260431Y-97573809D01*
X141328883Y-97597619D01*
X141370550Y-97645238D01*
X141388407Y-97692857D01*
X141400312Y-97788095D01*
X141391383Y-97859523D01*
X141355669Y-97954761D01*
X141325907Y-98002380D01*
X141272336Y-98050000D01*
X141197931Y-98073809D01*
X141150312Y-98073809D01*
X141081860Y-98050000D01*
X141061026Y-98026190D01*
X113563973Y-117976190D02*
X113668139Y-118476190D01*
X113897306Y-117976190D01*
X114025282Y-118285714D02*
X114406235Y-118285714D01*
X117355669Y-91623809D02*
X117492574Y-91861904D01*
X117641383Y-91623809D02*
X117578883Y-92123809D01*
X117388407Y-92123809D01*
X117343764Y-92100000D01*
X117322931Y-92076190D01*
X117305074Y-92028571D01*
X117314002Y-91957142D01*
X117343764Y-91909523D01*
X117370550Y-91885714D01*
X117421145Y-91861904D01*
X117611622Y-91861904D01*
X117126502Y-92123809D02*
X116855669Y-91623809D01*
X116793169Y-92123809D02*
X117189002Y-91623809D01*
X127667574Y-98347619D02*
X128176502Y-97704761D01*
X127274717Y-97871428D02*
X127301502Y-97847619D01*
X127375907Y-97823809D01*
X127423526Y-97823809D01*
X127491979Y-97847619D01*
X127533645Y-97895238D01*
X127551502Y-97942857D01*
X127563407Y-98038095D01*
X127554479Y-98109523D01*
X127518764Y-98204761D01*
X127489002Y-98252380D01*
X127435431Y-98300000D01*
X127361026Y-98323809D01*
X127313407Y-98323809D01*
X127244955Y-98300000D01*
X127224122Y-98276190D01*
X127466354Y-110327380D02*
X127534806Y-110351190D01*
X127653854Y-110351190D01*
X127704449Y-110327380D01*
X127731235Y-110303571D01*
X127760997Y-110255952D01*
X127766949Y-110208333D01*
X127749092Y-110160714D01*
X127728258Y-110136904D01*
X127683616Y-110113095D01*
X127591354Y-110089285D01*
X127546711Y-110065476D01*
X127525877Y-110041666D01*
X127508020Y-109994047D01*
X127513973Y-109946428D01*
X127543735Y-109898809D01*
X127570520Y-109875000D01*
X127621116Y-109851190D01*
X127740163Y-109851190D01*
X127808616Y-109875000D01*
X128177663Y-110351190D02*
X128210401Y-110089285D01*
X128192544Y-110041666D01*
X128147901Y-110017857D01*
X128052663Y-110017857D01*
X128002068Y-110041666D01*
X128180639Y-110327380D02*
X128130044Y-110351190D01*
X128010997Y-110351190D01*
X127966354Y-110327380D01*
X127948497Y-110279761D01*
X127954449Y-110232142D01*
X127984211Y-110184523D01*
X128034806Y-110160714D01*
X128153854Y-110160714D01*
X128204449Y-110136904D01*
X128409806Y-110017857D02*
X128487187Y-110351190D01*
X128647901Y-110017857D01*
X128990163Y-110327380D02*
X128939568Y-110351190D01*
X128844330Y-110351190D01*
X128799687Y-110327380D01*
X128781830Y-110279761D01*
X128805639Y-110089285D01*
X128835401Y-110041666D01*
X128885997Y-110017857D01*
X128981235Y-110017857D01*
X129025877Y-110041666D01*
X129043735Y-110089285D01*
X129037782Y-110136904D01*
X128793735Y-110184523D01*
X129606235Y-110351190D02*
X129668735Y-109851190D01*
X129859211Y-109851190D01*
X129903854Y-109875000D01*
X129924687Y-109898809D01*
X129942544Y-109946428D01*
X129933616Y-110017857D01*
X129903854Y-110065476D01*
X129877068Y-110089285D01*
X129826473Y-110113095D01*
X129635997Y-110113095D01*
X114840788Y-92273809D02*
X114555074Y-92273809D01*
X114760431Y-91773809D02*
X114697931Y-92273809D01*
X114436026Y-92273809D02*
X114165193Y-91773809D01*
X114102693Y-92273809D02*
X114498526Y-91773809D01*
X125105074Y-92273809D02*
X125343169Y-92273809D01*
X125396741Y-92035714D01*
X125369955Y-92059523D01*
X125319360Y-92083333D01*
X125200312Y-92083333D01*
X125155669Y-92059523D01*
X125134836Y-92035714D01*
X125116979Y-91988095D01*
X125131860Y-91869047D01*
X125161622Y-91821428D01*
X125188407Y-91797619D01*
X125239002Y-91773809D01*
X125358050Y-91773809D01*
X125402693Y-91797619D01*
X125423526Y-91821428D01*
X124938407Y-92273809D02*
X124834241Y-91773809D01*
X124605074Y-92273809D01*
X122972931Y-92123809D02*
X122663407Y-92123809D01*
X122853883Y-91933333D01*
X122782455Y-91933333D01*
X122737812Y-91909523D01*
X122716979Y-91885714D01*
X122699122Y-91838095D01*
X122714002Y-91719047D01*
X122743764Y-91671428D01*
X122770550Y-91647619D01*
X122821145Y-91623809D01*
X122964002Y-91623809D01*
X123008645Y-91647619D01*
X123029479Y-91671428D01*
X122505669Y-91671428D02*
X122484836Y-91647619D01*
X122511622Y-91623809D01*
X122532455Y-91647619D01*
X122505669Y-91671428D01*
X122511622Y-91623809D01*
X122258645Y-92123809D02*
X121949122Y-92123809D01*
X122139598Y-91933333D01*
X122068169Y-91933333D01*
X122023526Y-91909523D01*
X122002693Y-91885714D01*
X121984836Y-91838095D01*
X121999717Y-91719047D01*
X122029479Y-91671428D01*
X122056264Y-91647619D01*
X122106860Y-91623809D01*
X122249717Y-91623809D01*
X122294360Y-91647619D01*
X122315193Y-91671428D01*
X121806264Y-92123809D02*
X121702098Y-91623809D01*
X121472931Y-92123809D01*
X141464285Y-114193169D02*
X141488095Y-114124717D01*
X141511904Y-114103883D01*
X141559523Y-114086026D01*
X141630952Y-114094955D01*
X141678571Y-114124717D01*
X141702380Y-114151502D01*
X141726190Y-114202098D01*
X141726190Y-114392574D01*
X141226190Y-114330074D01*
X141226190Y-114163407D01*
X141250000Y-114118764D01*
X141273809Y-114097931D01*
X141321428Y-114080074D01*
X141369047Y-114086026D01*
X141416666Y-114115788D01*
X141440476Y-114142574D01*
X141464285Y-114193169D01*
X141464285Y-114359836D01*
X141226190Y-113734836D02*
X141226190Y-113639598D01*
X141250000Y-113594955D01*
X141297619Y-113553288D01*
X141392857Y-113541383D01*
X141559523Y-113562217D01*
X141654761Y-113597931D01*
X141702380Y-113651502D01*
X141726190Y-113702098D01*
X141726190Y-113797336D01*
X141702380Y-113841979D01*
X141654761Y-113883645D01*
X141559523Y-113895550D01*
X141392857Y-113874717D01*
X141297619Y-113839002D01*
X141250000Y-113785431D01*
X141226190Y-113734836D01*
X141226190Y-113211026D02*
X141226190Y-113115788D01*
X141250000Y-113071145D01*
X141297619Y-113029479D01*
X141392857Y-113017574D01*
X141559523Y-113038407D01*
X141654761Y-113074122D01*
X141702380Y-113127693D01*
X141726190Y-113178288D01*
X141726190Y-113273526D01*
X141702380Y-113318169D01*
X141654761Y-113359836D01*
X141559523Y-113371741D01*
X141392857Y-113350907D01*
X141297619Y-113315193D01*
X141250000Y-113261622D01*
X141226190Y-113211026D01*
X141226190Y-112853883D02*
X141226190Y-112568169D01*
X141726190Y-112773526D02*
X141226190Y-112711026D01*
X122313973Y-117976190D02*
X122418139Y-118476190D01*
X122647306Y-117976190D01*
X122775282Y-118285714D02*
X123156235Y-118285714D01*
X122941949Y-118476190D02*
X122989568Y-118095238D01*
X139863377Y-110526190D02*
X139925877Y-110026190D01*
X140149092Y-110526190D01*
X140211592Y-110026190D01*
X140458616Y-110526190D02*
X140413973Y-110502380D01*
X140393139Y-110478571D01*
X140375282Y-110430952D01*
X140393139Y-110288095D01*
X140422901Y-110240476D01*
X140449687Y-110216666D01*
X140500282Y-110192857D01*
X140571711Y-110192857D01*
X140616354Y-110216666D01*
X140637187Y-110240476D01*
X140655044Y-110288095D01*
X140637187Y-110430952D01*
X140607425Y-110478571D01*
X140580639Y-110502380D01*
X140530044Y-110526190D01*
X140458616Y-110526190D01*
X140839568Y-110526190D02*
X140881235Y-110192857D01*
X140869330Y-110288095D02*
X140899092Y-110240476D01*
X140925877Y-110216666D01*
X140976473Y-110192857D01*
X141024092Y-110192857D01*
X141149092Y-110526190D02*
X141190758Y-110192857D01*
X141184806Y-110240476D02*
X141211592Y-110216666D01*
X141262187Y-110192857D01*
X141333616Y-110192857D01*
X141378258Y-110216666D01*
X141396116Y-110264285D01*
X141363377Y-110526190D01*
X141396116Y-110264285D02*
X141425877Y-110216666D01*
X141476473Y-110192857D01*
X141547901Y-110192857D01*
X141592544Y-110216666D01*
X141610401Y-110264285D01*
X141577663Y-110526190D01*
X142030044Y-110526190D02*
X142062782Y-110264285D01*
X142044925Y-110216666D01*
X142000282Y-110192857D01*
X141905044Y-110192857D01*
X141854449Y-110216666D01*
X142033020Y-110502380D02*
X141982425Y-110526190D01*
X141863377Y-110526190D01*
X141818735Y-110502380D01*
X141800877Y-110454761D01*
X141806830Y-110407142D01*
X141836592Y-110359523D01*
X141887187Y-110335714D01*
X142006235Y-110335714D01*
X142056830Y-110311904D01*
X142339568Y-110526190D02*
X142294925Y-110502380D01*
X142277068Y-110454761D01*
X142330639Y-110026190D01*
%TO.C,U6*%
X136326190Y-113205952D02*
X136730952Y-113205952D01*
X136778571Y-113182142D01*
X136802380Y-113158333D01*
X136826190Y-113110714D01*
X136826190Y-113015476D01*
X136802380Y-112967857D01*
X136778571Y-112944047D01*
X136730952Y-112920238D01*
X136326190Y-112920238D01*
X136326190Y-112467857D02*
X136326190Y-112563095D01*
X136350000Y-112610714D01*
X136373809Y-112634523D01*
X136445238Y-112682142D01*
X136540476Y-112705952D01*
X136730952Y-112705952D01*
X136778571Y-112682142D01*
X136802380Y-112658333D01*
X136826190Y-112610714D01*
X136826190Y-112515476D01*
X136802380Y-112467857D01*
X136778571Y-112444047D01*
X136730952Y-112420238D01*
X136611904Y-112420238D01*
X136564285Y-112444047D01*
X136540476Y-112467857D01*
X136516666Y-112515476D01*
X136516666Y-112610714D01*
X136540476Y-112658333D01*
X136564285Y-112682142D01*
X136611904Y-112705952D01*
D11*
%TO.C,U2*%
X91626190Y-107130952D02*
X92030952Y-107130952D01*
X92078571Y-107107142D01*
X92102380Y-107083333D01*
X92126190Y-107035714D01*
X92126190Y-106940476D01*
X92102380Y-106892857D01*
X92078571Y-106869047D01*
X92030952Y-106845238D01*
X91626190Y-106845238D01*
X91673809Y-106630952D02*
X91650000Y-106607142D01*
X91626190Y-106559523D01*
X91626190Y-106440476D01*
X91650000Y-106392857D01*
X91673809Y-106369047D01*
X91721428Y-106345238D01*
X91769047Y-106345238D01*
X91840476Y-106369047D01*
X92126190Y-106654761D01*
X92126190Y-106345238D01*
%TO.C,D1*%
X129135714Y-105696428D02*
X128835714Y-105696428D01*
X128835714Y-105625000D01*
X128850000Y-105582142D01*
X128878571Y-105553571D01*
X128907142Y-105539285D01*
X128964285Y-105525000D01*
X129007142Y-105525000D01*
X129064285Y-105539285D01*
X129092857Y-105553571D01*
X129121428Y-105582142D01*
X129135714Y-105625000D01*
X129135714Y-105696428D01*
X129135714Y-105239285D02*
X129135714Y-105410714D01*
X129135714Y-105325000D02*
X128835714Y-105325000D01*
X128878571Y-105353571D01*
X128907142Y-105382142D01*
X128921428Y-105410714D01*
%TO.C,D2*%
X124278571Y-106660714D02*
X124278571Y-106360714D01*
X124350000Y-106360714D01*
X124392857Y-106375000D01*
X124421428Y-106403571D01*
X124435714Y-106432142D01*
X124450000Y-106489285D01*
X124450000Y-106532142D01*
X124435714Y-106589285D01*
X124421428Y-106617857D01*
X124392857Y-106646428D01*
X124350000Y-106660714D01*
X124278571Y-106660714D01*
X124564285Y-106389285D02*
X124578571Y-106375000D01*
X124607142Y-106360714D01*
X124678571Y-106360714D01*
X124707142Y-106375000D01*
X124721428Y-106389285D01*
X124735714Y-106417857D01*
X124735714Y-106446428D01*
X124721428Y-106489285D01*
X124550000Y-106660714D01*
X124735714Y-106660714D01*
%TO.C,C13*%
X111932142Y-113857142D02*
X111917857Y-113871428D01*
X111875000Y-113885714D01*
X111846428Y-113885714D01*
X111803571Y-113871428D01*
X111775000Y-113842857D01*
X111760714Y-113814285D01*
X111746428Y-113757142D01*
X111746428Y-113714285D01*
X111760714Y-113657142D01*
X111775000Y-113628571D01*
X111803571Y-113600000D01*
X111846428Y-113585714D01*
X111875000Y-113585714D01*
X111917857Y-113600000D01*
X111932142Y-113614285D01*
X112217857Y-113885714D02*
X112046428Y-113885714D01*
X112132142Y-113885714D02*
X112132142Y-113585714D01*
X112103571Y-113628571D01*
X112075000Y-113657142D01*
X112046428Y-113671428D01*
X112317857Y-113585714D02*
X112503571Y-113585714D01*
X112403571Y-113700000D01*
X112446428Y-113700000D01*
X112475000Y-113714285D01*
X112489285Y-113728571D01*
X112503571Y-113757142D01*
X112503571Y-113828571D01*
X112489285Y-113857142D01*
X112475000Y-113871428D01*
X112446428Y-113885714D01*
X112360714Y-113885714D01*
X112332142Y-113871428D01*
X112317857Y-113857142D01*
%TO.C,J1*%
X147735714Y-105225000D02*
X147950000Y-105225000D01*
X147992857Y-105239285D01*
X148021428Y-105267857D01*
X148035714Y-105310714D01*
X148035714Y-105339285D01*
X148035714Y-104925000D02*
X148035714Y-105096428D01*
X148035714Y-105010714D02*
X147735714Y-105010714D01*
X147778571Y-105039285D01*
X147807142Y-105067857D01*
X147821428Y-105096428D01*
%TO.C,C4*%
X116357142Y-97275000D02*
X116371428Y-97289285D01*
X116385714Y-97332142D01*
X116385714Y-97360714D01*
X116371428Y-97403571D01*
X116342857Y-97432142D01*
X116314285Y-97446428D01*
X116257142Y-97460714D01*
X116214285Y-97460714D01*
X116157142Y-97446428D01*
X116128571Y-97432142D01*
X116100000Y-97403571D01*
X116085714Y-97360714D01*
X116085714Y-97332142D01*
X116100000Y-97289285D01*
X116114285Y-97275000D01*
X116185714Y-97017857D02*
X116385714Y-97017857D01*
X116071428Y-97089285D02*
X116285714Y-97160714D01*
X116285714Y-96975000D01*
D12*
%TO.C,C14*%
X123796428Y-112853571D02*
X123805952Y-112863095D01*
X123815476Y-112891666D01*
X123815476Y-112910714D01*
X123805952Y-112939285D01*
X123786904Y-112958333D01*
X123767857Y-112967857D01*
X123729761Y-112977380D01*
X123701190Y-112977380D01*
X123663095Y-112967857D01*
X123644047Y-112958333D01*
X123625000Y-112939285D01*
X123615476Y-112910714D01*
X123615476Y-112891666D01*
X123625000Y-112863095D01*
X123634523Y-112853571D01*
X123815476Y-112663095D02*
X123815476Y-112777380D01*
X123815476Y-112720238D02*
X123615476Y-112720238D01*
X123644047Y-112739285D01*
X123663095Y-112758333D01*
X123672619Y-112777380D01*
X123682142Y-112491666D02*
X123815476Y-112491666D01*
X123605952Y-112539285D02*
X123748809Y-112586904D01*
X123748809Y-112463095D01*
D11*
%TO.C,R8*%
X123685714Y-108875000D02*
X123542857Y-108975000D01*
X123685714Y-109046428D02*
X123385714Y-109046428D01*
X123385714Y-108932142D01*
X123400000Y-108903571D01*
X123414285Y-108889285D01*
X123442857Y-108875000D01*
X123485714Y-108875000D01*
X123514285Y-108889285D01*
X123528571Y-108903571D01*
X123542857Y-108932142D01*
X123542857Y-109046428D01*
X123514285Y-108703571D02*
X123500000Y-108732142D01*
X123485714Y-108746428D01*
X123457142Y-108760714D01*
X123442857Y-108760714D01*
X123414285Y-108746428D01*
X123400000Y-108732142D01*
X123385714Y-108703571D01*
X123385714Y-108646428D01*
X123400000Y-108617857D01*
X123414285Y-108603571D01*
X123442857Y-108589285D01*
X123457142Y-108589285D01*
X123485714Y-108603571D01*
X123500000Y-108617857D01*
X123514285Y-108646428D01*
X123514285Y-108703571D01*
X123528571Y-108732142D01*
X123542857Y-108746428D01*
X123571428Y-108760714D01*
X123628571Y-108760714D01*
X123657142Y-108746428D01*
X123671428Y-108732142D01*
X123685714Y-108703571D01*
X123685714Y-108646428D01*
X123671428Y-108617857D01*
X123657142Y-108603571D01*
X123628571Y-108589285D01*
X123571428Y-108589285D01*
X123542857Y-108603571D01*
X123528571Y-108617857D01*
X123514285Y-108646428D01*
D10*
%TO.C,J2*%
X117901190Y-118491666D02*
X118258333Y-118491666D01*
X118329761Y-118515476D01*
X118377380Y-118563095D01*
X118401190Y-118634523D01*
X118401190Y-118682142D01*
X117948809Y-118277380D02*
X117925000Y-118253571D01*
X117901190Y-118205952D01*
X117901190Y-118086904D01*
X117925000Y-118039285D01*
X117948809Y-118015476D01*
X117996428Y-117991666D01*
X118044047Y-117991666D01*
X118115476Y-118015476D01*
X118401190Y-118301190D01*
X118401190Y-117991666D01*
D11*
%TO.C,C6*%
X138575000Y-102982142D02*
X138560714Y-102996428D01*
X138517857Y-103010714D01*
X138489285Y-103010714D01*
X138446428Y-102996428D01*
X138417857Y-102967857D01*
X138403571Y-102939285D01*
X138389285Y-102882142D01*
X138389285Y-102839285D01*
X138403571Y-102782142D01*
X138417857Y-102753571D01*
X138446428Y-102725000D01*
X138489285Y-102710714D01*
X138517857Y-102710714D01*
X138560714Y-102725000D01*
X138575000Y-102739285D01*
X138832142Y-102710714D02*
X138775000Y-102710714D01*
X138746428Y-102725000D01*
X138732142Y-102739285D01*
X138703571Y-102782142D01*
X138689285Y-102839285D01*
X138689285Y-102953571D01*
X138703571Y-102982142D01*
X138717857Y-102996428D01*
X138746428Y-103010714D01*
X138803571Y-103010714D01*
X138832142Y-102996428D01*
X138846428Y-102982142D01*
X138860714Y-102953571D01*
X138860714Y-102882142D01*
X138846428Y-102853571D01*
X138832142Y-102839285D01*
X138803571Y-102825000D01*
X138746428Y-102825000D01*
X138717857Y-102839285D01*
X138703571Y-102853571D01*
X138689285Y-102882142D01*
%TO.C,C8*%
X116382142Y-100800000D02*
X116396428Y-100814285D01*
X116410714Y-100857142D01*
X116410714Y-100885714D01*
X116396428Y-100928571D01*
X116367857Y-100957142D01*
X116339285Y-100971428D01*
X116282142Y-100985714D01*
X116239285Y-100985714D01*
X116182142Y-100971428D01*
X116153571Y-100957142D01*
X116125000Y-100928571D01*
X116110714Y-100885714D01*
X116110714Y-100857142D01*
X116125000Y-100814285D01*
X116139285Y-100800000D01*
X116239285Y-100628571D02*
X116225000Y-100657142D01*
X116210714Y-100671428D01*
X116182142Y-100685714D01*
X116167857Y-100685714D01*
X116139285Y-100671428D01*
X116125000Y-100657142D01*
X116110714Y-100628571D01*
X116110714Y-100571428D01*
X116125000Y-100542857D01*
X116139285Y-100528571D01*
X116167857Y-100514285D01*
X116182142Y-100514285D01*
X116210714Y-100528571D01*
X116225000Y-100542857D01*
X116239285Y-100571428D01*
X116239285Y-100628571D01*
X116253571Y-100657142D01*
X116267857Y-100671428D01*
X116296428Y-100685714D01*
X116353571Y-100685714D01*
X116382142Y-100671428D01*
X116396428Y-100657142D01*
X116410714Y-100628571D01*
X116410714Y-100571428D01*
X116396428Y-100542857D01*
X116382142Y-100528571D01*
X116353571Y-100514285D01*
X116296428Y-100514285D01*
X116267857Y-100528571D01*
X116253571Y-100542857D01*
X116239285Y-100571428D01*
%TO.C,R6*%
X136725000Y-106110714D02*
X136625000Y-105967857D01*
X136553571Y-106110714D02*
X136553571Y-105810714D01*
X136667857Y-105810714D01*
X136696428Y-105825000D01*
X136710714Y-105839285D01*
X136725000Y-105867857D01*
X136725000Y-105910714D01*
X136710714Y-105939285D01*
X136696428Y-105953571D01*
X136667857Y-105967857D01*
X136553571Y-105967857D01*
X136982142Y-105810714D02*
X136925000Y-105810714D01*
X136896428Y-105825000D01*
X136882142Y-105839285D01*
X136853571Y-105882142D01*
X136839285Y-105939285D01*
X136839285Y-106053571D01*
X136853571Y-106082142D01*
X136867857Y-106096428D01*
X136896428Y-106110714D01*
X136953571Y-106110714D01*
X136982142Y-106096428D01*
X136996428Y-106082142D01*
X137010714Y-106053571D01*
X137010714Y-105982142D01*
X136996428Y-105953571D01*
X136982142Y-105939285D01*
X136953571Y-105925000D01*
X136896428Y-105925000D01*
X136867857Y-105939285D01*
X136853571Y-105953571D01*
X136839285Y-105982142D01*
D10*
%TO.C,U1*%
X123801190Y-98455952D02*
X124205952Y-98455952D01*
X124253571Y-98432142D01*
X124277380Y-98408333D01*
X124301190Y-98360714D01*
X124301190Y-98265476D01*
X124277380Y-98217857D01*
X124253571Y-98194047D01*
X124205952Y-98170238D01*
X123801190Y-98170238D01*
X124301190Y-97670238D02*
X124301190Y-97955952D01*
X124301190Y-97813095D02*
X123801190Y-97813095D01*
X123872619Y-97860714D01*
X123920238Y-97908333D01*
X123944047Y-97955952D01*
%TO.C,U5*%
X113076190Y-110155952D02*
X113480952Y-110155952D01*
X113528571Y-110132142D01*
X113552380Y-110108333D01*
X113576190Y-110060714D01*
X113576190Y-109965476D01*
X113552380Y-109917857D01*
X113528571Y-109894047D01*
X113480952Y-109870238D01*
X113076190Y-109870238D01*
X113076190Y-109394047D02*
X113076190Y-109632142D01*
X113314285Y-109655952D01*
X113290476Y-109632142D01*
X113266666Y-109584523D01*
X113266666Y-109465476D01*
X113290476Y-109417857D01*
X113314285Y-109394047D01*
X113361904Y-109370238D01*
X113480952Y-109370238D01*
X113528571Y-109394047D01*
X113552380Y-109417857D01*
X113576190Y-109465476D01*
X113576190Y-109584523D01*
X113552380Y-109632142D01*
X113528571Y-109655952D01*
D11*
%TO.C,R10*%
X123835714Y-114717857D02*
X123692857Y-114817857D01*
X123835714Y-114889285D02*
X123535714Y-114889285D01*
X123535714Y-114775000D01*
X123550000Y-114746428D01*
X123564285Y-114732142D01*
X123592857Y-114717857D01*
X123635714Y-114717857D01*
X123664285Y-114732142D01*
X123678571Y-114746428D01*
X123692857Y-114775000D01*
X123692857Y-114889285D01*
X123835714Y-114432142D02*
X123835714Y-114603571D01*
X123835714Y-114517857D02*
X123535714Y-114517857D01*
X123578571Y-114546428D01*
X123607142Y-114575000D01*
X123621428Y-114603571D01*
X123535714Y-114246428D02*
X123535714Y-114217857D01*
X123550000Y-114189285D01*
X123564285Y-114175000D01*
X123592857Y-114160714D01*
X123650000Y-114146428D01*
X123721428Y-114146428D01*
X123778571Y-114160714D01*
X123807142Y-114175000D01*
X123821428Y-114189285D01*
X123835714Y-114217857D01*
X123835714Y-114246428D01*
X123821428Y-114275000D01*
X123807142Y-114289285D01*
X123778571Y-114303571D01*
X123721428Y-114317857D01*
X123650000Y-114317857D01*
X123592857Y-114303571D01*
X123564285Y-114289285D01*
X123550000Y-114275000D01*
X123535714Y-114246428D01*
%TO.C,R1*%
X131975000Y-101660714D02*
X131875000Y-101517857D01*
X131803571Y-101660714D02*
X131803571Y-101360714D01*
X131917857Y-101360714D01*
X131946428Y-101375000D01*
X131960714Y-101389285D01*
X131975000Y-101417857D01*
X131975000Y-101460714D01*
X131960714Y-101489285D01*
X131946428Y-101503571D01*
X131917857Y-101517857D01*
X131803571Y-101517857D01*
X132260714Y-101660714D02*
X132089285Y-101660714D01*
X132175000Y-101660714D02*
X132175000Y-101360714D01*
X132146428Y-101403571D01*
X132117857Y-101432142D01*
X132089285Y-101446428D01*
%TO.C,R3*%
X136725000Y-102985714D02*
X136625000Y-102842857D01*
X136553571Y-102985714D02*
X136553571Y-102685714D01*
X136667857Y-102685714D01*
X136696428Y-102700000D01*
X136710714Y-102714285D01*
X136725000Y-102742857D01*
X136725000Y-102785714D01*
X136710714Y-102814285D01*
X136696428Y-102828571D01*
X136667857Y-102842857D01*
X136553571Y-102842857D01*
X136825000Y-102685714D02*
X137010714Y-102685714D01*
X136910714Y-102800000D01*
X136953571Y-102800000D01*
X136982142Y-102814285D01*
X136996428Y-102828571D01*
X137010714Y-102857142D01*
X137010714Y-102928571D01*
X136996428Y-102957142D01*
X136982142Y-102971428D01*
X136953571Y-102985714D01*
X136867857Y-102985714D01*
X136839285Y-102971428D01*
X136825000Y-102957142D01*
D10*
%TO.C,U4*%
X131526190Y-95255952D02*
X131930952Y-95255952D01*
X131978571Y-95232142D01*
X132002380Y-95208333D01*
X132026190Y-95160714D01*
X132026190Y-95065476D01*
X132002380Y-95017857D01*
X131978571Y-94994047D01*
X131930952Y-94970238D01*
X131526190Y-94970238D01*
X131692857Y-94517857D02*
X132026190Y-94517857D01*
X131502380Y-94636904D02*
X131859523Y-94755952D01*
X131859523Y-94446428D01*
%TO.C,U3*%
X119201190Y-110080952D02*
X119605952Y-110080952D01*
X119653571Y-110057142D01*
X119677380Y-110033333D01*
X119701190Y-109985714D01*
X119701190Y-109890476D01*
X119677380Y-109842857D01*
X119653571Y-109819047D01*
X119605952Y-109795238D01*
X119201190Y-109795238D01*
X119201190Y-109604761D02*
X119201190Y-109295238D01*
X119391666Y-109461904D01*
X119391666Y-109390476D01*
X119415476Y-109342857D01*
X119439285Y-109319047D01*
X119486904Y-109295238D01*
X119605952Y-109295238D01*
X119653571Y-109319047D01*
X119677380Y-109342857D01*
X119701190Y-109390476D01*
X119701190Y-109533333D01*
X119677380Y-109580952D01*
X119653571Y-109604761D01*
D11*
%TO.C,R4*%
X112860714Y-95850000D02*
X112717857Y-95950000D01*
X112860714Y-96021428D02*
X112560714Y-96021428D01*
X112560714Y-95907142D01*
X112575000Y-95878571D01*
X112589285Y-95864285D01*
X112617857Y-95850000D01*
X112660714Y-95850000D01*
X112689285Y-95864285D01*
X112703571Y-95878571D01*
X112717857Y-95907142D01*
X112717857Y-96021428D01*
X112660714Y-95592857D02*
X112860714Y-95592857D01*
X112546428Y-95664285D02*
X112760714Y-95735714D01*
X112760714Y-95550000D01*
%TO.C,C7*%
X116382142Y-99100000D02*
X116396428Y-99114285D01*
X116410714Y-99157142D01*
X116410714Y-99185714D01*
X116396428Y-99228571D01*
X116367857Y-99257142D01*
X116339285Y-99271428D01*
X116282142Y-99285714D01*
X116239285Y-99285714D01*
X116182142Y-99271428D01*
X116153571Y-99257142D01*
X116125000Y-99228571D01*
X116110714Y-99185714D01*
X116110714Y-99157142D01*
X116125000Y-99114285D01*
X116139285Y-99100000D01*
X116110714Y-99000000D02*
X116110714Y-98800000D01*
X116410714Y-98928571D01*
%TO.C,C10*%
X138432142Y-106057142D02*
X138417857Y-106071428D01*
X138375000Y-106085714D01*
X138346428Y-106085714D01*
X138303571Y-106071428D01*
X138275000Y-106042857D01*
X138260714Y-106014285D01*
X138246428Y-105957142D01*
X138246428Y-105914285D01*
X138260714Y-105857142D01*
X138275000Y-105828571D01*
X138303571Y-105800000D01*
X138346428Y-105785714D01*
X138375000Y-105785714D01*
X138417857Y-105800000D01*
X138432142Y-105814285D01*
X138717857Y-106085714D02*
X138546428Y-106085714D01*
X138632142Y-106085714D02*
X138632142Y-105785714D01*
X138603571Y-105828571D01*
X138575000Y-105857142D01*
X138546428Y-105871428D01*
X138903571Y-105785714D02*
X138932142Y-105785714D01*
X138960714Y-105800000D01*
X138975000Y-105814285D01*
X138989285Y-105842857D01*
X139003571Y-105900000D01*
X139003571Y-105971428D01*
X138989285Y-106028571D01*
X138975000Y-106057142D01*
X138960714Y-106071428D01*
X138932142Y-106085714D01*
X138903571Y-106085714D01*
X138875000Y-106071428D01*
X138860714Y-106057142D01*
X138846428Y-106028571D01*
X138832142Y-105971428D01*
X138832142Y-105900000D01*
X138846428Y-105842857D01*
X138860714Y-105814285D01*
X138875000Y-105800000D01*
X138903571Y-105785714D01*
%TO.C,C2*%
X129232142Y-103825000D02*
X129246428Y-103839285D01*
X129260714Y-103882142D01*
X129260714Y-103910714D01*
X129246428Y-103953571D01*
X129217857Y-103982142D01*
X129189285Y-103996428D01*
X129132142Y-104010714D01*
X129089285Y-104010714D01*
X129032142Y-103996428D01*
X129003571Y-103982142D01*
X128975000Y-103953571D01*
X128960714Y-103910714D01*
X128960714Y-103882142D01*
X128975000Y-103839285D01*
X128989285Y-103825000D01*
X128989285Y-103710714D02*
X128975000Y-103696428D01*
X128960714Y-103667857D01*
X128960714Y-103596428D01*
X128975000Y-103567857D01*
X128989285Y-103553571D01*
X129017857Y-103539285D01*
X129046428Y-103539285D01*
X129089285Y-103553571D01*
X129260714Y-103725000D01*
X129260714Y-103539285D01*
%TO.C,R9*%
X138310714Y-108675000D02*
X138167857Y-108775000D01*
X138310714Y-108846428D02*
X138010714Y-108846428D01*
X138010714Y-108732142D01*
X138025000Y-108703571D01*
X138039285Y-108689285D01*
X138067857Y-108675000D01*
X138110714Y-108675000D01*
X138139285Y-108689285D01*
X138153571Y-108703571D01*
X138167857Y-108732142D01*
X138167857Y-108846428D01*
X138310714Y-108532142D02*
X138310714Y-108475000D01*
X138296428Y-108446428D01*
X138282142Y-108432142D01*
X138239285Y-108403571D01*
X138182142Y-108389285D01*
X138067857Y-108389285D01*
X138039285Y-108403571D01*
X138025000Y-108417857D01*
X138010714Y-108446428D01*
X138010714Y-108503571D01*
X138025000Y-108532142D01*
X138039285Y-108546428D01*
X138067857Y-108560714D01*
X138139285Y-108560714D01*
X138167857Y-108546428D01*
X138182142Y-108532142D01*
X138196428Y-108503571D01*
X138196428Y-108446428D01*
X138182142Y-108417857D01*
X138167857Y-108403571D01*
X138139285Y-108389285D01*
%TO.C,C11*%
X123982142Y-110892857D02*
X123996428Y-110907142D01*
X124010714Y-110950000D01*
X124010714Y-110978571D01*
X123996428Y-111021428D01*
X123967857Y-111050000D01*
X123939285Y-111064285D01*
X123882142Y-111078571D01*
X123839285Y-111078571D01*
X123782142Y-111064285D01*
X123753571Y-111050000D01*
X123725000Y-111021428D01*
X123710714Y-110978571D01*
X123710714Y-110950000D01*
X123725000Y-110907142D01*
X123739285Y-110892857D01*
X124010714Y-110607142D02*
X124010714Y-110778571D01*
X124010714Y-110692857D02*
X123710714Y-110692857D01*
X123753571Y-110721428D01*
X123782142Y-110750000D01*
X123796428Y-110778571D01*
X124010714Y-110321428D02*
X124010714Y-110492857D01*
X124010714Y-110407142D02*
X123710714Y-110407142D01*
X123753571Y-110435714D01*
X123782142Y-110464285D01*
X123796428Y-110492857D01*
D10*
%TO.C,J3*%
X118326190Y-90766666D02*
X118683333Y-90766666D01*
X118754761Y-90790476D01*
X118802380Y-90838095D01*
X118826190Y-90909523D01*
X118826190Y-90957142D01*
X118326190Y-90576190D02*
X118326190Y-90266666D01*
X118516666Y-90433333D01*
X118516666Y-90361904D01*
X118540476Y-90314285D01*
X118564285Y-90290476D01*
X118611904Y-90266666D01*
X118730952Y-90266666D01*
X118778571Y-90290476D01*
X118802380Y-90314285D01*
X118826190Y-90361904D01*
X118826190Y-90504761D01*
X118802380Y-90552380D01*
X118778571Y-90576190D01*
D11*
%TO.C,R7*%
X122810714Y-106550000D02*
X122667857Y-106650000D01*
X122810714Y-106721428D02*
X122510714Y-106721428D01*
X122510714Y-106607142D01*
X122525000Y-106578571D01*
X122539285Y-106564285D01*
X122567857Y-106550000D01*
X122610714Y-106550000D01*
X122639285Y-106564285D01*
X122653571Y-106578571D01*
X122667857Y-106607142D01*
X122667857Y-106721428D01*
X122510714Y-106450000D02*
X122510714Y-106250000D01*
X122810714Y-106378571D01*
%TO.C,C12*%
X114432142Y-113807142D02*
X114417857Y-113821428D01*
X114375000Y-113835714D01*
X114346428Y-113835714D01*
X114303571Y-113821428D01*
X114275000Y-113792857D01*
X114260714Y-113764285D01*
X114246428Y-113707142D01*
X114246428Y-113664285D01*
X114260714Y-113607142D01*
X114275000Y-113578571D01*
X114303571Y-113550000D01*
X114346428Y-113535714D01*
X114375000Y-113535714D01*
X114417857Y-113550000D01*
X114432142Y-113564285D01*
X114717857Y-113835714D02*
X114546428Y-113835714D01*
X114632142Y-113835714D02*
X114632142Y-113535714D01*
X114603571Y-113578571D01*
X114575000Y-113607142D01*
X114546428Y-113621428D01*
X114832142Y-113564285D02*
X114846428Y-113550000D01*
X114875000Y-113535714D01*
X114946428Y-113535714D01*
X114975000Y-113550000D01*
X114989285Y-113564285D01*
X115003571Y-113592857D01*
X115003571Y-113621428D01*
X114989285Y-113664285D01*
X114817857Y-113835714D01*
X115003571Y-113835714D01*
D13*
%TO.C,U6*%
X128100000Y-110795000D02*
X140600000Y-110795000D01*
X140600000Y-110795000D02*
X140600000Y-120095000D01*
X140600000Y-120095000D02*
X128100000Y-120095000D01*
X128100000Y-120095000D02*
X128100000Y-110795000D01*
%TO.C,U2*%
X86155000Y-115120000D02*
X86575000Y-115120000D01*
X105595000Y-96880000D02*
X105595000Y-97880000D01*
X86575000Y-115120000D02*
X86575000Y-115500000D01*
X86155000Y-115120000D02*
X86155000Y-96880000D01*
X104975000Y-96880000D02*
X105595000Y-96880000D01*
X105595000Y-115120000D02*
X105595000Y-114120000D01*
X104975000Y-115120000D02*
X105595000Y-115120000D01*
X86155000Y-96880000D02*
X86575000Y-96880000D01*
%TO.C,D1*%
X127534000Y-106269400D02*
X129819000Y-106269400D01*
X129819000Y-104799400D02*
X127534000Y-104799400D01*
X127534000Y-104799400D02*
X127534000Y-106269400D01*
%TO.C,D2*%
X123785000Y-105015000D02*
X123785000Y-107300000D01*
X125255000Y-105015000D02*
X123785000Y-105015000D01*
X125255000Y-107300000D02*
X125255000Y-105015000D01*
%TO.C,C13*%
X111630000Y-113785580D02*
X111630000Y-113504420D01*
X112650000Y-113785580D02*
X112650000Y-113504420D01*
%TO.C,SW2*%
X148250000Y-114705000D02*
X142250000Y-114705000D01*
X142250000Y-114705000D02*
X142250000Y-112405000D01*
X142250000Y-112405000D02*
X148250000Y-112405000D01*
X148250000Y-112405000D02*
X148250000Y-114705000D01*
D14*
%TO.C,J1*%
X147200000Y-108950000D02*
X147200000Y-101450000D01*
X142850000Y-108950000D02*
X142850000Y-108500000D01*
X147200000Y-101450000D02*
X147050000Y-101450000D01*
X142850000Y-101900000D02*
X142850000Y-101450000D01*
X142850000Y-101450000D02*
X144450000Y-101450000D01*
X147200000Y-108950000D02*
X147050000Y-108950000D01*
X144450000Y-108950000D02*
X142850000Y-108950000D01*
D15*
X141635000Y-106450000D02*
G75*
G03*
X141635000Y-106450000I-100000J0D01*
G01*
D13*
%TO.C,C4*%
X116470580Y-97770000D02*
X116189420Y-97770000D01*
X116470580Y-96750000D02*
X116189420Y-96750000D01*
%TO.C,C14*%
X123609420Y-112240000D02*
X123890580Y-112240000D01*
X123609420Y-113260000D02*
X123890580Y-113260000D01*
%TO.C,R8*%
X123737258Y-109322500D02*
X123262742Y-109322500D01*
X123737258Y-108277500D02*
X123262742Y-108277500D01*
%TO.C,J2*%
X122020000Y-119745000D02*
X114520000Y-119745000D01*
X114520000Y-119745000D02*
X114520000Y-116745000D01*
X114520000Y-116745000D02*
X122020000Y-116745000D01*
X122020000Y-116745000D02*
X122020000Y-119745000D01*
%TO.C,C6*%
X139140600Y-102908980D02*
X139140600Y-102627820D01*
X138120600Y-102908980D02*
X138120600Y-102627820D01*
%TO.C,C8*%
X116480580Y-100260000D02*
X116199420Y-100260000D01*
X116480580Y-101280000D02*
X116199420Y-101280000D01*
%TO.C,R6*%
X136317500Y-106207258D02*
X136317500Y-105732742D01*
X137362500Y-106207258D02*
X137362500Y-105732742D01*
%TO.C,U1*%
X125410000Y-99850000D02*
X125410000Y-96090000D01*
X118590000Y-102100000D02*
X118590000Y-96090000D01*
X125410000Y-96090000D02*
X124150000Y-96090000D01*
X118590000Y-96090000D02*
X119850000Y-96090000D01*
D14*
%TO.C,U5*%
X114287500Y-111339000D02*
X112487500Y-111339000D01*
X114287500Y-108181000D02*
X112487500Y-108181000D01*
D15*
X115887500Y-110760000D02*
G75*
G03*
X115887500Y-110760000I-100000J0D01*
G01*
D13*
%TO.C,SW1*%
X148250000Y-97455000D02*
X142250000Y-97455000D01*
X142250000Y-97455000D02*
X142250000Y-95155000D01*
X142250000Y-95155000D02*
X148250000Y-95155000D01*
X148250000Y-95155000D02*
X148250000Y-97455000D01*
%TO.C,R10*%
X123937258Y-115052500D02*
X123462742Y-115052500D01*
X123937258Y-114007500D02*
X123462742Y-114007500D01*
%TO.C,C3*%
X117910000Y-96150000D02*
X114110000Y-96150000D01*
X114110000Y-96150000D02*
X114110000Y-93550000D01*
X114110000Y-93550000D02*
X117910000Y-93550000D01*
X117910000Y-93550000D02*
X117910000Y-96150000D01*
%TO.C,R1*%
X132522500Y-101737258D02*
X132522500Y-101262742D01*
X131477500Y-101737258D02*
X131477500Y-101262742D01*
%TO.C,R3*%
X137362500Y-102582742D02*
X137362500Y-103057258D01*
X136317500Y-102582742D02*
X136317500Y-103057258D01*
%TO.C,U4*%
X140800000Y-99505000D02*
X128300000Y-99505000D01*
X128300000Y-99505000D02*
X128300000Y-90205000D01*
X128300000Y-90205000D02*
X140800000Y-90205000D01*
X140800000Y-90205000D02*
X140800000Y-99505000D01*
%TO.C,U3*%
X119500000Y-108190000D02*
X120300000Y-108190000D01*
X119500000Y-108190000D02*
X117700000Y-108190000D01*
X119500000Y-111310000D02*
X118700000Y-111310000D01*
X119500000Y-111310000D02*
X120300000Y-111310000D01*
%TO.C,R4*%
X113272500Y-95987258D02*
X113272500Y-95512742D01*
X112227500Y-95987258D02*
X112227500Y-95512742D01*
%TO.C,C7*%
X116470580Y-98520000D02*
X116189420Y-98520000D01*
X116470580Y-99540000D02*
X116189420Y-99540000D01*
%TO.C,C10*%
X138120600Y-105877820D02*
X138120600Y-106158980D01*
X139140600Y-105877820D02*
X139140600Y-106158980D01*
%TO.C,C1*%
X130650000Y-102550000D02*
X126850000Y-102550000D01*
X126850000Y-102550000D02*
X126850000Y-99950000D01*
X126850000Y-99950000D02*
X130650000Y-99950000D01*
X130650000Y-99950000D02*
X130650000Y-102550000D01*
%TO.C,C2*%
X128891420Y-104260000D02*
X129172580Y-104260000D01*
X128891420Y-103240000D02*
X129172580Y-103240000D01*
%TO.C,R9*%
X137942742Y-108097500D02*
X138417258Y-108097500D01*
X137942742Y-109142500D02*
X138417258Y-109142500D01*
%TO.C,C11*%
X123900580Y-111210000D02*
X123619420Y-111210000D01*
X123900580Y-110190000D02*
X123619420Y-110190000D01*
%TO.C,J3*%
X124825000Y-88420000D02*
X126155000Y-88420000D01*
X123555000Y-91080000D02*
X113335000Y-91080000D01*
X123555000Y-88420000D02*
X113335000Y-88420000D01*
X113335000Y-88420000D02*
X113335000Y-91080000D01*
X126155000Y-88420000D02*
X126155000Y-89750000D01*
X123555000Y-88420000D02*
X123555000Y-91080000D01*
%TO.C,R7*%
X123232500Y-106777258D02*
X123232500Y-106302742D01*
X122187500Y-106777258D02*
X122187500Y-106302742D01*
%TO.C,C12*%
X114130000Y-113464420D02*
X114130000Y-113745580D01*
X115150000Y-113464420D02*
X115150000Y-113745580D01*
%TD*%
M02*
